/* XPM */
static char *result[] = {
/* columns rows colors chars-per-pixel */
"32 32 77 1 ",
"  c #1C858B",
". c #1C898E",
"X c #1C8A90",
"o c #1D9296",
"O c #1F9599",
"+ c #218D92",
"@ c #279396",
"# c #299295",
"$ c #21969A",
"% c #2D9598",
"& c #229A9D",
"* c #2B989A",
"= c #30969A",
"- c #359A9D",
"; c #389C9F",
": c #249DA1",
"> c #3C9FA1",
", c #25A1A4",
"< c #28A5A7",
"1 c #28A6A9",
"2 c #2BABAD",
"3 c #3DA0A2",
"4 c #30ABAC",
"5 c #2BADB0",
"6 c #2EB2B4",
"7 c #31B3B5",
"8 c #31B7B8",
"9 c #33BABB",
"0 c #45A4A6",
"q c #49A7A7",
"w c #49A7A9",
"e c #4EAAAA",
"r c #52ADAD",
"t c #4EB4B4",
"y c #56B1B0",
"u c #5EB3B2",
"i c #5DB8B8",
"p c #62B6B4",
"a c #6BBDBB",
"s c #71BEBB",
"d c #6CC0BC",
"f c #73C1BD",
"g c #37C1C1",
"h c #39C4C4",
"j c #3DCDCC",
"k c #3FD0CF",
"l c #41D3D2",
"z c #54D7D3",
"x c #54DAD7",
"c c #75C4C0",
"v c #7BC6C2",
"b c #7ACAC7",
"n c #65DBD9",
"m c #82C9C5",
"M c #8DCFCA",
"N c #8DD0CA",
"B c #94D3CD",
"V c #9AD6CE",
"C c #97D6D0",
"Z c #99D6D0",
"A c #9FDBD4",
"S c #A4DDD5",
"D c #86E2DB",
"F c #90E3DC",
"G c #9AE6DE",
"H c #ABE1D7",
"J c #ADE2DA",
"K c #B2E5DC",
"L c #B7E9DF",
"P c #A2EAE3",
"I c #BCEBE2",
"U c #B6F0E8",
"Y c #C1EDE3",
"T c #C6F0E5",
"R c #C8F2E7",
"E c #C5F4EB",
"W c #CAF4EB",
/* pixels */
"YIfX.  &jll1              X8llll",
"pLIJe   1ll2                .X..",
" #sYS0X X5lj:                   ",
"   =NYC% 186,                   ",
"    -VYN+188j:                  ",
"     >SB@167khX                 ",
"      qKm15 O9$.                ",
"      >JM25 ogll8               ",
"      .rKb2< .:j9               ",
"       .uLd2,  :6               ",
"        yKd6lh$XX               ",
"        +pa.$hll8.              ",
"        .pKy $jl9               ",
"         +ap $hl9               ",
"         +sKq &j9               ",
"         .sKe $j9.              ",
"          %fr .,6.              ",
"          +mJ0 &8.              ",
"          +fTS-.rf.             ",
"           %BYV=yLa.++          ",
"            -STBaWIIIS>.        ",
"            %CRITETRTTLN+       ",
"             ;HTGxDIIYRYm+      ",
"              0JFk6X>CRYIf      ",
"              ..o2j1 3HRYv.     ",
"    .            .7j,;SERIa     ",
"1ljlh:            X9lhyJYYLu    ",
"l7 o9h$             OhlhiLYKr ..",
"XX  X$h9.            $jl9*fWUnlh",
"k6..XX,k9.            &jlllzGYPx",
"2kjkkjkll6             X1l7X-VYI",
"bXX.XX:kll2             .2lj:.eK"
};
