/* XPM */
static char *result[] = {
/* columns rows colors chars-per-pixel */
"32 32 252 2 ",
"   c #1C858B",
".  c #1C868C",
"X  c #1C898F",
"o  c #1C888E",
"O  c #6DBCB9",
"+  c #BEECE3",
"@  c #B2E6DE",
"#  c #4FAAAA",
"$  c #1C868B",
"%  c #29A9AA",
"&  c #3ECECD",
"*  c #1C838A",
"=  c #249DA1",
"-  c #3ACAC8",
";  c #31B3B5",
":  c #1C8A91",
">  c #1C858C",
",  c #1C8990",
"<  c #1C878D",
"1  c #218D92",
"2  c #7CC6C2",
"3  c #C2EEE3",
"4  c #A2DBD3",
"5  c #3C9FA1",
"6  c #1C828A",
"7  c #1C868D",
"8  c #3BCBCA",
"9  c #41D3D1",
"0  c #2DAEB0",
"q  c #1E9397",
"w  c #34BEBE",
"e  c #3FD0CF",
"r  c #30B2B4",
"t  c #299295",
"y  c #8ACDC8",
"u  c #A6DED6",
"i  c #44A4A6",
"p  c #1C848C",
"a  c #28A5A8",
"s  c #3DCCCA",
"d  c #40D2D0",
"f  c #41D2D1",
"g  c #40D1D0",
"h  c #39C5C6",
"j  c #219A9E",
"k  c #1C888F",
"l  c #28A7AA",
"z  c #3CCAC9",
"x  c #2CADAF",
"c  c #1C878E",
"v  c #31989A",
"b  c #98D6D0",
"n  c #99D6CE",
"m  c #34999C",
"M  c #1C8A90",
"N  c #2EB0B2",
"B  c #29A9AB",
"V  c #1C8C92",
"C  c #2CAEB0",
"Z  c #3CCACA",
"A  c #27A2A6",
"S  c #2A9296",
"D  c #92D2CB",
"F  c #9DD9D1",
"G  c #3B9DA1",
"H  c #59B2B2",
"J  c #1D8A8F",
"K  c #30B5B6",
"L  c #1C9095",
"P  c #32BABB",
"I  c #3DCBCA",
"U  c #259EA2",
"Y  c #3A9CA0",
"T  c #9BD7CF",
"R  c #90D1CA",
"E  c #31979A",
"W  c #51ACAC",
"Q  c #3DCDCB",
"!  c #43D7D5",
"~  c #3AC8C7",
"^  c #229A9E",
"/  c #46A4A6",
"(  c #AAE0D9",
")  c #82C9C5",
"_  c #248F92",
"`  c #B4E6DC",
"'  c #53AEAE",
"]  c #31B6B7",
"[  c #41D5D3",
"{  c #38C2C2",
"}  c #21959A",
"|  c #3EA0A2",
" . c #A5DDD5",
".. c #85CBC7",
"X. c #259093",
"o. c #57B1B0",
"O. c #1C8E93",
"+. c #32BABA",
"@. c #42D6D4",
"#. c #34BCBD",
"$. c #1C8F94",
"%. c #54AEAD",
"&. c #73C1BE",
"*. c #2D9397",
"=. c #1C838B",
"-. c #1E9296",
";. c #36C0C1",
":. c #44D8D6",
">. c #37C1C2",
",. c #1F9297",
"<. c #49A7A9",
"1. c #A8DED5",
"2. c #73C1BC",
"3. c #218B91",
"4. c #2B9397",
"5. c #79C3C0",
"6. c #20979B",
"7. c #38C5C5",
"8. c #41D3D2",
"9. c #31B6B8",
"0. c #1C8B92",
"q. c #1C848A",
"w. c #5FB5B4",
"e. c #6DBDBB",
"r. c #279093",
"t. c #8BCDC8",
"y. c #1F969A",
"u. c #2FB2B3",
"i. c #2DB0B2",
"p. c #1D9195",
"a. c #B1E4DC",
"s. c #6EBEBC",
"d. c #238E92",
"f. c #87CCC7",
"g. c #A4DDD5",
"h. c #3F9FA2",
"j. c #2EB1B2",
"k. c #3BCAC9",
"l. c #55AFAE",
"z. c #B0E3DB",
"x. c #72C0BD",
"c. c #7AC4C1",
"v. c #46A6A7",
"b. c #2BADAF",
"n. c #3AC8C8",
"m. c #2BACAE",
"M. c #1C888D",
"N. c #69BAB7",
"B. c #6DBEBB",
"V. c #1C848B",
"C. c #95D3CD",
"Z. c #9AD7CF",
"A. c #399C9E",
"S. c #67B9B7",
"D. c #B7E8DE",
"F. c #25A1A4",
"G. c #C6F0E5",
"H. c #8FD1CB",
"J. c #20949A",
"K. c #3FD1CF",
"L. c #229A9F",
"P. c #61B6B4",
"I. c #B8E8DF",
"U. c #27A4A7",
"Y. c #9CD8D2",
"T. c #82C9C3",
"R. c #1D9296",
"E. c #30B7B8",
"W. c #3CCCCB",
"Q. c #26A0A3",
"!. c #1E8B90",
"~. c #6BBBBA",
"^. c #AAE0D8",
"/. c #C5EFE4",
"(. c #76C2BF",
"). c #39C5C4",
"_. c #21979A",
"`. c #1C8A8E",
"'. c #C7F1E6",
"]. c #BFEBE1",
"[. c #6CBDBA",
"{. c #218C91",
"}. c #208A90",
"|. c #219A9D",
" X c #ADE1D8",
".X c #C6F0E4",
"XX c #C2EDE3",
"oX c #BCEBE2",
"OX c #A1DBD3",
"+X c #3ECFCE",
"@X c #21989B",
"#X c #5AB2B2",
"$X c #C2EDE2",
"%X c #C4F0E5",
"&X c #C1EDE3",
"*X c #8CCFC9",
"=X c #29A6A9",
"-X c #71C1BE",
";X c #BDEBE3",
":X c #C3EFE4",
">X c #1C8A8F",
",X c #32999A",
"<X c #C5F1E6",
"1X c #208C91",
"2X c #31B8B9",
"3X c #3B9EA0",
"4X c #C8F2E7",
"5X c #C7F0E4",
"6X c #7BC5C2",
"7X c #238F93",
"8X c #99D5CD",
"9X c #6BBCBA",
"0X c #1C8D92",
"qX c #34BBBC",
"wX c #37C2C2",
"eX c #44A4A5",
"rX c #BBEBE1",
"tX c #61B5B3",
"yX c #31B9BA",
"uX c #20969A",
"iX c #1C9094",
"pX c #39C7C7",
"aX c #5CB3B2",
"sX c #55B0B0",
"dX c #BAEAE0",
"fX c #AAE1DA",
"gX c #4DAAAA",
"hX c #1C878C",
"jX c #1E9297",
"kX c #36C0C0",
"lX c #97D5CF",
"zX c #3B9FA1",
"xX c #32B8B9",
"cX c #39C4C5",
"vX c #30979A",
"bX c #91D2CB",
"nX c #BEEBE1",
"mX c #BEEBE0",
"MX c #2D9599",
"NX c #219A9C",
"BX c #3AC9C8",
"VX c #33BBBC",
"CX c #239CA0",
"ZX c #2DAFB1",
"AX c #1D9196",
"SX c #24A0A3",
"DX c #60B6B5",
"FX c #BBEAE1",
"GX c #5BB3B3",
"HX c #29A8AA",
"JX c #3CCCCA",
"KX c #2EAFB1",
/* pixels */
"        . X o                               . O + @ # $     % & ",
"      * = - ; :   > o , , , <                 1 2 3 4 5 6   7 X ",
"      * = 8 9 0 : q w e & e r :                 t y u i p       ",
"          a s d f g h j k l z x : c             * v b n m 6     ",
"<         7 M N & B V 7   7 M C Z A .           6 S D F G *     ",
"H J           M K e h j k , , L P I U             * Y T R E *   ",
"@ W             7 q w e & & & Q d ! ~ ^             * / ( ) _ * ",
"` '               > o , , , X V ] [ ! { }           6 |  ...X.* ",
"2 o..                           O.+.@.! #.$.*         p %.&.*.p ",
") u / =.                          -.;.:.>.,.          6 <.1.2.3.",
"4.5.# *                           6 6.7.8.9.0.q.        . w.e.r.",
"_ t.4 5 6                         * y.u.u.i.p.          6 H a.s.",
"d.f.g.h.6                         * y.j.C k.; :         6 l.z.x.",
"* m c.v.p                         * y.j.b.n.f m.7         M.N.B.",
"V.*.C.Z.A.*                       * y.u.6.o x m.V X .     p S.D.",
"F.4.R G.H.E *                     * J.N 6.6 B s K.z L.*   V.P.I.",
"U.  Y Y.G.T.t V.                      j C R.7 V E.W.Q.      !.~.",
"U.> * v.^./.(.d.                        F.C -.7 O.+.)._.*     `.",
"U.. 6 | 4 '.].[._ {.}.<               * = ~ e 0 : _.K |.*       ",
"U..   V.#  X.XXXoX+ OXi `..             . X m.+Xd 9 n.@X*       ",
"U..     . #Xz.$XG.G.%X&X*XE *               o r 8.:.k.@X*       ",
"=X<       < 1 -XI.;X:XG./.T.t V.            . C d :.k.@X*       ",
"& F.          >X}.,XD <XG.:X&.1XV.            M 2X! k.@X*       ",
"g a .             * 3XOX4X5X6X7X              o ; @.Z j         ",
"@.I L.*           6 m 8X.XG.].9X}.              0XqX:.wXq *     ",
"+.W.Q.              * eX4 3 /.rXtX>X            : yX! h uX      ",
"iXw pX_.*             < J aXz.3 ` sX.             -.;.! qX$.*   ",
": +.k.j                   < 1 -XdXfXgXJ hX          } 7.>.,.    ",
"  jXkX{ }                     `.4.f.].lXzX`..       6 L.z xX: 6 ",
"    } cXqX$.*                   p vXbXnXmX) MX<     * NXBXVXiX  ",
"      CXZXAX*                     . `.v.4 mXdX9X1X      SXZ ; : ",
"      . < >                           . !.DXI.FXGXhX      HXJXKX"
};
