/* XPM */
static char *result[] = {
/* columns rows colors chars-per-pixel */
"32 32 88 1 ",
"  c #1C858B",
". c #1C898E",
"X c #1C8A91",
"o c #1D9295",
"O c #1F9498",
"+ c #1F9A9E",
"@ c #228D92",
"# c #239295",
"$ c #2B9296",
"% c #20959A",
"& c #2E9599",
"* c #229A9D",
"= c #30969A",
"- c #35999C",
"; c #259EA2",
": c #3C9FA1",
"> c #26A2A5",
", c #28A5A7",
"< c #27A3A8",
"1 c #28A6A9",
"2 c #2AAAAC",
"3 c #3EA0A2",
"4 c #2CADB0",
"5 c #2FB2B4",
"6 c #30B4B5",
"7 c #39B4B5",
"8 c #31B7B8",
"9 c #32BABA",
"0 c #44A4A5",
"q c #48A6A6",
"w c #48A7A9",
"e c #4FABAB",
"r c #53ADAC",
"t c #57B1B0",
"y c #5BB3B2",
"u c #62B6B4",
"i c #66B9B6",
"p c #6ABCBB",
"a c #70BFBC",
"s c #73C2BE",
"d c #37C2C2",
"f c #39C4C4",
"g c #3DCDCC",
"h c #3FD0CF",
"j c #44C6C5",
"k c #49C4C3",
"l c #46CECC",
"z c #52CBCA",
"x c #41D3D1",
"c c #4ED7D4",
"v c #50DAD7",
"b c #55DAD8",
"n c #75C4C3",
"m c #7BC5C2",
"M c #65D4D2",
"N c #63DCD8",
"B c #6FDFDA",
"V c #76DDDA",
"C c #79E2DC",
"Z c #7CE4E0",
"A c #83C9C5",
"S c #84CBC8",
"D c #8CCECA",
"F c #8DD1CC",
"G c #9AD7CF",
"H c #85DDD7",
"J c #97D6D1",
"K c #9BD7D1",
"L c #A5DED6",
"P c #86E2DB",
"I c #AAE0D7",
"U c #ADE2D9",
"Y c #B4E6DD",
"T c #B9E9DF",
"R c #96E9E3",
"E c #99EBE5",
"W c #AEE6E0",
"Q c #A4EAE0",
"! c #AAEDE6",
"~ c #B4EEE4",
"^ c #BBEBE2",
"/ c #B2F1E9",
"( c #BEF3EA",
") c #C2EEE3",
"_ c #C6F1E6",
"` c #C8F2E7",
"' c #C2F2EA",
"] c #C9F7EF",
/* pixels */
"             iY)_U3 1hxx>       ",
"             .@S^)G-<hxx>       ",
"               .=G)D-5xx;       ",
"                 .0L)Pvx>       ",
"X                  eU^'Cl*      ",
"Uq                 ..p^]^w      ",
"`L-                  .@F]W3..   ",
"UI3                    @k!_D&   ",
"v!G&                    oz/`m@  ",
"l!L-                    XdN/S$  ",
"oz/J&X                   OfB^aX ",
"  w~R7X   XX.             +M(m@ ",
"  :UEc4Xodgh6X             >V(p#",
"   rHchhxf*X.                n'C",
"   qUa7h<X                   i^Z",
"    up&9gf*XX.               .nC",
"    yYu@Xdgghl2X              sT",
"    tYi. XXXX4x1.             XS",
"    .au.    >gxx;.            .A",
"     pYyX    4xxg*            .n",
"     i^Te     6xxgO        .   .",
"     .s^Y0    .9xg*             ",
"      XD_L3    Xdxd#            ",
"      .A^`K-X  .828o            ",
"       @F)))m@ .81fdo           ",
"        &J)`A@ X81fx8.          ",
"         .0LA$ X8* <5o..        ",
"            yYi@8* >fhh>        ",
"            yT)t#8O .2h,.       ",
"            y^)^qO5% .5h;       ",
"            y^_^r%fx8oX9;       ",
"            yT`_U3 >gxxx;       "
};
