/* XPM */
static char *result[] = {
/* columns rows colors chars-per-pixel */
"32 32 93 2 ",
"   c #1C858B",
".  c #1C898F",
"X  c #1C8B91",
"o  c #1D9196",
"O  c #1F9599",
"+  c #218C91",
"@  c #209295",
"#  c #2A9295",
"$  c #21969A",
"%  c #2C9599",
"&  c #219A9E",
"*  c #31969A",
"=  c #399B9F",
"-  c #249EA2",
";  c #26A2A5",
":  c #29A6A9",
">  c #2BACAE",
",  c #3EA0A2",
"<  c #30ACAD",
"1  c #2DAEB0",
"2  c #2EB2B3",
"3  c #32B3B4",
"4  c #37B7B8",
"5  c #33BCBD",
"6  c #39BABB",
"7  c #44A4A6",
"8  c #4DABAC",
"9  c #44B4B5",
"0  c #4EB3B2",
"q  c #5CB3B2",
"w  c #61B6B4",
"e  c #67B9B7",
"r  c #66B9B8",
"t  c #6FBFBD",
"y  c #73C0BC",
"u  c #78C2BF",
"i  c #37C3C2",
"p  c #3AC6C6",
"a  c #3AC8C7",
"s  c #3DCDCC",
"d  c #3FD1CF",
"f  c #42C1C2",
"g  c #4CC6C4",
"h  c #41C9C7",
"j  c #52C9C7",
"k  c #53CBCA",
"l  c #5CCFCC",
"z  c #40D1CE",
"x  c #42D4D2",
"c  c #51D5D3",
"v  c #5DDCDA",
"b  c #75C2C1",
"n  c #7FC7C2",
"m  c #74C8C5",
"M  c #7DC9C5",
"N  c #60D3D0",
"B  c #6BD6D3",
"V  c #62DBD7",
"C  c #66DEDB",
"Z  c #6DDCD8",
"A  c #71D6D2",
"S  c #72DFD9",
"D  c #7ADEDA",
"F  c #82CAC6",
"G  c #87CECA",
"H  c #8CCFC9",
"J  c #8AD3CF",
"K  c #91D4CF",
"L  c #99D5CD",
"P  c #98D6D0",
"I  c #97D8D3",
"U  c #A4DDD5",
"Y  c #A2E1DD",
"T  c #AEE2D9",
"R  c #B4E6DD",
"E  c #B8E8DF",
"W  c #92E6E2",
"Q  c #9EEAE2",
"!  c #A4ECE6",
"~  c #A8EEE6",
"^  c #B2EBE2",
"/  c #BEECE3",
"(  c #B2F0E7",
")  c #B3F2EB",
"_  c #BCF3EB",
"`  c #C2EEE3",
"'  c #C6F0E5",
"]  c #C8F2E6",
"[  c #C3F4EC",
"{  c #CFF7ED",
"}  c #D0F8EE",
"|  c #CCF9F0",
" . c #D2FAF1",
/* pixels */
"! | ) j o                           O a 5 X   .     - p S ^ / w ",
"@ k ) | G #                           - a z 1 X . . X - x 4 n ^ ",
"  O l _  .b +                           . 1 s s s s s x x x < G ",
"    & B [ F +                               X X . . . - s x x < ",
"      - D [ r X                                         : s x x ",
"      - B _ t +                                           1 x x ",
"      - 1 m _ w .                                         . 4 d ",
"      - 1 3 W ` 8                                         . 2 : ",
"      - 1 X b / 0 X                                         1 - ",
"      - 1 X + J Z x i @                                     2 : ",
"        : > + F ^ V p O                             .       2 - ",
"          > : % G 0 p 5 X                                 . 1 : ",
"          > s x Q U 9 2 X                                   . 3 ",
"            X 6 ! ) v i X                                   . . ",
"              X g Q v i X                                       ",
"              . f ( ) g X                                       ",
"                % Y  .I *                                       ",
"                X k ) | F #                                     ",
"                  O l [ { t +                                   ",
"                  o l ` { ` e + + X                             ",
"                    & B _ ] ` / / U , X                         ",
"                      - A ^ ` ` ` ` ` H *                       ",
"                        + + t ^ / ` ] ] F #                     ",
"                            + X * P ` ` ` t +                   ",
"                                  = T ' ] u +                   ",
"                                  * I ' ] ` e .                 ",
"                        : 1 X       7 U ` ' ` q .               ",
"                        ; s > .       . q R ` E 8               ",
"                          1 s s - .     . X u ^ T 7 .           ",
"- . .                       X 5 x a $       + % K ' L = .       ",
"V h O                         X 5 x i $ . > s d c ~ ' / n % .   ",
"' ) j o                         O p x x x x > X @ a Z ^ ` / w . "
};
