/* XPM */
static char *result[] = {
/* columns rows colors chars-per-pixel */
"32 32 76 1 ",
"  c #1C858B",
". c #1C898E",
"X c #1D8B91",
"o c #1D9296",
"O c #1F9398",
"+ c #228D92",
"@ c #259194",
"# c #2A9296",
"$ c #21969A",
"% c #2D9599",
"& c #219A9D",
"* c #30979A",
"= c #32999B",
"- c #249EA2",
"; c #3B9EA1",
": c #26A2A4",
"> c #29A7A9",
", c #2BACAE",
"< c #3EA0A2",
"1 c #31AAAD",
"2 c #2DAFB1",
"3 c #2EB2B3",
"4 c #31B4B5",
"5 c #31B7B9",
"6 c #33BBBB",
"7 c #45A4A6",
"8 c #4FAAAA",
"9 c #51ACAC",
"0 c #46BEBD",
"q c #57B1B0",
"w c #5AB2B2",
"e c #61B7B5",
"r c #66B9B7",
"t c #60BABA",
"y c #6ABBB9",
"u c #71BFBC",
"i c #73C1BE",
"p c #36BFC0",
"a c #39BFC0",
"s c #37C2C2",
"d c #3AC4C4",
"f c #3AC8C7",
"g c #3DCCCB",
"h c #3FD0CF",
"j c #40D1CE",
"k c #41D4D2",
"l c #4FD3D2",
"z c #49D8D5",
"x c #77C6C3",
"c c #7BC4C1",
"v c #77DEDA",
"b c #69E0DC",
"n c #84CAC6",
"m c #82CAC8",
"M c #8ACEC9",
"N c #8DD0CA",
"B c #92D2CC",
"V c #99D6CE",
"C c #9CD9D1",
"Z c #A3DCD4",
"A c #83E0DB",
"S c #ACE1DA",
"D c #B3E5DC",
"F c #B8E8DF",
"G c #9AEBE5",
"H c #A2EDE6",
"J c #BDEBE2",
"K c #B3F3EB",
"L c #C2EEE3",
"P c #C6F0E5",
"I c #C8F2E7",
"U c #C5F3EA",
"Y c #CCF7ED",
"T c #D1F9EF",
"R c #CEFAF0",
"E c #D2FAF1",
/* pixels */
"Jy.                 &3,g3     9S",
"LDw                 &3,f3     .+",
"iJS9.               &4o.        ",
".%mFV<.             &3$         ",
". *NLFn%+            %,X .      ",
",  .7ZJFu             :33g-     ",
",.  ..wDDy            :gkg>     ",
",     .@yLS8           .X3g-    ",
",.      +iPZ<            O3:    ",
"2        #mS7          X,kg-    ",
",         *BV=          ,kh-    ",
"3.        #NZ;          ,kh:    ",
"h>         =VB*         2zg:    ",
"h,          7ZM+        ,hg:    ",
"kg>         <ZM+        X5zf@   ",
"3g>          8i%        X2kfO   ",
"X5g-         7ZcX        X6kso  ",
".2g:          qxX         osf$  ",
" X5f&         9Dy          Osso ",
"  opdO.       9Di          osao ",
"   Oaj5X      XwiX          $f6X",
"   ..-gk2.   XXeDr.          :f6",
"     .-hh2X$shhvJFw.          :g",
"      .>hjkjs$X1AUS8    .X.    .",
"        X4g>X   @mTS7  .rSw.    ",
"         X6js$ X@xYTZ<.+iPPC7   ",
"           $shggglGEYFJJFPPPC=  ",
"            ..XX.o0HTYILniPPPN# ",
"                  odbKIJi#MIPV= ",
"                   $dzdtr#cPPLM#",
"X                   &gk4+ =NLPLn",
"r                   &4,3   .7ZPL"
};
