/* XPM */
static char *result[] = {
/* columns rows colors chars-per-pixel */
"32 32 237 2 ",
"   c #1C858B",
".  c #1C868C",
"X  c #43A3A5",
"o  c #C0ECE2",
"O  c #80C7C3",
"+  c #1C898F",
"@  c #31B6B7",
"#  c #41D5D3",
"$  c #3CCCCB",
"%  c #1F9399",
"&  c #1C8A90",
"*  c #26A3A5",
"=  c #1C8289",
"-  c #C2EDE2",
";  c #BEECE3",
":  c #6ABAB9",
">  c #1C868D",
",  c #1D9196",
"<  c #39C4C4",
"1  c #41D3D0",
"2  c #40D2D0",
"3  c #30B5B7",
"4  c #40A2A3",
"5  c #BCEBE2",
"6  c #C7F0E4",
"7  c #BBEAE1",
"8  c #5CB2B2",
"9  c #1C838A",
"0  c #1E9397",
"q  c #3ECECD",
"w  c #42D7D4",
"e  c #42D6D4",
"r  c #1C878D",
"t  c #54AFAF",
"y  c #BDEBE3",
"u  c #C1EDE3",
"i  c #B7E7DE",
"p  c #4AA9A9",
"a  c #1C8F94",
"s  c #3CCACA",
"d  c #43D7D5",
"f  c #238E92",
"g  c #72C0BD",
"h  c #C2EDE3",
"j  c #AEE3DB",
"k  c #3FA2A3",
"l  c #279C9F",
"z  c #41D3D2",
"x  c #1C8A8E",
"c  c #299296",
"v  c #91D1CA",
"b  c #BFEBE1",
"n  c #A7E7DD",
"m  c #51D9D6",
"M  c #47D6D3",
"N  c #31B7B9",
"B  c #1C858C",
"V  c #2B9397",
"C  c #9DD9D1",
"Z  c #C1F1E8",
"A  c #9FEEE8",
"S  c #49D6D5",
"D  c #2EADAE",
"F  c #1C828A",
"G  c #208C91",
"H  c #3DA0A2",
"J  c #B6E7DF",
"K  c #C8F5ED",
"L  c #C6F5EB",
"P  c #71C2C0",
"I  c #218C92",
"U  c #59B2B2",
"Y  c #CAF6EC",
"T  c #C3F3EB",
"R  c #60B6B5",
"E  c #1C878C",
"W  c #35ACAE",
"Q  c #8BE6DF",
"!  c #C6F2E7",
"~  c #1C888E",
"^  c #38B6B7",
"/  c #9AEDE7",
"(  c #CAF3E7",
")  c #AADFD7",
"_  c #2A9296",
"`  c #2CAEB0",
"'  c #4FD9D6",
"]  c #9FE8E0",
"[  c #B2E4DD",
"{  c #33989B",
"}  c #31B9BA",
"|  c #52D9D4",
" . c #ADEBE3",
".. c #A2DBD4",
"X. c #218C91",
"o. c #1C8990",
"O. c #1C8B92",
"+. c #42C2C2",
"@. c #AFF1E9",
"#. c #AAE0D9",
"$. c #299295",
"%. c #35C0C0",
"&. c #1C8A91",
"*. c #2EB0B2",
"=. c #3FD1CF",
"-. c #3DCDCB",
";. c #38C5C5",
":. c #1C8E93",
">. c #1D9195",
",. c #50CAC9",
"<. c #B8F0E8",
"1. c #9EDBD5",
"2. c #228F93",
"3. c #1C888F",
"4. c #41D2CF",
"5. c #40D1D0",
"6. c #28A7A8",
"7. c #209399",
"8. c #3BCAC9",
"9. c #34BDBE",
"0. c #41A1A3",
"q. c #9AE8E3",
"w. c #2FB4B6",
"e. c #259FA2",
"r. c #40D1CE",
"t. c #1C8C92",
"y. c #359A9D",
"u. c #B7E8E0",
"i. c #A2EEE8",
"p. c #2BADAF",
"a. c #1E9296",
"s. c #39C4C5",
"d. c #3FD0CF",
"f. c #208D92",
"g. c #27A2A6",
"h. c #49A9AA",
"j. c #98E5DB",
"k. c #44D4D3",
"l. c #41D2D1",
"z. c #3BC9C8",
"x. c #90D1CA",
"c. c #1C8A8F",
"v. c #34BEBE",
"b. c #B8E8DF",
"n. c #7AC9C6",
"m. c #29AEB0",
"M. c #96D4CE",
"N. c #239CA0",
"B. c #55B0B0",
"V. c #81C8C4",
"C. c #31B8B9",
"Z. c #99D6CE",
"A. c #229B9E",
"S. c #30B5B6",
"D. c #51ADAE",
"F. c #67B9B7",
"G. c #88CCC9",
"H. c #41D3D1",
"J. c #4FAAAB",
"K. c #1C8089",
"L. c #7AC4C1",
"P. c #219A9D",
"I. c #26A3A6",
"U. c #1D8A8F",
"Y. c #64B7B6",
"T. c #6ABBB9",
"R. c #1C848C",
"E. c #27A2A5",
"W. c #29A8AA",
"Q. c #61B8B7",
"!. c #59B1B1",
"~. c #C7F1E6",
"^. c #BBEBE1",
"/. c #5AB2B2",
"(. c #2BACAE",
"). c #229CA0",
"_. c #5EB4B3",
"`. c #C5EFE4",
"'. c #4FAAAA",
"]. c #C6F0E4",
"[. c #4CA8A9",
"{. c #1E8B90",
"}. c #218D92",
"|. c #1F8A8F",
" X c #2FB3B5",
".X c #26A2A5",
"XX c #73C1BE",
"oX c #B2E5DD",
"OX c #63B7B4",
"+X c #C6F0E5",
"@X c #BFECE2",
"#X c #92D3CC",
"$X c #1C898E",
"%X c #29A8A9",
"&X c #2FB2B3",
"*X c #31B7B8",
"=X c #21989C",
"-X c #1C848B",
";X c #218E92",
":X c #88CDC8",
">X c #AAE0D8",
",X c #34999C",
"<X c #1F8B90",
"1X c #72BFBB",
"2X c #C1ECE1",
"3X c #C2EEE3",
"4X c #9AD7D1",
"5X c #31B3B5",
"6X c #1C9094",
"7X c #7EC6C1",
"8X c #C7F1E5",
"9X c #C4F0E5",
"0X c #ABE1D9",
"qX c #99D5CD",
"wX c #2CAFB2",
"eX c #35BFBF",
"rX c #20949A",
"tX c #268F94",
"yX c #92D2CB",
"uX c #1C868B",
"iX c #3C9FA1",
"pX c #8CCEC9",
"aX c #28A5A8",
"sX c #39C3C3",
"dX c #3FCFCD",
"fX c #46A4A6",
"gX c #85CAC5",
"hX c #1F8D92",
"jX c #2AACAD",
"kX c #28A7AA",
"lX c #3ECFCE",
"zX c #35BFC0",
"xX c #329A9C",
"cX c #76C1BD",
"vX c #1C878E",
"bX c #249DA1",
"nX c #30B2B4",
/* pixels */
"              . X o O + @ # $ % & * @ =                         ",
"              . X - ; : > , < 1 2 2 3 =                         ",
"              . 4 5 6 7 8 9 0 q w e 3 =                         ",
"                r t y u i p a s d e 3 =                         ",
"                  . f g h j k l z e 3 =                         ",
"                      x c v b n m M N B                         ",
"                          V C b Z A S D F                       ",
"                          . G H J K L P 9                       ",
"                                I U Y T R x E                   ",
"                                  x W Q ! j H 9                 ",
"                                    ~ ^ / ( ) _ 9               ",
"                                    . ` ' ] [ {                 ",
"                                      & } |  ...X.              ",
"~     r & o.+ +                         O.+.@.#.$.              ",
"%.&.&.*.=.q -.;.:.                        >.,.<.1.2.3.          ",
"2 4.5.q 6.3.7.8.9.>                         x 0.T q.w.B     + o.",
"e.r.} t.~   B + ~                           9 y.u.i.2 p.r a.s.d.",
"f.g.5.q 6.~ o.+ ~                             . h.j.k.l.l.d.z.% ",
"x.c.&.*.=.q q q v.o.                          . 0.b.n.m.2 * &.. ",
"M.x   r & o.+ & N.} r                           r B.V.&.C.=.z.% ",
"Z.X.            A.2 S.B                         . D.b F.F a.s.d.",
"- G.x           A.z H.p.                        . J.y : K.  + o.",
"b o L..         P.l.d =.I.=                       U.Y.g 9       ",
"p 5 ; T.R.      > E.z # W.9                       E Q.b 8 9     ",
"x !.~.^./.9       r (.d q ).=                     E _.`.i p 9   ",
". '.u ].i [.{.}.|.. W. XS..XF                       |.XX].oXH 9 ",
"  c.OX`.+X@X5 7 #X$X%X&X*Xd.=X                      -X;X:X( >X,X",
"    <X1X2X3X+X`.4Xc.%X&X5X# 8.6X                    9 U.7X8X9X0X",
"      x _ v b y qXc.W.wX  a.eXrX+ ~                     tXyX~.`.",
"        uX|.I iXpX}.aX` F &.sXdX=.}                       V C b ",
"              . fXgXhXjXkX  + =XlXzX>                     . G xX",
"              . X 5 cXvX5XbX= . bX2 nX=                       . "
};
