/* XPM */
static char *result[] = {
/* columns rows colors chars-per-pixel */
"32 32 249 2 ",
"   c #1F8B90",
".  c #1C858B",
"X  c #1C868C",
"o  c #29A8A9",
"O  c #43D7D5",
"+  c #40D2D0",
"@  c #25A1A3",
"#  c #1C888E",
"$  c #21989B",
"%  c #40D1D0",
"&  c #41D2D1",
"*  c #29A8AA",
"=  c #1C828A",
"-  c #1C848C",
";  c #1C888D",
":  c #6DBDBB",
">  c #C7F1E6",
",  c #B9E8DE",
"<  c #40A0A2",
"1  c #1C838A",
"2  c #92D2CB",
"3  c #218C91",
"4  c #2EB0B2",
"5  c #41D3D1",
"6  c #3FCFCE",
"7  c #36C1C1",
"8  c #1C8A91",
"9  c #3ECECD",
"0  c #249DA1",
"q  c #1C888F",
"w  c #1C858C",
"e  c #1C848B",
"r  c #218C92",
"t  c #82CAC6",
"y  c #C6F0E4",
"u  c #AAE0D9",
"i  c #2D9397",
"p  c #C2EEE3",
"a  c #84CAC5",
"s  c #1C868D",
"d  c #1C8D93",
"f  c #36BFC0",
"g  c #3DCDCB",
"h  c #21989C",
"j  c #1C8D92",
"k  c #33BABB",
"l  c #3CCACA",
"z  c #1D9296",
"x  c #268F94",
"c  c #B2E5DD",
"v  c #359A9D",
"b  c #BDEBE3",
"n  c #8FD1CB",
"m  c #1C8A8E",
"M  c #1C8E93",
"N  c #38C4C3",
"B  c #3FD0CF",
"V  c #1C8990",
"C  c #1C898F",
"Z  c #1F9498",
"A  c #3BC9C8",
"S  c #39C7C7",
"D  c #2C9498",
"F  c #A4DDD6",
"G  c #ACE1D9",
"H  c #4EABAB",
"J  c #BDECE3",
"K  c #75C2C0",
"L  c #1C8189",
"P  c #21979A",
"I  c #3DCDCC",
"U  c #3ECFCE",
"Y  c #41D3D2",
"T  c #42D6D4",
"R  c #38C2C2",
"E  c #9DD9D3",
"W  c #B3E5DB",
"Q  c #46A8A8",
"!  c #BAEAE0",
"~  c #80C8C4",
"^  c #1E9296",
"/  c #39C5C4",
"(  c #41D5D4",
")  c #32BBBC",
"_  c #1C878D",
"`  c #329A9C",
"'  c #A8E0D8",
"]  c #39C1C0",
"[  c #56B1B1",
"{  c #6ABBB9",
"}  c #1E9397",
"|  c #3DCBCA",
" . c #41D5D3",
".. c #30B2B4",
"X. c #1C8289",
"o. c #1C878C",
"O. c #33989C",
"+. c #36C2C2",
"@. c #208E92",
"#. c #69BAB9",
"$. c #BEECE3",
"%. c #54AFAF",
"&. c #1C8089",
"*. c #3ECECC",
"=. c #31B7B9",
"-. c #1C868B",
";. c #2A9296",
":. c #35BBBA",
">. c #61B6B4",
",. c #59B2B2",
"<. c #2BACAE",
"1. c #38B8B7",
"2. c #71BDBA",
"3. c #62B7B5",
"4. c #1C838B",
"5. c #22999C",
"6. c #34BDBE",
"7. c #2AAAAC",
"8. c #2EB1B3",
"9. c #1C8A90",
"0. c #26A3A6",
"q. c #35BABA",
"w. c #71C0BC",
"e. c #B8EAE0",
"r. c #45A4A6",
"t. c #2AA8AA",
"y. c #28A5A8",
"u. c #24A0A3",
"i. c #4AD4D2",
"p. c #95E7E2",
"a. c #55AEAF",
"s. c #29A6A9",
"d. c #229CA0",
"f. c #33B2B4",
"g. c #9CECE7",
"h. c #B9E8E0",
"j. c #379B9E",
"k. c #229A9E",
"l. c #32BABA",
"z. c #1C8C92",
"x. c #30B7B8",
"c. c #26A2A5",
"v. c #36C0C0",
"b. c #1F8D92",
"n. c #88CFCB",
"m. c #C2F1EA",
"M. c #3C9EA2",
"N. c #21999D",
"B. c #31B9BA",
"V. c #31B6B7",
"C. c #3FD1CF",
"Z. c #40D1CE",
"A. c #30B5B5",
"S. c #2A9599",
"D. c #92D5D2",
"F. c #26A0A3",
"G. c #2DB2B3",
"H. c #39C5C6",
"J. c #27A2A6",
"K. c #49D3D2",
"L. c #A7EDE5",
"P. c #B0E3DB",
"I. c #31989A",
"U. c #1E8B90",
"Y. c #29A9AB",
"T. c #2CAEB0",
"R. c #3CCAC9",
"E. c #2BACAF",
"W. c #42D7D4",
"Q. c #4AD8D5",
"!. c #A3EDE6",
"~. c #C8F1E5",
"^. c #A2DBD3",
"/. c #50ABAC",
"(. c #85CBC7",
"). c #259FA2",
"_. c #42D4D3",
"`. c #52D9D6",
"'. c #A8E8E0",
"]. c #C4EEE3",
"[. c #BFEBE1",
"{. c #C2EDE3",
"}. c #7AC4C1",
"|. c #32B8B9",
" X c #31B3B5",
".X c #45D9D7",
"XX c #3CA9AA",
"oX c #C6F0E5",
"OX c #6ABAB9",
"+X c #1D8A8F",
"@X c #218D92",
"#X c #208C91",
"$X c #39C2C3",
"%X c #43D8D5",
"&X c #1C878E",
"*X c #2EAFB2",
"=X c #37A8AA",
"-X c #AAE0D8",
";X c #BCEBE2",
":X c #A9DFD8",
">X c #32999A",
",X c #35BCBD",
"<X c #33BBBC",
"1X c #40A6A8",
"2X c #8DCFCA",
"3X c #59B1B1",
"4X c #C1EDE3",
"5X c #C5EFE4",
"6X c #BDEBE0",
"7X c #95D3CD",
"8X c #1D9195",
"9X c #44D8D6",
"0X c #31B7B8",
"qX c #238E92",
"wX c #72C0BD",
"eX c #C0ECE2",
"rX c #C4F0E5",
"tX c #C2EDE2",
"yX c #88CCC9",
"uX c #1C8A8F",
"iX c #2F9599",
"pX c #A0DAD2",
"aX c #76C2C1",
"sX c #3CCCCA",
"dX c #339A9B",
"fX c #B2E6DE",
"gX c #2D9399",
"hX c #AAE0D7",
"jX c #1F9297",
"kX c #38C3C4",
"lX c #C7F0E4",
"zX c #BBEAE1",
"xX c #5CB2B2",
"cX c #21969B",
"vX c #B7E7DE",
"bX c #4AA9A9",
"nX c #AEE3DB",
"mX c #3F9FA2",
"MX c #299296",
"NX c #91D1CA",
"BX c #2B9297",
"VX c #2B9397",
"CX c #9DD9D1",
"ZX c #30B5B6",
"AX c #3DA0A2",
"SX c #B9E9E0",
"DX c #28A3A7",
"FX c #218E92",
"GX c #BBEBE1",
/* pixels */
"  . . . . . . . . X o O + @ # $ % & + & * = . . . - ; : > , < 1 ",
"2 3 . . . . . . . . # 4 5 + & 6 7 8 8 4 9 0 q w . . e r t y u i ",
"p a 1 . . . . . . . . s d f g h 8 . . s j k l z . . . . x 2 c v ",
"b n m . . . . . . . . . . M N B 7 8 V C V Z A S M . . . . D F G ",
"H J K L . . . . . . . . . . C P I 9 9 9 9 U Y T R V . . - x E W ",
"Q ! ~ X . . . . . . . . . . . X C V V V C ^ / O ( ) _ . . X ` ' ",
"] [ ! { - . . . . . . . . . . . . . . . . . } | O  ...X.. . o.O.",
"+.@.#.$.%.&.. . . . . . . . . . . . . . . . X P *.T =.w . . -.;.",
" .:.>.$.,.&.. . . . . . . . . . . . . . . . . X 0 5 % <.X.. . X ",
"+ % 1.2.3.4.. . . . . . . . . . . . . . . . . . 5.6.7.8.. . . . ",
"9.0.q.w.e.r.L . . . . . . . . . . . . . . . . . 5.k t.5 y.= . . ",
"w u.% i.p.a.4.. . . . . . . . . . . . . . . . . 5.k s.5 9 d.X.. ",
"# X 8 f.g.h.j.= . . . . . . . . . . . . . . . . k.l.X z.x.c.# C ",
"v.8 s b.n.m.M.= . . . . . . . . . . . . . . . . N.B.s _ V.C.% l ",
"Z.U A.# S.D.r.1 . . . . . . . . . . . . . . . . s F.G.X _ ^ H.U ",
"9.J.+ C.K.L.P.I._ U.. . . . . . . . . . . . . . . _ Y.T._ s } R.",
". q E.W.Q.!.~.^./.(.m . . . . . . . . . . . . . . X o & I ).C P ",
". X * _.O `.'.].[.{.}.X . . . . . . . . . . . . . . s z.|.5 + + ",
". . q  X.X% XXc > oX$.OX+X@X#XX . . . . . . . . . . . . z.$X%XO ",
". . &X*XW.B =X-X].[.oX{.;X;X:X>XU.. . . . . . . . . . . C ,XW.O ",
". . . 9.<X%X| 1X2X3Xb 4XoXoX5X6X7X3 . . . . . . . . . . . 8XA 9X",
". . . # 0X9XI Z U.; qXwXeXJ rXoXtXyXm . . . . . . . . . . z.N W.",
". . . . z.f O / 9.. . uX@XiXpX> oX{.aXL . . . . . . . . . . } sX",
". . . . . M H.l M . . . . X dXfX> rX~ X . . . . . . . . . . 8XR.",
". . . . . . } I 7 s . . . . gXhXoXoX$.OX- . . . . . . . . . X jX",
". . . . . . 8Xl kXs . . . . o.M.W [.lXzXxX1 . . . . . . . . . w ",
". . . . . . X cXk s . . . . . . 3 %.b 4XvXbX1 . . . . . . . . . ",
". . . . . . . X # . . . . . . . . X qXwX{.nXmX+X-.. . . . . . . ",
". . . . . . . . . . . . . . . . . . . m MXNX[.pXBXU.. . . . . . ",
". . . . . . . . X C # . . . . . . . . . . VXCX$.zXyX#Xm . . . . ",
". . . . . . . . $ I ZX# s . . . . . . . . X #XAXfX6XSXOX- . . . ",
". . . . . . . . s DXT B 0.X.. . . . . . . . . o.FX3X> GX%.&.. . "
};
