/* XPM */
static char *result[] = {
/* columns rows colors chars-per-pixel */
"32 32 94 2 ",
"   c #1C858B",
".  c #1C898E",
"X  c #1C8B91",
"o  c #1D9296",
"O  c #1F9398",
"+  c #228D91",
"@  c #239295",
"#  c #2A9295",
"$  c #209599",
"%  c #2D9598",
"&  c #229A9D",
"*  c #31979A",
"=  c #359A9D",
"-  c #399C9E",
";  c #249DA0",
":  c #3A9EA0",
">  c #26A1A4",
",  c #26A7A9",
"<  c #28A7AA",
"1  c #2AAAAC",
"2  c #3EA0A2",
"3  c #30AEAF",
"4  c #2DAFB1",
"5  c #2FB3B4",
"6  c #31B5B6",
"7  c #31B8B7",
"8  c #31B7B9",
"9  c #33BBBC",
"0  c #44A4A6",
"q  c #4CA9A9",
"w  c #55AFAE",
"e  c #46BDBC",
"r  c #55B0B1",
"t  c #5CB3B2",
"y  c #5FBBBA",
"u  c #62B6B5",
"i  c #66B9B7",
"p  c #64BAB8",
"a  c #6CBCBA",
"s  c #71BEBB",
"d  c #74C1BE",
"f  c #78C2BF",
"g  c #37C2C2",
"h  c #39C4C4",
"j  c #3DCCCB",
"k  c #3FD1CF",
"l  c #4EC7C6",
"z  c #41D2CF",
"x  c #5BD1CE",
"c  c #42D4D2",
"v  c #45D8D6",
"b  c #5FDCD8",
"n  c #7CC6C2",
"m  c #7EC8C6",
"M  c #62D2CF",
"N  c #69D6D2",
"B  c #64D9D6",
"V  c #68DFDB",
"C  c #7EDDDA",
"Z  c #78E0DB",
"A  c #82C9C4",
"S  c #86CCC8",
"D  c #8CCFCA",
"F  c #8FD0CA",
"G  c #95D4CF",
"H  c #97D6D0",
"J  c #98D6D0",
"K  c #9FDBD6",
"L  c #A3DCD4",
"P  c #A9DFD6",
"I  c #A3DED9",
"U  c #85E4DE",
"Y  c #8BE2DA",
"T  c #ABE1D7",
"R  c #A2E0DC",
"E  c #ACE2DA",
"W  c #B2E6DE",
"Q  c #B3E9DF",
"!  c #87E8E3",
"~  c #8BEAE3",
"^  c #A1EBE4",
"/  c #ADEBE3",
"(  c #B4EAE2",
")  c #BCECE3",
"_  c #BCEFE8",
"`  c #ADF1E9",
"'  c #B5F2E9",
"]  c #BAF3EB",
"[  c #C2EEE3",
"{  c #C6F0E5",
"}  c #C8F2E6",
"|  c #C4F4EB",
" . c #CAF6ED",
".. c #CDF9EF",
/* pixels */
"[ | ~ c ;                                   2 T Q n @ 9 v j +   ",
"t )  ._ r                                   . @ u Q Q Z v j O   ",
". # n ..( 0 .                                   . i [ [ ' V g X ",
"    X e ^ [ J %                                     % A } ..R * ",
"      o l ` | D +                                     . : R ..L ",
"      X 9 B / G +                                         & M ] ",
"        O g V ( A .                                         ; B ",
"          & x ] D X                                         $ z ",
"            > N ) m X .                                     . & ",
"              o u | C ,       X .                               ",
"                w _ ~ j > X & j 6                               ",
"                . p U k k k k 9 X .                             ",
"                . u W u 9 j ; X > 5                             ",
"                  @ a u O g k 9 1 j 1 .                         ",
"                  + d W q   & j 5 o 5 j >                       ",
"                  . s W q     . . . o 9 j &                     ",
"                    # f w       > j k c v h O                   ",
"                    + A T 0     . . o 7 v c h o                 ",
"                    + n [ L -         o 9 v c 9 .               ",
"                      % D } J %         o h c g X               ",
"                        = L { F +         & j z 9               ",
"                        % H { ) A .       $ 9 < 8 .             ",
"X                         : T { S .       $ 9 < j 5 .           ",
"j z 1                       0 E A + .     o 7 < j k 1           ",
"< z 4                       . + t W a .   O 8 o X 1 4 X .       ",
"X 1 j <                       . w [ [ E q O 8 O   1 k k h &     ",
". o 4 <                         w ) { { T 0 O 8 X   o 7 j ;     ",
"z c j <                         . i [ { [ K * ; 8 X   o g h X   ",
"v c z <                           + f } } P : ; j j 4 . O 8 O   ",
"c c z <                           . s { { [ J % X 1 k k k j O   ",
"3 c z <                             # A [ [ [ D + X 6 v k j O   ",
"Y v z ;                                 - L } [ m X 5 v v h o   "
};
