/* XPM */
static char *result[] = {
/* columns rows colors chars-per-pixel */
"32 32 80 1 ",
"  c #1C858B",
". c #1C898F",
"X c #1C8B91",
"o c #1E9296",
"O c #1F9399",
"+ c #218B8F",
"@ c #218D92",
"# c #259194",
"$ c #2A9395",
"% c #21979B",
"& c #2E9499",
"* c #21999D",
"= c #33999B",
"- c #239EA1",
"; c #3F9FA2",
": c #26A2A5",
"> c #28A3A7",
", c #29A6A9",
"< c #2AAAAC",
"1 c #3DA0A2",
"2 c #37A8A9",
"3 c #2DAEB0",
"4 c #2FB2B3",
"5 c #31B5B6",
"6 c #31B7B8",
"7 c #33BBBB",
"8 c #45A5A6",
"9 c #4CAAAA",
"0 c #54AFAF",
"q c #5CB3B2",
"w c #63B7B4",
"e c #65B9B6",
"r c #69BAB7",
"t c #6BBBBA",
"y c #72BFBB",
"u c #37C0BF",
"i c #73C1BC",
"p c #36BFC0",
"a c #36C1C1",
"s c #39C4C4",
"d c #3DCDCB",
"f c #3FD0CF",
"g c #40C7C6",
"h c #40D1CE",
"j c #55D0CE",
"k c #41D4D2",
"l c #43D8D5",
"z c #4BD9D6",
"x c #5CD3D0",
"c c #5CDDDB",
"v c #6ADBD6",
"b c #61DEDB",
"n c #70DEDA",
"m c #76E1DC",
"M c #80C7C3",
"N c #82C9C3",
"B c #89CCC7",
"V c #86CCC8",
"C c #8FD1CB",
"Z c #92D3CC",
"A c #96D7D3",
"S c #96D8D3",
"D c #9ED9D2",
"F c #A3DDD5",
"G c #A9DFD6",
"H c #83E3DC",
"J c #A7E2DC",
"K c #ABE2DA",
"L c #B2E5DC",
"P c #B6E8DE",
"I c #BAE9DF",
"U c #90E5E1",
"Y c #BCEBE2",
"T c #BDF3EB",
"R c #C2EEE3",
"E c #C6F0E5",
"W c #CAF3E7",
"Q c #C2F3EA",
"! c #CDF6EC",
"~ c #CEFAF0",
/* pixels */
"       @J~D$.                  Z",
"        OxTQi.                 .",
"         OvQEq                  ",
"         OdmQr.                 ",
"          -fHR9                 ",
"           :HQq                 ",
"            <UQ9.               ",
"            .XSTj%              ",
"              VQcdoX            ",
"              +Scfff3X..        ",
"              .ZK2f64df-        ",
"O              $Z=-d3.6d*.      ",
"dO             @JD#..  Xuso     ",
"lso            +DF#  ...OduX    ",
"kl7X            =C$ <dfffll6.   ",
"dksX            $LZ# ...Odll4.  ",
"odk5.           $GWN@    %gll,  ",
"o7<5X           +=LWt+    -kl3. ",
"o7>k4             9Ry      ,hh- ",
"o7:dk<            8Iy+     -3p-.",
"o7X 3<X.           qr+     ,35h-",
"%7X ,dkdO           ++++   ,35hk",
"=*6X..7f*           wIYL;X ,3.Xp",
"G&-5X..ado          rREEYF&-3. p",
"L=-hh<Xoao          eYYREEZ@3>X ",
"EF& <kkhdo          .@@AREEMX5-X",
"RWZ@ 5kkhX             $GRWB+5hh",
"GYEN@5kkdo             @FREEi@Xp",
"X;KRi#ukhX              =GYQEwX ",
"  .qPYnzh%               @8LRR0 ",
"    tPQTbgX                .tYY8",
"    .+Z!~J@                 .@ZY"
};
