/* XPM */
static char *result[] = {
/* columns rows colors chars-per-pixel */
"32 32 81 1 ",
"  c #1C858B",
". c #1C898E",
"X c #1C8B91",
"o c #1D9195",
"O c #218C91",
"+ c #259195",
"@ c #2A9296",
"# c #20969A",
"$ c #2D9599",
"% c #249A9E",
"& c #349A9C",
"* c #249EA2",
"= c #3D9DA0",
"- c #26A2A5",
"; c #29A3A6",
": c #2AABAD",
"> c #3EA0A2",
", c #2DAFB1",
"< c #2EB0B2",
"1 c #31B4B5",
"2 c #3DB3B4",
"3 c #31B7B8",
"4 c #34BBBC",
"5 c #3EBAB9",
"6 c #44A4A5",
"7 c #49A7A7",
"8 c #49A7A9",
"9 c #4EA9AA",
"0 c #52ADAC",
"q c #42BCBC",
"w c #55B0B0",
"e c #5BB2B2",
"r c #61B5B3",
"t c #67B9B7",
"y c #6CBCBA",
"u c #71BFBA",
"i c #73C1BE",
"p c #38BFC0",
"a c #37C1C1",
"s c #39C4C5",
"d c #3DCDCC",
"f c #3FD1CE",
"g c #4BC2C2",
"h c #43CFCC",
"j c #41D2CF",
"k c #41D3D1",
"l c #49D3D0",
"z c #44D8D6",
"x c #48D8D6",
"c c #44D9D8",
"v c #5EDBD7",
"b c #5ADBD9",
"n c #7BC5C1",
"m c #61DEDB",
"M c #69DDD9",
"N c #74D9D4",
"B c #83C9C5",
"V c #8ECFC9",
"C c #8BD3CD",
"Z c #93D3CC",
"A c #83D5D0",
"S c #9BD8D0",
"D c #A3DCD4",
"F c #80E1DB",
"G c #88E5DF",
"H c #97E5DD",
"J c #AAE0D6",
"K c #ACE3DB",
"L c #B3E6DE",
"P c #B6E8DF",
"I c #B9E9DF",
"U c #93E7E1",
"Y c #9EEAE2",
"T c #ACEDE4",
"R c #BDEBE2",
"E c #BAF1EA",
"W c #C2EEE3",
"Q c #C6F0E5",
"! c #CAF2E6",
"~ c #C5F3EA",
"^ c #CBF9F1",
/* pixels */
"  &DZ8,X XasoX           @VRRW!W",
"  &SV$::X os4o            O.0J!!",
"   6i&:dd-X-1o.             .eIQ",
"    0y#X4fkf4o               0LQ",
"    9LnOX4zcpX               .tP",
"    8DWy+4fcpX                .O",
"    .eKPr$azpo                  ",
"     .OuITMzao                  ",
"       OnIQTv4X                 ",
"        .&Z~^C@.                ",
"         ..8T^n+                ",
"            ;NERr.              ",
"             :A~P0              ",
"             -hGPe              ",
"              :lUK6             ",
"..            .1HP9             ",
"fs*.           X5YK>.           ",
"o3s%            .&HTgo  .X...   ",
"..os3X           @ZTb3oX1ffdpo  ",
"..X-1o       .   .=Abhkhd*.*p3o.",
"dddfpo            &SVqd<oX  .*d<",
"...*<X             7u&:dd*XX.X<f",
"    X.             >DB@.1fddfdfc",
"    -,X            =DB@  XX.X.,f",
"    *d<.            0u@       X,",
"    *d1X            9KnO        ",
"    *dk:            9DWtX       ",
"OOX *<<,X            rTRrX      ",
"RRS6;<1h:            .yRRw      ",
"QQQWUq,dk*            rRWK8OO.  ",
"RRW!TqXX1*X.          OuRWWRRn$.",
"X=ZQYqX.3hkpO          OBWQQQWRy"
};
