/* XPM */
static char *result[] = {
/* columns rows colors chars-per-pixel */
"32 32 65 1 ",
"  c #1C858B",
". c #1C898E",
"X c #1C8A91",
"o c #1E9296",
"O c #218C91",
"+ c #2B9396",
"@ c #21969A",
"# c #219A9D",
"$ c #30979A",
"% c #34999C",
"& c #249DA1",
"* c #3D9FA1",
"= c #26A2A4",
"- c #29A3A6",
"; c #28A5A8",
": c #2AAAAC",
"> c #3EA1A2",
", c #2DAEB1",
"< c #2EB1B2",
"1 c #31B3B5",
"2 c #3BB2B3",
"3 c #33BABB",
"4 c #44A4A5",
"5 c #49A7A7",
"6 c #4DAAAA",
"7 c #53ADAD",
"8 c #58B0AF",
"9 c #40B5B6",
"0 c #55B0B0",
"q c #5CB3B2",
"w c #61B6B4",
"e c #69BAB9",
"r c #71BFBD",
"t c #73C1BE",
"y c #37C2C2",
"u c #39C5C4",
"i c #3AC8C7",
"p c #3DCDCC",
"a c #3FD0CF",
"s c #41D2CF",
"d c #42D4D2",
"f c #44D8D6",
"g c #7BC5C1",
"h c #6FDBD5",
"j c #7BDDD9",
"k c #82C9C5",
"l c #88CBC6",
"z c #8BCEC9",
"x c #8DD0CA",
"c c #94D3CD",
"v c #99D5CD",
"b c #9CD9D3",
"n c #A3DCD4",
"m c #A9DFD6",
"M c #82E3DB",
"N c #89E3DE",
"B c #ACE2DA",
"V c #B3E6DD",
"C c #B7E8DE",
"Z c #B5EAE1",
"A c #BDEBE1",
"S c #C2EEE3",
"D c #C6F0E5",
"F c #C8F2E6",
"G c #C2F3EB",
/* pixels */
"           %vDx9d:              ",
"            .5BAN1              ",
"              0CDj;             ",
"              .wVMs= .          ",
"               XtZhpy@.         ",
"X.             .eVw#yd3X        ",
"ai;             OtB6#id1.       ",
"X<u=.            +ln>#pa<XX..   ",
"..o3yo.          Okm> .:paaay#. ",
"X..#uyo           %t5   ::Xoy3o.",
"pppdaf3X          +zv*  X.  .&u3",
"XX.@yff1X          *t*  ::...X;s",
"    #ifd,          %bc+ :pppppdd",
"    .&id<.         %vc+ .XXXX.=p",
"      -da:          5g$ .     .-",
"      =1<:          >nl+        ",
"      &1,p-.        *nSgO       ",
"      -1,ap&         6BSrO      ",
"      ;1Xo,-...       8ACe      ",
"OX    &,XX3aa3X       6CDVqOOO  ",
"ZeX.   &,. ou3o        wASSAAx%O",
"SSm6   .::X.&u3X        eASDDSAk",
"SSFn4   ,ai&X-1X         +kASSDS",
"tSSFx*   o3daa3X          OO*nDD",
"OgFFn*    ouff3X             6VF",
"XgSSDc+   X3ff3X             4mF",
" +kASSl+   @uf3X              8V",
" ..*vSSgO  ouf3X               O",
"   .X6mArO  &pd<                ",
"     .OwABq.@uf3.               ",
"       XeAAn4&pd,.              ",
"       .X$lFSx2p,               "
};
