/* XPM */
static char *result[] = {
/* columns rows colors chars-per-pixel */
"32 32 237 2 ",
"   c #B0E3DB",
".  c #389B9D",
"X  c #1F8B90",
"o  c #1C868B",
"O  c #1C858B",
"+  c #1C868D",
"@  c #38C2C2",
"#  c #41D3D1",
"$  c #39C7C7",
"%  c #1C8C92",
"&  c #1C878D",
"*  c #8FD0CA",
"=  c #A9DFD6",
"-  c #BFECE2",
";  c #91D1CA",
":  c #2A9296",
">  c #1C8A8E",
",  c #35BCBD",
"<  c #26A2A7",
"1  c #35BFBF",
"2  c #1D9196",
"3  c #1F8A8F",
"4  c #329A9C",
"5  c #A7DFD7",
"6  c #BCEBE2",
"7  c #C0ECE2",
"8  c #72C0BB",
"9  c #238E92",
"0  c #1C868C",
"q  c #34BEBE",
"w  c #249CA1",
"e  c #3CCCCA",
"r  c #36BFC0",
"t  c #1D8A8F",
"y  c #4BAAAA",
"u  c #B3E5DB",
"i  c #BDEBE0",
"p  c #54AFAF",
"a  c #249EA2",
"s  c #3BC9C8",
"d  c #41D5D3",
"f  c #31B5B7",
"g  c #1C888E",
"h  c #1C898E",
"j  c #6ABBBA",
"k  c #B9E9E0",
"l  c #48A6A8",
"z  c #218B91",
"x  c #1F9599",
"c  c #1C888F",
"v  c #26A2A5",
"b  c #31B7B8",
"n  c #1C8A91",
"m  c #208C91",
"M  c #88CDC8",
"N  c #AAE0D7",
"B  c #34999C",
"V  c #33BABB",
"C  c #21969B",
"Z  c #1C838A",
"A  c #239C9F",
"S  c #3DCDCB",
"D  c #2CADB0",
"F  c #1C878E",
"G  c #218C91",
"H  c #96D5CF",
"J  c #C3EFE3",
"K  c #9EDAD3",
"L  c #259093",
"P  c #1C848C",
"I  c #1C8E93",
"U  c #32BABA",
"Y  c #1E9298",
"T  c #1C898F",
"R  c #289194",
"E  c #A2DCD4",
"W  c #A4DDD6",
"Q  c #2E9498",
"!  c #1E9397",
"~  c #1E9296",
"^  c #33989B",
"/  c #B2E5DD",
"(  c #90D1CA",
")  c #218D92",
"_  c #1C9094",
"`  c #3AC8C7",
"'  c #3FD1CF",
"]  c #31B8B9",
"[  c #ACE2DA",
"{  c #97D5CF",
"}  c #289294",
"|  c #1C858C",
" . c #259FA2",
".. c #29A8AA",
"X. c #3DA0A2",
"o. c #B2E6DE",
"O. c #82C9C3",
"+. c #1C848B",
"@. c #42D6D4",
"#. c #2AAAAC",
"$. c #1C828A",
"%. c #4EABAB",
"&. c #BDECE3",
"*. c #70BFBC",
"=. c #1C888D",
"-. c #1C8289",
";. c #25A2A4",
":. c #41D3D0",
">. c #1C8189",
",. c #45A5A6",
"<. c #BBEBE1",
"1. c #73C1BC",
"2. c #2EB0B2",
"3. c #29A7AA",
"4. c #1C838B",
"5. c #62B7B5",
"6. c #72C0BD",
"7. c #2CAEB0",
"8. c #1C8089",
"9. c #55AFAE",
"0. c #BAEAE0",
"q. c #5FB5B4",
"w. c #1C878C",
"e. c #64B7B6",
"r. c #2AABAD",
"t. c #6ABBB9",
"y. c #BDEBE3",
"u. c #4FAAAB",
"i. c #2BADAE",
"p. c #40D2D0",
"a. c #26A0A3",
"s. c #1C858D",
"d. c #65B8B7",
"f. c #BFEBE1",
"g. c #52ADAD",
"h. c #28A4A9",
"j. c #81C8C4",
"k. c #56B0AF",
"l. c #21999D",
"z. c #7CC6C3",
"x. c #48A6A6",
"c. c #30B5B5",
"v. c #75C2C0",
"b. c #B5E7DD",
"n. c #3C9FA1",
"m. c #20949A",
"M. c #88CCC9",
"N. c #C3EFE4",
"B. c #3CC0BF",
"V. c #48D3D1",
"C. c #23989D",
"Z. c #3BCAC9",
"A. c #1F9498",
"S. c #9BD8D0",
"D. c #C6F0E5",
"F. c #A0DAD2",
"G. c #2D9397",
"H. c #65B9B6",
"J. c #BAE9DF",
"K. c #C0EFE5",
"L. c #BFF4EC",
"P. c #5CD3D0",
"I. c #259499",
"U. c #3CCAC9",
"Y. c #36C0C1",
"T. c #1C8990",
"R. c #92D3CC",
"E. c #C2EEE3",
"W. c #C7F1E6",
"Q. c #92D2CB",
"!. c #248F92",
"~. c #6FBEBB",
"^. c #C6F0E4",
"/. c #CBF7ED",
"(. c #A8E1DB",
"). c #2E969A",
"_. c #3CCACA",
"`. c #43D7D5",
"'. c #32B8BA",
"]. c #3ECFCE",
"[. c #3ECECD",
"{. c #3FD0CD",
"}. c #A1DBD3",
"|. c #C8F3E9",
" X c #D0F7ED",
".X c #A6ECE6",
"XX c #3EBBBA",
"oX c #21989C",
"OX c #3CCCCB",
"+X c #3FD0CF",
"@X c #3ECECC",
"#X c #239BA0",
"$X c #21989B",
"%X c #3DCCCA",
"&X c #31B6B7",
"*X c #31989A",
"=X c #C9F3E7",
"-X c #78C2BF",
";X c #238F93",
":X c #C7F0E4",
">X c #CAF3E8",
",X c #95E9E3",
"<X c #46D5D3",
"1X c #29AAAC",
"2X c #28A7A8",
"3X c #1C8F94",
"4X c #27A4A7",
"5X c #2AAAAD",
"6X c #B7E9DF",
"7X c #6EBEBC",
"8X c #299295",
"9X c #C4F0E4",
"0X c #CAF1E5",
"qX c #97E7DF",
"wX c #4CD8D5",
"eX c #27A2A6",
"rX c #1C8A90",
"tX c #2FB2B3",
"yX c #9FDBD4",
"uX c #C4F0E5",
"iX c #88E5DF",
"pX c #47D4D2",
"aX c #41D2D1",
"sX c #41D2CF",
"dX c #239DA1",
"fX c #C5F1E5",
"gX c #66BBBA",
"hX c #38BEBD",
"jX c #3FCFCE",
"kX c #C1EDE3",
"lX c #C2EDE3",
"zX c #58B2B2",
"xX c #3AC2C1",
"cX c #1D9195",
"vX c #4DACAC",
"bX c #2C9296",
"nX c #8FD1CB",
/* pixels */
"  . X o O O O O O O O O O O + @ # $ % O O O O O O O O O O O & * ",
"= - ; : > O O O O O O O O O + , < 1 2 O O O O O O O O O O O O 3 ",
"4 5 6 7 8 9 0 O O O O O O O + q w e r % O O O O O O O O O O O O ",
"0 t y u i i p & O O O O O O + q a s d f g O O O O O O O O O O O ",
"O O 0 h j k k l z 0 O O O O + , x c v b n O O O O O O O O O O O ",
"O O O O > m M 6 N B 0 O O O + V C Z A S D F O O O O O O O O O O ",
"O O O O O O G H J K L P O O O I U Y + T & O O O O O O O O O O O ",
"O O O O O O O R E W Q O O O O O ! V ~ c O O O O O O O O O O O O ",
"O O O O O O O O ^ / ( ) Z O O O _ ` ' ] % + O O O O O O O O O O ",
"O O O O O O O Z : [ { } O O O O | &  .S # ..0 O O O O O O O O O ",
"O O O O O O O O Z X.o.O.) +.O O O O Z ..@.#.0 O O O O O O O O O ",
"O O O O O O O O O $.%.&.*.=.P O O O -.;.:.#.0 O O O O O O O O O ",
"O O O O O O O O O >.,.<.1.& P O O O O O 2.3.0 O O O O O O O O O ",
"O O O O O O O O O O 4.5.6.m O O O O O -.7...0 O O O O O O O O O ",
"O O O O O O O O O O 8.9.0.q.w.O O O O -.7...0 O O O O O O O O O ",
"O O O O O O O O O O O Z 6.e.t O O O O -.7.r.g O O O O O O O O O ",
"O O O O O O O O O O O 8.t.y.u.0 O O O -.i.p.a.s.O O O O O O O O ",
"O O O O O O O O O O O 8.d.f.g.0 O O O -.i.@.h.+ O O O O O O O O ",
"O O O O O O O O O O O O 0 j.k.> O O O -.r.:.p.l.O O O O O O O O ",
"O O O O O O O O O O O O >.z.0.x.0 O O O | c.p.a 0 O O O O O O O ",
"O O O O O O O O O O O O >.v.7 b.n.w.O O O + q S m.O O O O O O O ",
"T | O O O O O O O O O O O > M.N.[ B 0 O > z B.V.C.0 O O O O O O ",
"Z.A.g O O O O O O O O O O O G S.D.F.G.8.H.J.K.L.P.I.0 O O O O O ",
"U.# Y.% O O g T T.T.g O O O & R.E.W.Q.!.~.E.^.W./.(.).c O O O O ",
"! _.`.'.% T U ].[.{.1 % O O O R }.J E.i 6 6 6 E.|. X.XXX% + O O ",
"O oXOXp.p.+X@X#XT $X%X&X% + O O *X5 f.=X-X;X9 H E.:X>X,X<X1X& O ",
"O 0 + 2X:.7.3X+ O 0 & 4X@X5X& O 0 t y 6X7X=.+.8X5 9X0XqXwXd eXrX",
"O O O O i.S +X#XrXT T T tXp.eX+ O O 0 ) t O O G yXuXD.D.iXpXaXsX",
"O O O O + T U ].[.[.[.[.aX`.sXdX0 O O O O O O O *X5 f.D.fXgXhXd ",
"O O O O O O g T T.T.T.c i.:.`.jXoX0 O O O O O O 0 t y o.kXlXzXxX",
"0 O O O O O O O O O O O | c.d `.Z.cXO O O O O O O O 0 h j k k vX",
"bXo O O O O O O O O O O O & , `.[.2 O O O O O O O O O O h z nXy."
};
