/* XPM */
static char *result[] = {
/* columns rows colors chars-per-pixel */
"32 32 187 2 ",
"   c #1C858B",
".  c #1C818A",
"X  c #4DAAAA",
"o  c #C4F0E5",
"O  c #CAF3E7",
"+  c #57B1B0",
"@  c #35C1C2",
"#  c #3FD1CF",
"$  c #1C8F94",
"%  c #1C828A",
"&  c #65B9B6",
"*  c #C7F1E6",
"=  c #C0ECE2",
"-  c #3FA5A6",
";  c #39C8C7",
":  c #3BCAC9",
">  c #1C8A91",
",  c #1C888E",
"<  c #1C848C",
"1  c #78C2BF",
"2  c #C9F2E6",
"3  c #47A7A8",
"4  c #1C8E93",
"5  c #3DCDCC",
"6  c #40D1D0",
"7  c #33BBBC",
"8  c #1C868D",
"9  c #1C898F",
"0  c #1C8A90",
"q  c #1C8990",
"w  c #90D0CA",
"e  c #BEEBE0",
"r  c #2F9599",
"t  c #219A9E",
"y  c #40D2D0",
"u  c #41D3D2",
"i  c #29A9AB",
"p  c #3AC8C8",
"a  c #1C878D",
"s  c #2BACAE",
"d  c #41D2D1",
"f  c #3ECECD",
"g  c #1C9094",
"h  c #86CBC6",
"j  c #C2EEE3",
"k  c #389C9F",
"l  c #1C838A",
"z  c #25A2A4",
"x  c #43D8D5",
"c  c #2AABAD",
"v  c #3BC9C8",
"b  c #39C5C4",
"n  c #1D8A8F",
"m  c #99D5CD",
"M  c #B3E7DF",
"N  c #2A9296",
"B  c #2BADAF",
"V  c #2BAAAD",
"C  c #1F9599",
"Z  c #36C0C0",
"A  c #1C8C92",
"S  c #1E9498",
"D  c #3FCFCE",
"F  c #1C868C",
"G  c #228E92",
"H  c #AFE3DB",
"J  c #A6DED6",
"K  c #1C8A8E",
"L  c #39C2C3",
"P  c #3FD0CF",
"I  c #24A0A2",
"U  c #44D8D6",
"Y  c #2FB4B5",
"T  c #A7DDD4",
"R  c #AEE2D9",
"E  c #2FB2B3",
"W  c #3ECECC",
"Q  c #209599",
"!  c #43D7D5",
"~  c #2D9397",
"^  c #A3DCD5",
"/  c #1C8088",
"(  c #31B6B7",
")  c #2AAAAC",
"_  c #41D3D1",
"`  c #42D6D4",
"'  c #B3E5DB",
"]  c #97D6D0",
"[  c #21979A",
"{  c #399D9F",
"}  c #9BD8D0",
"|  c #1C888F",
" . c #42D7D4",
".. c #229A9F",
"X. c #30979A",
"o. c #C3EFE4",
"O. c #42D4D3",
"+. c #3FCFCD",
"@. c #1C9295",
"#. c #1C848A",
"$. c #BEECE3",
"%. c #8DCFCA",
"&. c #1C8089",
"*. c #29A6A9",
"=. c #37C2C3",
"-. c #20969A",
";. c #49A8A8",
":. c #91D2CB",
">. c #27A2A6",
",. c #38C2C2",
"<. c #3FA1A2",
"1. c #208C91",
"2. c #3C9FA1",
"3. c #60B5B3",
"4. c #A4DDD5",
"5. c #228D91",
"6. c #26A3A5",
"7. c #1D9196",
"8. c #39C7C7",
"9. c #1C8B92",
"0. c #54AEAD",
"q. c #C9F3E7",
"w. c #66B8B6",
"e. c #1C7E88",
"r. c #30B2B4",
"t. c #28A5A8",
"y. c #3DCCCA",
"u. c #1C838B",
"i. c #70BFBC",
"p. c #C6F0E5",
"a. c #C8F1E5",
"s. c #89CCC7",
"d. c #218D92",
"f. c #218C91",
"g. c #31B9BA",
"h. c #239C9F",
"j. c #61B5B3",
"k. c #C5EFE4",
"l. c #54AFAF",
"z. c #BDEBE3",
"x. c #BCEBE2",
"c. c #44A3A5",
"v. c #1E8B90",
"b. c #37C1C1",
"n. c #21959A",
"m. c #7DC5C0",
"M. c #C4F0E4",
"N. c #44A4A6",
"B. c #1F8B90",
"V. c #399B9F",
"C. c #B8E8DF",
"Z. c #BFEBE1",
"A. c #B1E4DB",
"S. c #2FB2B4",
"D. c #2CADAF",
"F. c #79C3C0",
"G. c #CBF3E8",
"H. c #A7DFD7",
"J. c #228F92",
"K. c #3CCCCA",
"L. c #73C1BE",
"P. c #C1EDE3",
"I. c #C4EEE3",
"U. c #1C888D",
"Y. c #44D9D6",
"T. c #218B91",
"R. c #99D6CE",
"E. c #A1DBD3",
"W. c #89CEC9",
"Q. c #45DAD9",
"!. c #2BADAE",
"~. c #379B9E",
"^. c #BFEDE4",
"/. c #27A4A7",
"(. c #1C8289",
"). c #1C8A8F",
"_. c #C2EDE3",
"`. c #41D5D3",
"'. c #248F92",
"]. c #35BEBF",
"[. c #1F8C91",
"{. c #399C9E",
"}. c #C7F1E5",
"|. c #72C0BB",
" X c #1C7D87",
".X c #34BBBC",
"XX c #1E9296",
/* pixels */
"                                  . X o O + @ # $               ",
"                                    % & * = - ; : > ,           ",
"                                      < 1 2 3 4 5 6 7 , 8       ",
"9     8 0 q q 9                           w e r 8 t y u i %     ",
"p > a s d f f 5 g                       . h j k   l z x c %     ",
"y y 6 d s a > v b > ,                     n m M N   % B V % , q ",
"C u Z A 9     , S D 7 F                     G H J K   8 0 9 L P ",
"% t 6 d s a q 9 9 I U Y                     K T R K   % E # W Q ",
"  F a s d f f f f P ! ! V %                   ~ ^ G   / ( ) A F ",
"      8 0 q q q , t _ ! ` z %                 G ' ] l % E # W Q ",
"                  % z ` ! _ [ l                 { } n   | 9 L P ",
"                    % V !  ...%               l X.o.h .     , q ",
"                        ( O.+.@.#.            l r $.%.&.        ",
"                      / ( *.=.-.                l ;.:.          ",
"                      / ( >.,.D g               % <.2 1 <       ",
"1.                    / ( >.Z _ p 8             % 2.= * 3.&.    ",
"4.5.                  / ( 6.F 7.8.9.0 |           % 0.q.w.e.    ",
"* m n                 % r.t.l 0 y.D u E %           u.i.i.u.    ",
"p.a.s.n d.f.a           F g.h.  , t ! (             &.j.k.l.%   ",
"z.p.o.x.x.z.c.v.F         , b.n., % z ! i %           l m.M.N.B.",
"V.C.Z.p.p.p.$.A.N           ,.6 p > 9 S.D.%           e.F.G.$.x.",
"  n 0.= x.o.p.p.H.J.        , $ K.y d ! c %           e.L.P.I.p.",
"    U.f.n s.a.p.* ] l           C u ! Y.c %             n T.R.$.",
"          n E.2 2 E.n         #.7.# ! Y.c %                 B.f.",
"          l ] * p.a.W.          % ..! Y.c %                     ",
"            J.J $.p.a.1 <       l [ _ Q.!.l                     ",
"              B.~.C.^.* & %       l /.x O.I (.                  ",
"                F n 0.= = 0.n F   (.I O.x /.l                   ",
"                    U.).1 _.C.~.B.  % V ! `.[ l                 ",
"                          W.= z.J '.v.  Y U ..%                 ",
"                          v.'.J z.= W.    ].u 7.#.              ",
"                              [.{.j }.|. X.X! XX%               "
};
