/* XPM */
static char *result[] = {
/* columns rows colors chars-per-pixel */
"32 32 88 1 ",
"  c #3C2205",
". c #3E2406",
"X c #4B2C0C",
"o c #4E2D0E",
"O c #4E320B",
"+ c #482F15",
"@ c #482F16",
"# c #493017",
"$ c #4A3117",
"% c #5D3A1B",
"& c #693E16",
"* c #514215",
"= c #514216",
"- c #524316",
"; c #5E4215",
": c #5B4618",
"> c #65500F",
", c #664B14",
"< c #6B4019",
"1 c #6E4119",
"2 c #634A1A",
"3 c #725D14",
"4 c #73501C",
"5 c #73511F",
"6 c #77561F",
"7 c #985E28",
"8 c #9D8215",
"9 c #AD980F",
"0 c #AE9811",
"q c #B49D14",
"w c #BEA614",
"e c #A08820",
"r c #B7A421",
"t c #BAA827",
"y c #B9A52C",
"u c #BDA72D",
"i c #BAA828",
"p c #BDA928",
"a c #BEA82B",
"s c #C9AF1C",
"d c #D0B929",
"f c #EDCD02",
"g c #EECD02",
"h c #F1D008",
"j c #F2D109",
"k c #F2D20C",
"l c #E0C313",
"z c #EECF11",
"x c #EDCF13",
"c c #E5CA19",
"v c #EED013",
"b c #EFD114",
"n c #ECD018",
"m c #F4D511",
"M c #F1D315",
"N c #F2D51A",
"B c #F3D51A",
"V c #DCC224",
"C c #E9CE21",
"Z c #EED122",
"A c #EFD226",
"S c #F1D521",
"D c #F2D521",
"F c #FADD27",
"G c #F0D328",
"H c #ECD437",
"J c #F1D83C",
"K c #F9DF39",
"L c #FEE22F",
"P c #FBE133",
"I c #FCE030",
"U c #FCE340",
"Y c #FCE449",
"T c #F6E157",
"R c #FCE654",
"E c #F9E358",
"W c #FCE75D",
"Q c #FAE976",
"! c #FAE977",
"~ c #FBEA76",
"^ c #FBEA78",
"/ c #FDEB7A",
"( c #FDEC79",
") c #FDEB7C",
"_ c #FDEC7F",
"` c #FEED80",
"' c #FEED82",
"] c None",
/* pixels */
"]]]]]]]]]]]]]]]]]]]]]]]]]]]]]]]]",
"]]]]]]]]]]]]]]]]]]]]]]]]]]]]]]]]",
"]]]]]]]]]]]]]]]]]]]]]]]]]]]]]]]]",
"]]]]]]]]]]]]]]]]]]]]]]]]]]]]]]]]",
"]]]]]]]]]]]]]]]]]]]]]]]]]]]]]]]]",
"]]]]]]]]]]]]]]]]]]]]]]]]]]]]]]]]",
"]]]]]]]]]]]]]]]]]]]]]]]]]]]]]]]]",
"]]]]]]]]]]]]]]]]]]]]]]]]]]]]]]]]",
"]]]]]]]]]]]]]]5=-:7]]]]]]]]]]]]]",
"]]]]]]]]]]]]]oaCcV,]]]]]]]]]]]]]",
"]]]]]]]]]]]]];dPmn3]]]]]]]]]]]]]",
"]]]]]]]]]]]]%uI(RMZ2]]]]]]]]]]]]",
"]]]]]]]]]]]]#tL'/SN*]]]]]]]]]]]]",
"]]]]]]]]]]]]$iL`WMN*]]]]]]]]]]]]",
"]]]]]]]]]]]]#rF_)DN*]]]]]]]]]]]]",
"]]]]]]]]]]]]@0b^YkN*]]]]]]]]]]]]",
"]]]]]]]]]]]]@9v~UjN*]]]]]]]]]]]]",
"]]]]]]]]]]]]@9v~UjN*]]]]]]]]]]]]",
"]]]]]]]]]]]]@9vQKhN*]]]]]]]]]]]]",
"]]]]]]]]]]]]@9v!GgN*]]]]]]]]]]]]",
"]]]]]]]]]]]]+9v!AfB*]]]]]]]]]]]]",
"]]]]]]]]]]]]18lTJxs4]]]]]]]]]]]]",
"]]]]]]]]]]]]]OwzEH>]]]]]]]]]]]]]",
"]]]]]]]]]]]]]<eqpy6]]]]]]]]]]]]]",
"]]]]]]]]]]]]]]& .X]]]]]]]]]]]]]]",
"]]]]]]]]]]]]]]]]]]]]]]]]]]]]]]]]",
"]]]]]]]]]]]]]]]]]]]]]]]]]]]]]]]]",
"]]]]]]]]]]]]]]]]]]]]]]]]]]]]]]]]",
"]]]]]]]]]]]]]]]]]]]]]]]]]]]]]]]]",
"]]]]]]]]]]]]]]]]]]]]]]]]]]]]]]]]",
"]]]]]]]]]]]]]]]]]]]]]]]]]]]]]]]]",
"]]]]]]]]]]]]]]]]]]]]]]]]]]]]]]]]"
};
