/* XPM */
static char *result[] = {
/* columns rows colors chars-per-pixel */
"32 32 128 2 ",
"   c #1E1C11",
".  c #3E2305",
"X  c #3F2406",
"o  c #2E2210",
"O  c #492B09",
"+  c #49390D",
"@  c #4A390D",
"#  c #573E0E",
"$  c #5C381C",
"%  c #64380F",
"&  c #503921",
"*  c #573E21",
"=  c #5A461E",
"-  c #685409",
";  c #6E4B17",
":  c #7A4B12",
">  c #71411B",
",  c #7D4D1C",
"<  c #6B5217",
"1  c #7A5819",
"2  c #7C6813",
"3  c #524625",
"4  c #524627",
"5  c #544727",
"6  c #634B29",
"7  c #755125",
"8  c #785425",
"9  c #835C11",
"0  c #815D1A",
"q  c #92751C",
"w  c #975D24",
"e  c #846920",
"r  c #826335",
"t  c #AC911E",
"y  c #B39D14",
"u  c #B8A10F",
"i  c #BAA416",
"p  c #A88E28",
"a  c #AD9221",
"s  c #C2A814",
"d  c #CCAE13",
"f  c #CDB210",
"g  c #C9B21F",
"h  c #EFCE03",
"j  c #EFCF03",
"k  c #E3C60E",
"l  c #E9CC0F",
"z  c #F0CF04",
"x  c #F1D006",
"c  c #F1D106",
"v  c #F1D107",
"b  c #F2D208",
"n  c #F3D308",
"m  c #F2D209",
"M  c #F3D309",
"N  c #F3D30A",
"B  c #F6D709",
"V  c #F4D40A",
"C  c #F6D60A",
"Z  c #F3D40E",
"A  c #F7D70C",
"S  c #F7D80C",
"D  c #F8D809",
"F  c #F9D909",
"G  c #F8D80B",
"H  c #E5C812",
"J  c #E6CB1E",
"K  c #EED012",
"L  c #EED41F",
"P  c #F2D312",
"I  c #F5D613",
"U  c #F2D415",
"Y  c #F7D811",
"T  c #F7D812",
"R  c #F6D816",
"E  c #F8D910",
"W  c #F8D811",
"Q  c #F8D912",
"!  c #F8D913",
"~  c #F9DA12",
"^  c #F9DA14",
"/  c #F9DA15",
"(  c #FADB15",
")  c #F9DA16",
"_  c #F8DA17",
"`  c #FADB17",
"'  c #FBDC16",
"]  c #FADC17",
"[  c #F2D41D",
"{  c #F2D51D",
"}  c #F7DA1D",
"|  c #F8D919",
" . c #F9DB1A",
".. c #F8DB1C",
"X. c #F9DB1C",
"o. c #DFC834",
"O. c #E7CD25",
"+. c #E9CF28",
"@. c #EED222",
"#. c #EDD327",
"$. c #F4D823",
"%. c #F7DB22",
"&. c #FBDE26",
"*. c #F1D62B",
"=. c #F8DD29",
"-. c #F9DD29",
";. c #FDE023",
":. c #FEE332",
">. c #FDE237",
",. c #A59552",
"<. c #BEAC4D",
"1. c #B8AA5C",
"2. c #BBB05E",
"3. c #BBB05F",
"4. c #BBB15F",
"5. c #C2AF4C",
"6. c #CDBC4C",
"7. c #C8B761",
"8. c #E5D355",
"9. c #E6D458",
"0. c #E6D459",
"q. c #FBE449",
"w. c #FCE54F",
"e. c #FDE756",
"r. c #FCE757",
"t. c #FCE75C",
"y. c #FCE85C",
"u. c None",
/* pixels */
"u.u.u.u.u.u.u.u.u.u.u.u.u.u.u.u.u.u.u.u.u.u.u.u.u.u.u.u.u.u.u.u.",
"u.u.u.u.u.u.u.u.u.u.u.u.u.u.u.u.u.u.u.u.u.u.u.u.u.u.u.u.u.u.u.u.",
"u.u.u.u.u.u.u.u.u.u.u.u.u.u.u.u.u.u.u.u.u.u.u.u.u.u.u.u.u.u.u.u.",
"u.u.u.u.u.u.u.u.u.u.u.u.u.u.u.u.u.u.u.u.u.u.u.u.u.u.u.u.u.u.u.u.",
"u.u.u.u.u.u.u.u.u.u.u.u.u.u.u.u.u.u.u.u.u.u.u.u.u.u.u.u.u.u.u.u.",
"u.u.u.u.u.u.u.u.u.u.u.u.u.u.u.u.u.u.u.u.u.u.u.u.u.u.u.u.u.u.u.u.",
"u.u.u.u.u.u.u.u.u.u.u.u.u.u.u.u.u.u.u.u.u.u.u.u.u.u.u.u.u.u.u.u.",
"u.u.u.u.u.u.u.u.u.u.u.u.u.u.u.u.u.u.u.u.u.u.u.u.u.u.u.u.u.u.u.u.",
"u.u.u.u.u.u.u.u.u.u.u.u.u.w = 3 4 5 7 u.u.u.u.u.u.u.u.u.u.u.u.u.",
"u.u.u.u.u.u.u.u.u.u.u.u.u.q o.8.0.9.5.r u.u.u.u.u.u.u.u.u.u.u.u.",
"u.u.u.u.u.u.u.u.u.u.u.u.e O.| U P P #.<.8 u.u.u.u.u.u.u.u.u.u.u.",
"u.u.u.u.u.u.u.u.u.u.u.< +./ b ;.>.:. .*.7.$ u.u.u.u.u.u.u.u.u.u.",
"u.u.u.u.u.u.u.u.u.u.u.2 L T N &.e.w.-.$.6.6 u.u.u.u.u.u.u.u.u.u.",
"u.u.u.u.u.u.u.u.u.u.# K _ v ( C ~ =.r.} @.1.o u.u.u.u.u.u.u.u.u.",
"u.u.u.u.u.u.u.u.u.u.@ A ) x ] B F %.t.} [ 3.  u.u.u.u.u.u.u.u.u.",
"u.u.u.u.u.u.u.u.u.u.@ A ) c ] B F %.y.} [ 2.  u.u.u.u.u.u.u.u.u.",
"u.u.u.u.u.u.u.u.u.u.@ A ) c ] B F %.y.} [ 2.  u.u.u.u.u.u.u.u.u.",
"u.u.u.u.u.u.u.u.u.u.@ A ) c ` B F %.y.} [ 2.  u.u.u.u.u.u.u.u.u.",
"u.u.u.u.u.u.u.u.u.u.+ S ) x ] B F %.t.} { 4.  u.u.u.u.u.u.u.u.u.",
"u.u.u.u.u.u.u.u.u.u.; f I n W G D ..q.R J ,.& u.u.u.u.u.u.u.u.u.",
"u.u.u.u.u.u.u.u.u.u.u.- l Q m ' A E X.M g * u.u.u.u.u.u.u.u.u.u.",
"u.u.u.u.u.u.u.u.u.u.u.1 s T V ! ^ ^ Y k a > u.u.u.u.u.u.u.u.u.u.",
"u.u.u.u.u.u.u.u.u.u.u.u.9 d Z j h z H t : u.u.u.u.u.u.u.u.u.u.u.",
"u.u.u.u.u.u.u.u.u.u.u.u.u.0 y u u i p , u.u.u.u.u.u.u.u.u.u.u.u.",
"u.u.u.u.u.u.u.u.u.u.u.u.u.u.O . . X % u.u.u.u.u.u.u.u.u.u.u.u.u.",
"u.u.u.u.u.u.u.u.u.u.u.u.u.u.u.u.u.u.u.u.u.u.u.u.u.u.u.u.u.u.u.u.",
"u.u.u.u.u.u.u.u.u.u.u.u.u.u.u.u.u.u.u.u.u.u.u.u.u.u.u.u.u.u.u.u.",
"u.u.u.u.u.u.u.u.u.u.u.u.u.u.u.u.u.u.u.u.u.u.u.u.u.u.u.u.u.u.u.u.",
"u.u.u.u.u.u.u.u.u.u.u.u.u.u.u.u.u.u.u.u.u.u.u.u.u.u.u.u.u.u.u.u.",
"u.u.u.u.u.u.u.u.u.u.u.u.u.u.u.u.u.u.u.u.u.u.u.u.u.u.u.u.u.u.u.u.",
"u.u.u.u.u.u.u.u.u.u.u.u.u.u.u.u.u.u.u.u.u.u.u.u.u.u.u.u.u.u.u.u.",
"u.u.u.u.u.u.u.u.u.u.u.u.u.u.u.u.u.u.u.u.u.u.u.u.u.u.u.u.u.u.u.u."
};
