/* XPM */
static char *result[] = {
/* columns rows colors chars-per-pixel */
"32 32 186 2 ",
"   c #3E2305",
".  c #402506",
"X  c #442404",
"o  c #462807",
"O  c #512707",
"+  c #5D3A18",
"@  c #5E3A18",
"#  c #5A3E1B",
"$  c #67370A",
"%  c #603F1D",
"&  c #693F19",
"*  c #713F13",
"=  c #704015",
"-  c #74481A",
";  c #714E19",
":  c #7B491E",
">  c #68531B",
",  c #715D18",
"<  c #7E5C19",
"1  c #7B601D",
"2  c #524627",
"3  c #544627",
"4  c #594827",
"5  c #69532C",
"6  c #66592E",
"7  c #67592E",
"8  c #6F5B2E",
"9  c #7C5821",
"0  c #7A5927",
"q  c #7C552A",
"w  c #756137",
"e  c #87651B",
"r  c #9D7F19",
"t  c #824E20",
"y  c #885426",
"u  c #885627",
"i  c #825F24",
"p  c #916322",
"a  c #926235",
"s  c #946539",
"d  c #8F7A43",
"f  c #8F7E40",
"g  c #8E7E42",
"h  c #9D831B",
"j  c #A48313",
"k  c #AA8B1B",
"l  c #AA8C19",
"z  c #AD9917",
"x  c #AE9817",
"c  c #AD9918",
"v  c #BBA412",
"b  c #BCA512",
"n  c #B8A016",
"m  c #B9A216",
"M  c #AB9524",
"N  c #B69A29",
"B  c #BFA826",
"V  c #BAA428",
"C  c #C5AC18",
"Z  c #C5A92A",
"A  c #C5AF28",
"S  c #D6BD24",
"D  c #D7BD27",
"F  c #D4BB29",
"G  c #F1D106",
"H  c #F1D107",
"J  c #F2D207",
"K  c #F7D707",
"L  c #F3D308",
"P  c #F1D20A",
"I  c #F3D40A",
"U  c #F4D50A",
"Y  c #F5D50B",
"T  c #F7D70B",
"R  c #F5D60D",
"E  c #F5D60E",
"W  c #F7D809",
"Q  c #F7D80C",
"!  c #F8D809",
"~  c #F9D90A",
"^  c #F8D80C",
"/  c #F8D80D",
"(  c #F8D90D",
")  c #F9DA0E",
"_  c #F9DA0F",
"`  c #E7CC1F",
"'  c #EACE19",
"]  c #EACE1A",
"[  c #EBCE1E",
"{  c #F5D615",
"}  c #F6D714",
"|  c #F5D717",
" . c #F7D814",
".. c #F6D816",
"X. c #F9DA12",
"o. c #F9DA13",
"O. c #FADB12",
"+. c #FADA13",
"@. c #F9D915",
"#. c #F9DA14",
"$. c #F9DB15",
"%. c #F8D916",
"&. c #FADB16",
"*. c #F7D919",
"=. c #F8DA19",
"-. c #FBDC19",
";. c #FADC1A",
":. c #FBDD1A",
">. c #FCDD19",
",. c #FCDE1B",
"<. c #FCDE1C",
"1. c #FDDF1D",
"2. c #FCDE1E",
"3. c #FDDF1E",
"4. c #FDE01F",
"5. c #E8CF28",
"6. c #F2D724",
"7. c #F4D824",
"8. c #F6DA24",
"9. c #FADD23",
"0. c #FBDE22",
"q. c #FBDE23",
"w. c #FCDF22",
"e. c #FCDF23",
"r. c #F8DB27",
"t. c #FADD24",
"y. c #FADD25",
"u. c #FCDE24",
"i. c #FDDF24",
"p. c #F7DC2C",
"a. c #F8DE35",
"s. c #FDE020",
"d. c #FDE027",
"f. c #FDE127",
"g. c #FCE02A",
"h. c #FCE12D",
"j. c #FCE02F",
"k. c #FAE032",
"l. c #FCE030",
"z. c #FCE133",
"x. c #FDE233",
"c. c #FDE333",
"v. c #FAE034",
"b. c #FBE137",
"n. c #FCE234",
"m. c #FDE334",
"M. c #FDE236",
"N. c #FCE23A",
"B. c #FCE33A",
"V. c #FDE33A",
"C. c #FCE33D",
"Z. c #FDE33D",
"A. c #998148",
"S. c #BEAA49",
"D. c #D2BE49",
"F. c #EDD956",
"G. c #F2DF59",
"H. c #FBE341",
"J. c #FBE343",
"K. c #FBE445",
"L. c #FCE444",
"P. c #FCE445",
"I. c #FCE548",
"U. c #FCE44A",
"Y. c #FCE64B",
"T. c #FCE54E",
"R. c #FCE54F",
"E. c #F4E056",
"W. c #FCE650",
"Q. c #FDE652",
"!. c #FDE754",
"~. c #FCE657",
"^. c #F2E05A",
"/. c #F9E45E",
"(. c #FDE859",
"). c #FDE85A",
"_. c #FDE85B",
"`. c #FDE85C",
"'. c #FDE85D",
"]. c #E3D366",
"[. c #E8D761",
"{. c #E8D862",
"}. c #E9D962",
"|. c #E0D168",
" X c #E6D669",
".X c None",
/* pixels */
".X.X.X.X.X.X.X.X.X.X.X.X.X.X.X.X.X.X.X.X.X.X.X.X.X.X.X.X.X.X.X.X",
".X.X.X.X.X.X.X.X.X.X.X.X.X.X.X.X.X.X.X.X.X.X.X.X.X.X.X.X.X.X.X.X",
".X.X.X.X.X.X.X.X.X.X.X.X.X.X.X.X.X.X.X.X.X.X.X.X.X.X.X.X.X.X.X.X",
".X.X.X.X.X.X.X.X.X.X.X.X.X.X.X.X.X.X.X.X.X.X.X.X.X.X.X.X.X.X.X.X",
".X.X.X.X.X.X.X.X.X.X.X.X.X.X.X.X.X.X.X.X.X.X.X.X.X.X.X.X.X.X.X.X",
".X.X.X.X.X.X.X.X.X.X.X.X.X.X.X.X.X.X.X.X.X.X.X.X.X.X.X.X.X.X.X.X",
".X.X.X.X.X.X.X.X.X.X.X.X.X.X.X.X.X.X.X.X.X.X.X.X.X.X.X.X.X.X.X.X",
".X.X.X.X.X.X.X.X.X.X.X.X.X.X.X.X.X.X.X.X.X.X.X.X.X.X.X.X.X.X.X.X",
".X.X.X.X.X.X.X.X.X.X.X.X.Xy 4 2 2 3 q .X.X.X.X.X.X.X.X.X.X.X.X.X",
".X.X.X.X.X.X.X.X.X.X.Xa 5 f ].{.{.[.S.> 9 .X.X.X.X.X.X.X.X.X.X.X",
".X.X.X.X.X.X.X.X.X.X.Xd |.F.a.y.9.9.7.5.V - .X.X.X.X.X.X.X.X.X.X",
".X.X.X.X.X.X.X.X.Xs A./.k.} P H G G U >.i.Z p .X.X.X.X.X.X.X.X.X",
".X.X.X.X.X.X.X.X.Xw  Xv. .R 0.j.l.g.#.E :.8.N O .X.X.X.X.X.X.X.X",
".X.X.X.X.X.X.X.Xu g E...E f.H.~.`.L.1.&.| h.A ; .X.X.X.X.X.X.X.X",
".X.X.X.X.X.X.X.X8 }.p.L ,.V.T.$.o./ _ 3.b.!.r.M & .X.X.X.X.X.X.X",
".X.X.X.X.X.X.X.X6 G.=.J 1.Z.Q.) ~ K ( 4.B._.e.c + .X.X.X.X.X.X.X",
".X.X.X.X.X.X.X.X6 G.%.J 1.Z.W.) ~ K ( 4.B.(.w.z + .X.X.X.X.X.X.X",
".X.X.X.X.X.X.X.X7 ^.%.J 1.C.R.) ~ K ( 4.N.).e.x @ .X.X.X.X.X.X.X",
".X.X.X.X.X.X.X.X0 D.*.I -.M.J.^ ! W O.d.L.I.[ j * .X.X.X.X.X.X.X",
".X.X.X.X.X.X.X.X.X, 6.@.Y ;.2.Q T +.d.P.U.<.n X .X.X.X.X.X.X.X.X",
".X.X.X.X.X.X.X.X.X< F s.X.{ z.x.c.n.K.Y.d.] k .X.X.X.X.X.X.X.X.X",
".X.X.X.X.X.X.X.X.X.Xi D 0.m.).`.'.`.P.3.' r t .X.X.X.X.X.X.X.X.X",
".X.X.X.X.X.X.X.X.X.X.Xe B S t.u.u.q.` C l $ .X.X.X.X.X.X.X.X.X.X",
".X.X.X.X.X.X.X.X.X.X.X.X% 1 m b b v h # : .X.X.X.X.X.X.X.X.X.X.X",
".X.X.X.X.X.X.X.X.X.X.X.X.X.Xo     . = .X.X.X.X.X.X.X.X.X.X.X.X.X",
".X.X.X.X.X.X.X.X.X.X.X.X.X.X.X.X.X.X.X.X.X.X.X.X.X.X.X.X.X.X.X.X",
".X.X.X.X.X.X.X.X.X.X.X.X.X.X.X.X.X.X.X.X.X.X.X.X.X.X.X.X.X.X.X.X",
".X.X.X.X.X.X.X.X.X.X.X.X.X.X.X.X.X.X.X.X.X.X.X.X.X.X.X.X.X.X.X.X",
".X.X.X.X.X.X.X.X.X.X.X.X.X.X.X.X.X.X.X.X.X.X.X.X.X.X.X.X.X.X.X.X",
".X.X.X.X.X.X.X.X.X.X.X.X.X.X.X.X.X.X.X.X.X.X.X.X.X.X.X.X.X.X.X.X",
".X.X.X.X.X.X.X.X.X.X.X.X.X.X.X.X.X.X.X.X.X.X.X.X.X.X.X.X.X.X.X.X",
".X.X.X.X.X.X.X.X.X.X.X.X.X.X.X.X.X.X.X.X.X.X.X.X.X.X.X.X.X.X.X.X"
};
