/* XPM */
static char *result[] = {
/* columns rows colors chars-per-pixel */
"32 32 127 2 ",
"   c #3E2305",
".  c #402506",
"X  c #422506",
"o  c #703C19",
"O  c #6F421B",
"+  c #714817",
"@  c #79431D",
"#  c #544520",
"$  c #524627",
"%  c #574827",
"&  c #774A26",
"*  c #7B4C22",
"=  c #7D4F22",
"-  c #784F27",
";  c #7F4F25",
":  c #834C1C",
">  c #8A740D",
",  c #8B740D",
"<  c #8D7210",
"1  c #8F711F",
"2  c #977512",
"3  c #937414",
"4  c #907018",
"5  c #96761D",
"6  c #907F1B",
"7  c #815424",
"8  c #805727",
"9  c #8F5625",
"0  c #865B21",
"q  c #8D7521",
"w  c #8F7124",
"e  c #8C6133",
"r  c #8A7742",
"t  c #8F7544",
"y  c #867844",
"u  c #877944",
"i  c #988612",
"p  c #A8951E",
"a  c #B8A10F",
"s  c #B7A111",
"d  c #B8A110",
"f  c #BCA51E",
"g  c #978424",
"h  c #A38B24",
"j  c #A79021",
"k  c #DBBE14",
"l  c #D5BA19",
"z  c #D8BE1B",
"x  c #DEC315",
"c  c #DEC218",
"v  c #EFCE03",
"b  c #F6D605",
"n  c #F0D008",
"m  c #F7D708",
"M  c #F4D40B",
"N  c #F5D50B",
"B  c #F5D60B",
"V  c #F6D70A",
"C  c #F7D70B",
"Z  c #F4D50C",
"A  c #F5D50C",
"S  c #F4D40D",
"D  c #F4D50D",
"F  c #F5D50D",
"G  c #F5D60D",
"H  c #F7D70C",
"J  c #F4D40E",
"K  c #F5D50E",
"L  c #F4D50F",
"P  c #F6D60F",
"I  c #F6D70F",
"U  c #F7D80D",
"Y  c #F8D90B",
"T  c #F9D90C",
"R  c #F8D90F",
"E  c #F2D311",
"W  c #F2D312",
"Q  c #F2D411",
"!  c #F5D510",
"~  c #F4D511",
"^  c #F5D610",
"/  c #F6D710",
"(  c #F4D512",
")  c #F2D314",
"_  c #F5D615",
"`  c #F6D716",
"'  c #F7D915",
"]  c #F6D816",
"[  c #F8D910",
"{  c #FADB13",
"}  c #FCDC11",
"|  c #FCDD11",
" . c #F8DA14",
".. c #F9DA14",
"X. c #FADB14",
"o. c #FADC17",
"O. c #F5D81C",
"+. c #FADC1C",
"@. c #D9C335",
"#. c #F2D620",
"$. c #F8DB24",
"%. c #ECD43D",
"&. c #F1D732",
"*. c #FDE02A",
"=. c #FDE02B",
"-. c #FAE136",
";. c #FDE237",
":. c #FAE039",
">. c #9C8842",
",. c #948248",
"<. c #9B9043",
"1. c #A48E41",
"2. c #E5CF41",
"3. c #EFD740",
"4. c #F7DF41",
"5. c #F0DA45",
"6. c #E6D457",
"7. c #E5D25A",
"8. c #E6D459",
"9. c #F8E042",
"0. c #FAE242",
"q. c #FBE343",
"w. c #FBE345",
"e. c #FCE445",
"r. c #FCE54A",
"t. c #FDE757",
"y. c None",
/* pixels */
"y.y.y.y.y.y.y.y.y.y.y.y.y.y.y.y.y.y.y.y.y.y.y.y.y.y.y.y.y.y.y.y.",
"y.y.y.y.y.y.y.y.y.y.y.y.y.y.y.y.y.y.y.y.y.y.y.y.y.y.y.y.y.y.y.y.",
"y.y.y.y.y.y.y.y.y.y.y.y.y.y.y.y.y.y.y.y.y.y.y.y.y.y.y.y.y.y.y.y.",
"y.y.y.y.y.y.y.y.y.y.y.y.y.y.y.y.y.y.y.y.y.y.y.y.y.y.y.y.y.y.y.y.",
"y.y.y.y.y.y.y.y.y.y.y.y.y.y.y.y.y.y.y.y.y.y.y.y.y.y.y.y.y.y.y.y.",
"y.y.y.y.y.y.y.y.y.y.y.y.y.y.y.y.y.y.y.y.y.y.y.y.y.y.y.y.y.y.y.y.",
"y.y.y.y.y.y.y.y.y.y.y.y.y.y.y.y.y.y.y.y.y.y.y.y.y.y.y.y.y.y.y.y.",
"y.y.y.y.y.y.y.y.y.y.y.y.y.y.y.y.y.y.y.y.y.y.y.y.y.y.y.y.y.y.y.y.",
"y.y.y.y.y.y.y.y.y.y.y.y.y.= % $ $ # 8 y.y.y.y.y.y.y.y.y.y.y.y.y.",
"y.y.y.y.y.y.y.y.y.y.y.y.e 1.7.8.6.2.j 0 y.y.y.y.y.y.y.y.y.y.y.y.",
"y.y.y.y.y.y.y.y.y.y.y.* >.%.) E W ` #.h 7 y.y.y.y.y.y.y.y.y.y.y.",
"y.y.y.y.y.y.y.y.y.y.@ ,.3.~ =.;.*.N N $.g o y.y.y.y.y.y.y.y.y.y.",
"y.y.y.y.y.y.y.y.y.y.- <.&.O.w.t.-.G F +.p + y.y.y.y.y.y.y.y.y.y.",
"y.y.y.y.y.y.y.y.y.y.r 5._ e.0.X.V [ / J ] < y.y.y.y.y.y.y.y.y.y.",
"y.y.y.y.y.y.y.y.y.y.u 4.^ r.q.T b R I S } > y.y.y.y.y.y.y.y.y.y.",
"y.y.y.y.y.y.y.y.y.y.u 4.^ r.q.T b R I S } , y.y.y.y.y.y.y.y.y.y.",
"y.y.y.y.y.y.y.y.y.y.u 4.! r.q.T b R I S } , y.y.y.y.y.y.y.y.y.y.",
"y.y.y.y.y.y.y.y.y.y.u 4.^ r.q.T b R I P } , y.y.y.y.y.y.y.y.y.y.",
"y.y.y.y.y.y.y.y.y.y.y 9.! r.q.T b R I D | > y.y.y.y.y.y.y.y.y.y.",
"y.y.y.y.y.y.y.y.y.y.t @.L :.-.Y m U A K x 4 y.y.y.y.y.y.y.y.y.y.",
"y.y.y.y.y.y.y.y.y.y.& 6 Q ( o.C { B N ' i O y.y.y.y.y.y.y.y.y.y.",
"y.y.y.y.y.y.y.y.y.y.y.1 l Z  .....N H k 3 y.y.y.y.y.y.y.y.y.y.y.",
"y.y.y.y.y.y.y.y.y.y.y.y.5 z n v v M c 2 y.y.y.y.y.y.y.y.y.y.y.y.",
"y.y.y.y.y.y.y.y.y.y.y.y.9 w f d a s q : y.y.y.y.y.y.y.y.y.y.y.y.",
"y.y.y.y.y.y.y.y.y.y.y.y.y.y.X     . ; y.y.y.y.y.y.y.y.y.y.y.y.y.",
"y.y.y.y.y.y.y.y.y.y.y.y.y.y.y.y.y.y.y.y.y.y.y.y.y.y.y.y.y.y.y.y.",
"y.y.y.y.y.y.y.y.y.y.y.y.y.y.y.y.y.y.y.y.y.y.y.y.y.y.y.y.y.y.y.y.",
"y.y.y.y.y.y.y.y.y.y.y.y.y.y.y.y.y.y.y.y.y.y.y.y.y.y.y.y.y.y.y.y.",
"y.y.y.y.y.y.y.y.y.y.y.y.y.y.y.y.y.y.y.y.y.y.y.y.y.y.y.y.y.y.y.y.",
"y.y.y.y.y.y.y.y.y.y.y.y.y.y.y.y.y.y.y.y.y.y.y.y.y.y.y.y.y.y.y.y.",
"y.y.y.y.y.y.y.y.y.y.y.y.y.y.y.y.y.y.y.y.y.y.y.y.y.y.y.y.y.y.y.y.",
"y.y.y.y.y.y.y.y.y.y.y.y.y.y.y.y.y.y.y.y.y.y.y.y.y.y.y.y.y.y.y.y."
};
