/* XPM */
static char *result[] = {
/* columns rows colors chars-per-pixel */
"32 32 87 1 ",
"  c #3D2305",
". c #3E2407",
"X c #4D2906",
"o c #4F2B08",
"O c #4D380D",
"+ c #4E390E",
"@ c #57340E",
"# c #533A14",
"$ c #543A14",
"% c #563C17",
"& c #583D10",
"* c #563D18",
"= c #514316",
"- c #524316",
"; c #5E4112",
": c #634816",
"> c #674814",
", c #66441C",
"< c #69491B",
"1 c #694E1D",
"2 c #75471A",
"3 c #734D1D",
"4 c #67501B",
"5 c #7C521D",
"6 c #735C1D",
"7 c #774E21",
"8 c #A58D19",
"9 c #A9901B",
"0 c #B49E14",
"q c #BFA727",
"w c #BAA22C",
"e c #BDAA2A",
"r c #C8AE12",
"t c #C9AF14",
"y c #CDB210",
"u c #CDB328",
"i c #D3BC25",
"p c #D7BE24",
"a c #D4BD31",
"s c #EECD03",
"d c #EECE03",
"f c #F1D106",
"g c #F2D207",
"h c #F2D20B",
"j c #F4D40F",
"k c #E5C813",
"l c #EBCE13",
"z c #E5CA18",
"x c #E7CB19",
"c c #EED015",
"v c #EFD016",
"b c #EFD11D",
"n c #F1D210",
"m c #F0D119",
"M c #F2D41A",
"N c #F2D51A",
"B c #F0D21D",
"V c #D6C02B",
"C c #DFC72A",
"Z c #E5CC21",
"A c #E5CC22",
"S c #E1C826",
"D c #E9CE21",
"F c #F9DC2A",
"G c #FADD2E",
"H c #E7CF33",
"J c #F1D737",
"K c #FCDF30",
"L c #FBE133",
"P c #FDE235",
"I c #FCE136",
"U c #FBE13C",
"Y c #FBE347",
"T c #FBE451",
"R c #F6E159",
"E c #FBE65C",
"W c #FCEA71",
"Q c #FDEB75",
"! c #FBE87A",
"~ c #FBE97A",
"^ c #FBE97B",
"/ c #FBE97D",
"( c #FDED7E",
") c #FEEE86",
"_ c #FDED88",
"` c #FEEE8A",
"' c None",
/* pixels */
"''''''''''''''''''''''''''''''''",
"''''''''''''''''''''''''''''''''",
"''''''''''''''''''''''''''''''''",
"''''''''''''''''''''''''''''''''",
"''''''''''''''''''''''''''''''''",
"''''''''''''''''''''''''''''''''",
"''''''''''''''''''''''''''''''''",
"''''''''''''''''''''''''''''''''",
"'''''''''''''':=->''''''''''''''",
"'''''''''''''<pzDu@'''''''''''''",
"'''''''''''''6xjLC1'''''''''''''",
"'''''''''''';SnY(Ia,''''''''''''",
"''''''''''''OZMW`PV*''''''''''''",
"''''''''''''+AnT)PV*''''''''''''",
"''''''''''''+ANQ_Gi%''''''''''''",
"''''''''''''+AhU/mt$''''''''''''",
"''''''''''''+AgK^vr$''''''''''''",
"''''''''''''+AfF^vr$''''''''''''",
"''''''''''''+AdB!vr$''''''''''''",
"''''''''''''+Asb~vr$''''''''''''",
"''''''''''''OAsb~vr#''''''''''''",
"''''''''''''3qlJRk97''''''''''''",
"'''''''''''''4HEcy&'''''''''''''",
"'''''''''''''5we082'''''''''''''",
"''''''''''''''o. X''''''''''''''",
"''''''''''''''''''''''''''''''''",
"''''''''''''''''''''''''''''''''",
"''''''''''''''''''''''''''''''''",
"''''''''''''''''''''''''''''''''",
"''''''''''''''''''''''''''''''''",
"''''''''''''''''''''''''''''''''",
"''''''''''''''''''''''''''''''''"
};
