/* XPM */
static char *result[] = {
/* columns rows colors chars-per-pixel */
"32 32 35 1 ",
"  c #391F04",
". c #3A2005",
"X c #431F04",
"o c #43280F",
"O c #50280A",
"+ c #48310B",
"@ c #543B09",
"# c #533B0F",
"$ c #573E0E",
"% c #573F0F",
"& c #4C2C12",
"* c #4F3511",
"= c #483A15",
"- c #4A3C15",
"; c #593E11",
": c #5A3E11",
"> c #583E16",
", c #5C4115",
"< c #5C4215",
"1 c #958415",
"2 c #9B8813",
"3 c #C7AD0C",
"4 c #C7AD0D",
"5 c #C8AE0D",
"6 c #CDB105",
"7 c #CDB106",
"8 c #CDB207",
"9 c #CEB207",
"0 c #D4BB1E",
"q c #C3AE25",
"w c #CAB424",
"e c #D5BD22",
"r c #DAC01A",
"t c #DCC322",
"y c None",
/* pixels */
"yyyyyyyyyyyyyyyyyyyyyyyyyyyyyyyy",
"yyyyyyyyyyyyyyyyyyyyyyyyyyyyyyyy",
"yyyyyyyyyyyyyyyyyyyyyyyyyyyyyyyy",
"yyyyyyyyyyyyyyyyyyyyyyyyyyyyyyyy",
"yyyyyyyyyyyyyyyyyyyyyyyyyyyyyyyy",
"yyyyyyyyyyyyyyyyyyyyyyyyyyyyyyyy",
"yyyyyyyyyyyyyyyyyyyyyyyyyyyyyyyy",
"yyyyyyyyyyyyyyyyyyyyyyyyyyyyyyyy",
"yyyyyyyyyyyyyyo-=&yyyyyyyyyyyyyy",
"yyyyyyyyyyyyyy#wq>yyyyyyyyyyyyyy",
"yyyyyyyyyyyyyy%te<yyyyyyyyyyyyyy",
"yyyyyyyyyyyyyy%te<yyyyyyyyyyyyyy",
"yyyyyyyyyyyyyy%te<yyyyyyyyyyyyyy",
"yyyyyyyyyyyyyy%te<yyyyyyyyyyyyyy",
"yyyyyyyyyyyyyy%te<yyyyyyyyyyyyyy",
"yyyyyyyyyyyyyy$r0,yyyyyyyyyyyyyy",
"yyyyyyyyyyyyyy@95:yyyyyyyyyyyyyy",
"yyyyyyyyyyyyyy@83;yyyyyyyyyyyyyy",
"yyyyyyyyyyyyyy@63;yyyyyyyyyyyyyy",
"yyyyyyyyyyyyyy@63;yyyyyyyyyyyyyy",
"yyyyyyyyyyyyyy@63;yyyyyyyyyyyyyy",
"yyyyyyyyyyyyyy@73;yyyyyyyyyyyyyy",
"yyyyyyyyyyyyyy@84;yyyyyyyyyyyyyy",
"yyyyyyyyyyyyyy+21*yyyyyyyyyyyyyy",
"yyyyyyyyyyyyyyX. Oyyyyyyyyyyyyyy",
"yyyyyyyyyyyyyyyyyyyyyyyyyyyyyyyy",
"yyyyyyyyyyyyyyyyyyyyyyyyyyyyyyyy",
"yyyyyyyyyyyyyyyyyyyyyyyyyyyyyyyy",
"yyyyyyyyyyyyyyyyyyyyyyyyyyyyyyyy",
"yyyyyyyyyyyyyyyyyyyyyyyyyyyyyyyy",
"yyyyyyyyyyyyyyyyyyyyyyyyyyyyyyyy",
"yyyyyyyyyyyyyyyyyyyyyyyyyyyyyyyy"
};
