/* XPM */
static char *result[] = {
/* columns rows colors chars-per-pixel */
"32 32 146 2 ",
"   c #211318",
".  c #0A0E24",
"X  c #090F2B",
"o  c #0D1334",
"O  c #221823",
"+  c #1D2034",
"@  c #2F2028",
"#  c #28203B",
"$  c #2B233F",
"%  c #352330",
"&  c #392332",
"*  c #3F293D",
"=  c #582200",
"-  c #5B2300",
";  c #5B2702",
":  c #5B2603",
">  c #54260B",
",  c #56270F",
"<  c #572710",
"1  c #542813",
"2  c #5C2A12",
"3  c #5E2B14",
"4  c #51281A",
"5  c #55291C",
"6  c #592A18",
"7  c #662800",
"8  c #6F2F05",
"9  c #6D2F06",
"0  c #732F00",
"q  c #6B3215",
"w  c #7A3916",
"e  c #452622",
"r  c #482723",
"t  c #41262D",
"y  c #48292C",
"u  c #512B29",
"i  c #572E2D",
"p  c #443120",
"a  c #703727",
"s  c #753B27",
"d  c #723A28",
"f  c #70392A",
"g  c #653732",
"h  c #6E3B35",
"j  c #081653",
"k  c #121D50",
"l  c #121D53",
"z  c #131D53",
"x  c #101D54",
"c  c #121D55",
"v  c #131E54",
"b  c #131E57",
"n  c #141E57",
"m  c #141F59",
"M  c #131F5C",
"N  c #15205C",
"B  c #14215F",
"V  c #19215A",
"C  c #1B215A",
"Z  c #2B2242",
"A  c #272249",
"S  c #27244A",
"D  c #22214C",
"F  c #31274A",
"G  c #242352",
"H  c #262553",
"J  c #272759",
"K  c #24255B",
"L  c #28275E",
"P  c #2B285D",
"I  c #332855",
"U  c #142060",
"Y  c #142161",
"T  c #162363",
"R  c #172464",
"E  c #15236D",
"W  c #16246D",
"Q  c #142371",
"!  c #132472",
"~  c #152470",
"^  c #162471",
"/  c #162474",
"(  c #162475",
")  c #172676",
"_  c #192673",
"`  c #11237B",
"'  c #132579",
"]  c #15257C",
"[  c #14257D",
"{  c #16267D",
"}  c #292861",
"|  c #2B2860",
" . c #282962",
".. c #292968",
"X. c #282B6B",
"o. c #2E2C6A",
"O. c #272D7D",
"+. c #272D7E",
"@. c #322F76",
"#. c #472C42",
"$. c #4F2F41",
"%. c #4F3246",
"&. c #493049",
"*. c #503141",
"=. c #4E4D64",
"-. c #843C06",
";. c #934711",
":. c #894220",
">. c #884122",
",. c #B26C39",
"<. c #C6621B",
"1. c #B57343",
"2. c #A57C5F",
"3. c #BA7F56",
"4. c #102382",
"5. c #152781",
"6. c #182780",
"7. c #162884",
"8. c #162989",
"9. c #15298B",
"0. c #16298A",
"q. c #14288C",
"w. c #15298C",
"e. c #152A94",
"r. c #142A95",
"t. c #152A95",
"y. c #142A97",
"u. c #152B98",
"i. c #1D3194",
"p. c #364293",
"a. c #5C649B",
"s. c #5C659F",
"d. c #727380",
"f. c #5360A4",
"g. c #5F68A4",
"h. c #B99A84",
"j. c #9395A1",
"k. c #9295A5",
"l. c #ADA7A0",
"z. c #C2B2A4",
"x. c #C0B9B2",
"c. c #DAC4B5",
"v. c #C9C8CA",
"b. c #CBCBCA",
"n. c #DCCCC2",
"m. c None",
/* pixels */
"m.m.m.m.m.m.m.m.m.m.m.m.m.m.m.m.m.m.m.m.m.m.m.m.m.m.m.m.m.m.m.m.",
"m.m.m.m.m.m.m.m.m.m.m.m.m.m.m.m.m.m.m.m.m.m.m.m.m.m.m.m.m.m.m.m.",
"m.m.m.m.m.m.m.m.m.m.m.m.m.m.m.m.m.m.m.m.m.m.m.m.m.m.m.m.m.m.m.m.",
"m.m.m.m.m.m.m.m.m.m.m.m.m.m.m.m.m.m.m.m.m.m.m.m.m.m.m.m.m.m.m.m.",
"m.m.m.m.m.m.m.m.m.m.m.m.m.m.m.m.m.m.m.m.m.m.m.m.m.m.m.m.m.m.m.m.",
"m.m.m.m.m.m.m.m.m.m.m.m.m.m.m.m.m.m.m.m.m.m.m.m.m.m.m.m.m.m.m.m.",
"m.m.m.m.m.m.m.m.m.m.m.m.m.m.m.m.m.m.m.m.m.m.m.m.m.m.m.m.m.m.m.m.",
"m.m.m.m.m.m.m.m.m.m.m.m.m.m.m.m.m.m.m.m.m.m.m.m.m.m.m.m.m.m.m.m.",
"m.m.m.m.m.m.m.m.m.- 9 m.m.m.m.m.m.m.m.m.m.m.m.m.m.m.m.m.m.m.m.m.",
"m.m.m.m.m.m.m.m.$.I * h m.m.m.m.m.m.m.m.m.m.m.m.m.m.m.m.m.m.m.m.",
"m.m.m.m.m.m.m.a @.j [ *.m.m.m.m.m.m.m.m.m.m.m.m.m.m.m.m.m.m.m.m.",
"m.m.m.m.m.m.m.<.@ + r.o.g :.m.m.m.m.m.m.m.m.m.m.m.m.m.m.m.m.m.m.",
"m.m.m.m.m.m.m.-.p d._ 6...&.f d d d d d d d s >.m.m.m.m.m.m.m.m.",
"m.m.m.m.m.m.m.;.h.v.j.k.f.p.S } X.O.+.X.H J P %.w 0 m.m.m.m.m.m.",
"m.m.m.m.m.m.m.m.,.c.b.l.g.i.z ] y.y.E k X o $ , 8 m.m.m.m.m.m.m.",
"m.m.m.m.m.m.m.m.m.1.n.x.s.R q.t.u.e.n N . O 2 m.m.m.m.m.m.m.m.m.",
"m.m.m.m.m.m.m.m.m.m.3.z.a.T 9.8.8.w.^ ~ D 1 m.m.m.m.m.m.m.m.m.m.",
"m.m.m.m.m.m.m.m.m.m.m.2.=.4.7.0.0.( 5.b & m.m.m.m.m.m.m.m.m.m.m.",
"m.m.m.m.m.m.m.m.m.m.m.;   ` / 5.{ M W G 4 m.m.m.m.m.m.m.m.m.m.m.",
"m.m.m.m.m.m.m.m.m.m.m.= | ! U Q B v C e m.m.m.m.m.m.m.m.m.m.m.m.",
"m.m.m.m.m.m.m.m.m.m.m.5 L l ^ Y m c A : m.m.m.m.m.m.m.m.m.m.m.m.",
"m.m.m.m.m.m.m.m.m.m.m.#.) M ' x V Z r m.m.m.m.m.m.m.m.m.m.m.m.m.",
"m.m.m.m.m.m.m.m.m.m.6 F # K  .% t < m.m.m.m.m.m.m.m.m.m.m.m.m.m.",
"m.m.m.m.m.m.m.m.m.m.3 y > u i q 7 m.m.m.m.m.m.m.m.m.m.m.m.m.m.m.",
"m.m.m.m.m.m.m.m.m.m.m.m.m.m.m.m.m.m.m.m.m.m.m.m.m.m.m.m.m.m.m.m.",
"m.m.m.m.m.m.m.m.m.m.m.m.m.m.m.m.m.m.m.m.m.m.m.m.m.m.m.m.m.m.m.m.",
"m.m.m.m.m.m.m.m.m.m.m.m.m.m.m.m.m.m.m.m.m.m.m.m.m.m.m.m.m.m.m.m.",
"m.m.m.m.m.m.m.m.m.m.m.m.m.m.m.m.m.m.m.m.m.m.m.m.m.m.m.m.m.m.m.m.",
"m.m.m.m.m.m.m.m.m.m.m.m.m.m.m.m.m.m.m.m.m.m.m.m.m.m.m.m.m.m.m.m.",
"m.m.m.m.m.m.m.m.m.m.m.m.m.m.m.m.m.m.m.m.m.m.m.m.m.m.m.m.m.m.m.m.",
"m.m.m.m.m.m.m.m.m.m.m.m.m.m.m.m.m.m.m.m.m.m.m.m.m.m.m.m.m.m.m.m.",
"m.m.m.m.m.m.m.m.m.m.m.m.m.m.m.m.m.m.m.m.m.m.m.m.m.m.m.m.m.m.m.m."
};
