/* XPM */
static char *result[] = {
/* columns rows colors chars-per-pixel */
"32 32 221 2 ",
"   c #000001",
".  c #020307",
"X  c #04050B",
"o  c #060811",
"O  c #050917",
"+  c #080B17",
"@  c #070A19",
"#  c #070B19",
"$  c #070A1A",
"%  c #070B1A",
"&  c #060A1C",
"*  c #070A1C",
"=  c #090D1C",
"-  c #0A0D1C",
";  c #090C1E",
":  c #110B13",
">  c #0E101F",
",  c #2B1307",
"<  c #31170C",
"1  c #32190E",
"2  c #201519",
"3  c #341A10",
"4  c #34200D",
"5  c #3D211E",
"6  c #080D23",
"7  c #090D25",
"8  c #0A0E25",
"9  c #0C1022",
"0  c #0B112E",
"q  c #0A1130",
"w  c #0E1331",
"e  c #0F1532",
"r  c #0C1335",
"t  c #0E1438",
"y  c #0D153A",
"u  c #0D143C",
"i  c #0E143C",
"p  c #111534",
"a  c #121837",
"s  c #10173E",
"d  c #171A39",
"f  c #14193A",
"g  c #211B2F",
"h  c #271E30",
"j  c #3A2225",
"k  c #3D2224",
"l  c #34222C",
"z  c #2E2130",
"x  c #2A2034",
"c  c #28223E",
"v  c #362434",
"b  c #3A2636",
"n  c #4C1F00",
"m  c #4E230C",
"M  c #5B2601",
"N  c #5D2500",
"B  c #5F2600",
"V  c #56260B",
"C  c #50240F",
"Z  c #5D2A0E",
"A  c #492313",
"S  c #42221B",
"D  c #46251F",
"F  c #552813",
"G  c #562916",
"H  c #592A16",
"J  c #5C2B14",
"K  c #612803",
"L  c #642B08",
"P  c #602B0D",
"I  c #642C0E",
"U  c #6C2E08",
"Y  c #6C2E0A",
"T  c #732F00",
"R  c #6B3006",
"E  c #612D15",
"W  c #773511",
"Q  c #482826",
"!  c #562D20",
"~  c #4F2E35",
"^  c #462D3C",
"/  c #4F343B",
"(  c #4D303F",
")  c #4F313E",
"_  c #5D3330",
"`  c #5A3335",
"'  c #53323B",
"]  c #613020",
"[  c #703A2C",
"{  c #6C4833",
"}  c #7D4030",
"|  c #0F1849",
" . c #121A46",
".. c #111A48",
"X. c #121A4A",
"o. c #131D4D",
"O. c #131D4E",
"+. c #131D4F",
"@. c #121D50",
"#. c #131D50",
"$. c #131D51",
"%. c #131E52",
"&. c #141E50",
"*. c #141E53",
"=. c #111B55",
"-. c #131D55",
";. c #131E55",
":. c #131E57",
">. c #161F54",
",. c #141E56",
"<. c #161F56",
"1. c #131F58",
"2. c #141E58",
"3. c #141F58",
"4. c #151F59",
"5. c #141F5A",
"6. c #141F5B",
"7. c #15205A",
"8. c #16215B",
"9. c #15205C",
"0. c #15205D",
"q. c #16205D",
"w. c #15205E",
"e. c #15205F",
"r. c #1C2259",
"t. c #312647",
"y. c #35294E",
"u. c #342C5F",
"i. c #162161",
"p. c #142162",
"a. c #142163",
"s. c #162162",
"d. c #172262",
"f. c #162164",
"g. c #132168",
"h. c #13226B",
"j. c #172368",
"k. c #14226A",
"l. c #15236A",
"z. c #17236B",
"x. c #15236C",
"c. c #17236E",
"v. c #152470",
"b. c #152571",
"n. c #162571",
"m. c #152572",
"M. c #142475",
"N. c #152575",
"B. c #162676",
"V. c #14257A",
"C. c #16257A",
"Z. c #13247F",
"A. c #16257D",
"S. c #16267D",
"D. c #14267F",
"F. c #16267E",
"G. c #212566",
"H. c #242E64",
"J. c #272C67",
"K. c #2D2962",
"L. c #3E3067",
"P. c #30307B",
"I. c #4E3142",
"U. c #4E324B",
"Y. c #4E3452",
"T. c #3E4050",
"R. c #735E4E",
"E. c #6D4051",
"W. c #444C7A",
"Q. c #834025",
"!. c #8E4320",
"~. c #85422C",
"^. c #954C2F",
"/. c #81502E",
"(. c #9F5C2E",
"). c #8D5834",
"_. c #AA5C25",
"`. c #C25E0F",
"'. c #89654B",
"]. c #CA9A78",
"[. c #152784",
"{. c #142786",
"}. c #152882",
"|. c #162887",
" X c #14278C",
".X c #162888",
"XX c #162889",
"oX c #14288B",
"OX c #16288A",
"+X c #16298B",
"@X c #162A92",
"#X c #162B97",
"$X c #142A98",
"%X c #142A99",
"&X c #152B9B",
"*X c #162C9A",
"=X c #273BA1",
"-X c #243AA3",
";X c #2D43AA",
":X c #3A4BA5",
">X c #364AAD",
",X c #414A81",
"<X c #424E8F",
"1X c #5A63A1",
"2X c #5B64A2",
"3X c #6C73A2",
"4X c #6F75A3",
"5X c #908E9D",
"6X c #A79688",
"7X c #B69984",
"8X c #9699B4",
"9X c #9FA1AA",
"0X c #AFACA8",
"qX c #B3ADA6",
"wX c #BCBCBB",
"eX c #CAA082",
"rX c #D0AB91",
"tX c #C5BCB3",
"yX c #DBD3CE",
"uX c #D7D3D1",
"iX c None",
/* pixels */
"iXiXiXiXiXiXiXiXiXiXiXiXiXiXiXiXiXiXiXiXiXiXiXiXiXiXiXiXiXiXiXiX",
"iXiXiXiXiXiXiXiXiXiXiXiXiXiXiXiXiXiXiXiXiXiXiXiXiXiXiXiXiXiXiXiX",
"iXiXiXiXiXiXiXiXiXiXiXiXiXiXiXiXiXiXiXiXiXiXiXiXiXiXiXiXiXiXiXiX",
"iXiXiXiXiXiXiXiXiXiXiXiXiXiXiXiXiXiXiXiXiXiXiXiXiXiXiXiXiXiXiXiX",
"iXiXiXiXiXiXiXiXiXiXiXiXiXiXiXiXiXiXiXiXiXiXiXiXiXiXiXiXiXiXiXiX",
"iXiXiXiXiXiXiXiXiXiXiXiXiXiXiXiXiXiXiXiXiXiXiXiXiXiXiXiXiXiXiXiX",
"iXiXiXiXiXiXiXiXiXiXiXiXiXiXiXiXiXiXN B iXiX} iXiXiXiXiXiXiXiXiX",
"iXiXiXiXiXiXiXiXiXiXiXiXiXiXiXiXiXn 1 , ] E.Y.~.iXiXiXiXiXiXiXiX",
"iXiXiXiXiXiXiXiXiXiXiXiXiXiXiXiXG 2 O w u.P.U.iXiXiXiXiXiXiXiXiX",
"iXiXiXiXiXiXiXiXiXiXiXiXiXiXiXiXj e X :.oXk.^ iXiXiXiXiXiXiXiXiX",
"iXiXiXiXiXiXiXiXiXiXiXiXiXiXiXF g # r D.v.O.y.Q.iXiXiXiXiXiXiXiX",
"iXiXiXiXiXiXiXiXiXiXiXiXiXiXiXS a X ..N.+.&.' iXiXiXiXiXiXiXiXiX",
"iXiXiXiXiXiXiXiXiXiXiXiXiXiXZ h % 0 M.$.3.d.) !.iXiXiXiXiXiXiXiX",
"iXiXiXiXiXiXiXiXiXiXiXiXiXiXA f o t b.#.w.<.` iXiXiXiXiXiXiXiXiX",
"iXiXiXiXiXiXiXiXiXiXiXiXiXL z = 8 V.m.,.B.j.( !.iXiXiXiXiXiXiXiX",
"iXiXiXiXiXiXiXiXiXiXiXiXiXm d + u +X:.e.1.>._ iXiXiXiXiXiXiXiXiX",
"iXiXiXiXiXiXiXiXI C E iXK l 9 $ 4.[.;.f.6.c P iXiXiXiXiXiXiXiXiX",
"iXiXiXiXiXiXiXY L.A.G.I.< > - 7 l.:.s.5.@.5 iXiXiXiXiXiXiXiXiXiX",
"iXiXiXiXiXiXiX^.K.q XXq.;   @ k.}.%.n.n.6.b U iXiXiXiXiXiXiXiXiX",
"iXiXiXiXiXiXiX`.4 T. XZ.=.*  .S.g.o.i.-.y 3 iXiXiXiXiXiXiXiXiXiX",
"iXiXiXiXiXiXiXR R.9XW.<X,XH.p.|.h.*.7.s . : ~ [ iXiXiXiXiXiXiXiX",
"iXiXiXiXiXiXiXiX].yXwX0X5X:X#X.Xx.0.2.i 6 | r.Q W T iXiXiXiXiXiX",
"iXiXiXiXiXiXiXiXiXeXuXqX2X-X@XC.c.9.X.& p x D M iXiXiXiXiXiXiXiX",
"iXiXiXiXiXiXiXiXiX_.rXtX1X>X*X&XOXF.z.8.v V iXiXiXiXiXiXiXiXiXiX",
"iXiXiXiXiXiXiXiXiXiX(.7X8X3X=X$X%X{.a.t.J iXiXiXiXiXiXiXiXiXiXiX",
"iXiXiXiXiXiXiXiXiXiXiX).'.6X4X;X;XJ.k H iXiXiXiXiXiXiXiXiXiXiXiX",
"iXiXiXiXiXiXiXiXiXiXiXiXiX/.{ / / ! iXiXiXiXiXiXiXiXiXiXiXiXiXiX",
"iXiXiXiXiXiXiXiXiXiXiXiXiXiXiXiXiXiXiXiXiXiXiXiXiXiXiXiXiXiXiXiX",
"iXiXiXiXiXiXiXiXiXiXiXiXiXiXiXiXiXiXiXiXiXiXiXiXiXiXiXiXiXiXiXiX",
"iXiXiXiXiXiXiXiXiXiXiXiXiXiXiXiXiXiXiXiXiXiXiXiXiXiXiXiXiXiXiXiX",
"iXiXiXiXiXiXiXiXiXiXiXiXiXiXiXiXiXiXiXiXiXiXiXiXiXiXiXiXiXiXiXiX",
"iXiXiXiXiXiXiXiXiXiXiXiXiXiXiXiXiXiXiXiXiXiXiXiXiXiXiXiXiXiXiXiX"
};
