/* XPM */
static char *result[] = {
/* columns rows colors chars-per-pixel */
"32 32 125 2 ",
"   c #0D0C18",
".  c #1B131F",
"X  c #311F1D",
"o  c #0E122B",
"O  c #1B182F",
"+  c #0B1232",
"@  c #1A1B3D",
"#  c #2E1E29",
"$  c #242639",
"%  c #28203C",
"&  c #29203C",
"*  c #431B00",
"=  c #471C00",
"-  c #532203",
";  c #542406",
":  c #582300",
">  c #592300",
",  c #58260A",
"<  c #5C290C",
"1  c #462111",
"2  c #592A15",
"3  c #662A02",
"4  c #6C2B00",
"5  c #6E2D03",
"6  c #6B2E09",
"7  c #6A2E0A",
"8  c #732F00",
"9  c #723006",
"0  c #753404",
"q  c #6B3214",
"w  c #65311C",
"e  c #7A3815",
"r  c #4A2822",
"t  c #4B3929",
"y  c #4D2B30",
"u  c #4F2F3A",
"i  c #522E30",
"p  c #6A3626",
"a  c #6B382B",
"s  c #6E392A",
"d  c #6E392C",
"f  c #6E3A2D",
"g  c #713A2B",
"h  c #763B2D",
"j  c #613635",
"k  c #6A3937",
"l  c #071347",
"z  c #121A43",
"x  c #1B1E45",
"c  c #131C4B",
"v  c #1B1E4C",
"b  c #121D54",
"n  c #141E57",
"m  c #141F5B",
"M  c #1E2152",
"N  c #192156",
"B  c #1B2259",
"V  c #252147",
"C  c #362749",
"Z  c #232457",
"A  c #202358",
"S  c #162264",
"D  c #162267",
"F  c #1F2460",
"G  c #182366",
"H  c #1D2566",
"J  c #132068",
"K  c #162269",
"L  c #15236D",
"P  c #16246E",
"I  c #162471",
"U  c #162572",
"Y  c #162576",
"T  c #1F2B71",
"R  c #1F2972",
"E  c #16267B",
"W  c #1F2A7D",
"Q  c #202667",
"!  c #2B2865",
"~  c #342D64",
"^  c #242A70",
"/  c #2A2B70",
"(  c #2B2D7A",
")  c #302E74",
"_  c #402D4E",
"`  c #4D3043",
"'  c #4B3046",
"]  c #4A304C",
"[  c #523344",
"{  c #573548",
"}  c #3E4161",
"|  c #873F1A",
" . c #8A4019",
".. c #9B4C13",
"X. c #864022",
"o. c #874122",
"O. c #844024",
"+. c #AD622D",
"@. c #CA6417",
"#. c #9A6640",
"$. c #807E7D",
"%. c #142680",
"&. c #142681",
"*. c #162680",
"=. c #162783",
"-. c #162882",
";. c #162886",
":. c #1E2D82",
">. c #1F2C8C",
",. c #152A91",
"<. c #152992",
"1. c #152A92",
"2. c #142A95",
"3. c #152A96",
"4. c #152B99",
"5. c #7D7F8B",
"6. c #5763A1",
"7. c #9A9692",
"8. c #A0A1A8",
"9. c #A2A3A9",
"0. c #C3A088",
"q. c #D6BEAD",
"w. c #C6C6C6",
"e. c #CFCDCD",
"r. c None",
/* pixels */
"r.r.r.r.r.r.r.r.r.r.r.r.r.r.r.r.r.r.r.r.r.r.r.r.r.r.r.r.r.r.r.r.",
"r.r.r.r.r.r.r.r.r.r.r.r.r.r.r.r.r.r.r.r.r.r.r.r.r.r.r.r.r.r.r.r.",
"r.r.r.r.r.r.r.r.r.r.r.r.r.r.r.r.r.r.r.r.r.r.r.r.r.r.r.r.r.r.r.r.",
"r.r.r.r.r.r.r.r.r.r.r.r.r.r.r.r.r.r.r.r.r.r.r.r.r.r.r.r.r.r.r.r.",
"r.r.r.r.r.r.r.r.r.r.r.r.r.r.r.r.r.r.r.r.r.r.r.r.r.r.r.r.r.r.r.r.",
"r.r.r.r.r.r.r.r.r.r.r.r.r.r.r.r.r.r.r.r.r.r.r.r.r.r.r.r.r.r.r.r.",
"r.r.r.r.r.r.r.r.r.r.r.r.r.r.r.r.r.r.r.r.r.r.r.r.r.r.r.r.r.r.r.r.",
"r.r.r.r.r.r.r.r.r.r.r.r.r.r.r.r.r.r.r.r.r.r.r.r.r.r.r.r.r.r.r.r.",
"r.r.r.r.r.r.r.r.r.r.r.r.r.r.r.r.r.r.r.r.r.r.r.r.r.r.r.r.r.r.r.r.",
"r.r.r.r.r.r.r.r.r.r.r.r.r.r.r.r.r.r.r.r.r.r.r.r.r.r.r.r.r.r.r.r.",
"r.r.r.r.r.r.r.r.4 > 6 r.r.r.r.r.r.r.r.r.r.r.r.r.r.r.r.r.r.r.r.r.",
"r.r.r.r.r.r.r.r.] ! C k r.r.r.r.r.r.r.r.r.r.r.r.r.r.r.r.r.r.r.r.",
"r.r.r.r.r.r.r.h ) l &.` r.r.r.r.r.r.r.r.r.r.r.r.r.r.r.r.r.r.r.r.",
"r.r.r.r.r.r.r.@.X $ 2./ j X.r.r.r.r.r.r.r.r.r.r.r.r.r.r.r.r.r.r.",
"r.r.r.r.r.r.r.0 t 5.T :.^ _ a s d f p ; - w g O.r.r.r.r.r.r.r.r.",
"r.r.r.r.r.r.r...0.e.9.8.6.N x M W >.R H v @ Z ' e 8 r.r.r.r.r.r.",
"r.r.r.r.r.r.r.r.+.q.w.7.} J <.1.3.-.D c z   # , 5 r.r.r.r.r.r.r.",
"r.r.r.r.r.r.r.r.r.#.$.o G ,.4.=.=.Y U n . * 3 r.r.r.r.r.r.r.r.r.",
"r.r.r.r.r.r.r.r.r.1 + m *.4.;.E E P S O = r.r.r.r.r.r.r.r.r.r.r.",
"r.r.r.r.r.r.r.r.9 { ( F K %.I L L b A r r.r.r.r.r.r.r.r.r.r.r.r.",
"r.r.r.r.r.r.r.r.r.o.q i ~ B Q & V % u r.r.r.r.r.r.r.r.r.r.r.r.r.",
"r.r.r.r.r.r.r.r.r.r.r.r.7 [ y : 2 < | r.r.r.r.r.r.r.r.r.r.r.r.r.",
"r.r.r.r.r.r.r.r.r.r.r.r.r. .r.r.r.r.r.r.r.r.r.r.r.r.r.r.r.r.r.r.",
"r.r.r.r.r.r.r.r.r.r.r.r.r.r.r.r.r.r.r.r.r.r.r.r.r.r.r.r.r.r.r.r.",
"r.r.r.r.r.r.r.r.r.r.r.r.r.r.r.r.r.r.r.r.r.r.r.r.r.r.r.r.r.r.r.r.",
"r.r.r.r.r.r.r.r.r.r.r.r.r.r.r.r.r.r.r.r.r.r.r.r.r.r.r.r.r.r.r.r.",
"r.r.r.r.r.r.r.r.r.r.r.r.r.r.r.r.r.r.r.r.r.r.r.r.r.r.r.r.r.r.r.r.",
"r.r.r.r.r.r.r.r.r.r.r.r.r.r.r.r.r.r.r.r.r.r.r.r.r.r.r.r.r.r.r.r.",
"r.r.r.r.r.r.r.r.r.r.r.r.r.r.r.r.r.r.r.r.r.r.r.r.r.r.r.r.r.r.r.r.",
"r.r.r.r.r.r.r.r.r.r.r.r.r.r.r.r.r.r.r.r.r.r.r.r.r.r.r.r.r.r.r.r.",
"r.r.r.r.r.r.r.r.r.r.r.r.r.r.r.r.r.r.r.r.r.r.r.r.r.r.r.r.r.r.r.r.",
"r.r.r.r.r.r.r.r.r.r.r.r.r.r.r.r.r.r.r.r.r.r.r.r.r.r.r.r.r.r.r.r."
};
