/* XPM */
static char *result[] = {
/* columns rows colors chars-per-pixel */
"32 32 150 2 ",
"   c #18121D",
".  c #2E170F",
"X  c #090F29",
"o  c #191B27",
"O  c #0C1231",
"+  c #0C1335",
"@  c #3B242C",
"#  c #3C252E",
"$  c #362536",
"%  c #38263F",
"&  c #5A2500",
"*  c #5F2400",
"=  c #55250B",
"-  c #52260F",
";  c #4E2515",
":  c #482C15",
">  c #4A261B",
",  c #5C2A14",
"<  c #542919",
"1  c #54281A",
"2  c #632700",
"3  c #642900",
"4  c #662B06",
"5  c #6A2A00",
"6  c #6A2C02",
"7  c #6D2E05",
"8  c #642C0C",
"9  c #732F00",
"0  c #6D341D",
"q  c #793A1F",
"w  c #482724",
"e  c #42262A",
"r  c #4A2C28",
"t  c #48292F",
"y  c #532A23",
"u  c #512B2C",
"i  c #532D2D",
"p  c #552F36",
"a  c #5B343A",
"s  c #6B382F",
"d  c #733A27",
"f  c #723A28",
"g  c #733A28",
"h  c #653839",
"j  c #081757",
"k  c #101C53",
"l  c #131D52",
"z  c #131E56",
"x  c #121E57",
"c  c #121E58",
"v  c #121E59",
"b  c #131E5A",
"n  c #141F58",
"m  c #141F59",
"M  c #141F5A",
"N  c #1E2153",
"B  c #1D2156",
"V  c #17205B",
"C  c #16205D",
"Z  c #14205F",
"A  c #16215F",
"S  c #1F235C",
"D  c #262142",
"F  c #252245",
"G  c #272146",
"H  c #2E2341",
"J  c #382742",
"K  c #362749",
"L  c #262350",
"P  c #262552",
"I  c #292750",
"U  c #27275A",
"Y  c #28275C",
"T  c #312852",
"R  c #372A57",
"E  c #0D1F6E",
"W  c #132166",
"Q  c #152266",
"!  c #152368",
"~  c #15236C",
"^  c #1C296A",
"/  c #1D2A6D",
"(  c #0E2076",
")  c #152372",
"_  c #152470",
"`  c #162473",
"'  c #162575",
"]  c #152477",
"[  c #162578",
"{  c #14257A",
"}  c #16257A",
"|  c #12247C",
" . c #13257D",
".. c #13267C",
"X. c #17267D",
"o. c #1C297A",
"O. c #292860",
"+. c #242869",
"@. c #282B6A",
"#. c #282B6D",
"$. c #242971",
"%. c #252A77",
"&. c #282D79",
"*. c #233077",
"=. c #412D4D",
"-. c #432E4D",
";. c #452F4C",
":. c #41326A",
">. c #6D6671",
",. c #727276",
"<. c #934205",
"1. c #864020",
"2. c #854022",
"3. c #AF632E",
"4. c #AF6531",
"5. c #D36717",
"6. c #996947",
"7. c #B37040",
"8. c #B08669",
"9. c #132683",
"0. c #152782",
"q. c #142785",
"w. c #162884",
"e. c #152887",
"r. c #162987",
"t. c #15298B",
"y. c #15298C",
"u. c #15298D",
"i. c #162A8E",
"p. c #152A94",
"a. c #142A95",
"s. c #142B98",
"d. c #152B98",
"f. c #272E82",
"g. c #23389E",
"h. c #36459C",
"j. c #72759D",
"k. c #70749E",
"l. c #626DA6",
"z. c #7377A1",
"x. c #9496A3",
"c. c #999BA5",
"v. c #B1ADA6",
"b. c #D3B59F",
"n. c #C9B5A3",
"m. c #CBC5BE",
"M. c #D8C1B1",
"N. c #CECCCB",
"B. c #D2D1D0",
"V. c None",
/* pixels */
"V.V.V.V.V.V.V.V.V.V.V.V.V.V.V.V.V.V.V.V.V.V.V.V.V.V.V.V.V.V.V.V.",
"V.V.V.V.V.V.V.V.V.V.V.V.V.V.V.V.V.V.V.V.V.V.V.V.V.V.V.V.V.V.V.V.",
"V.V.V.V.V.V.V.V.V.V.V.V.V.V.V.V.V.V.V.V.V.V.V.V.V.V.V.V.V.V.V.V.",
"V.V.V.V.V.V.V.V.V.V.V.V.V.V.V.V.V.V.V.V.V.V.V.V.V.V.V.V.V.V.V.V.",
"V.V.V.V.V.V.V.V.V.V.V.V.V.V.V.V.V.V.V.V.V.V.V.V.V.V.V.V.V.V.V.V.",
"V.V.V.V.V.V.V.V.V.V.V.V.V.V.V.V.V.V.V.V.V.V.V.V.V.V.V.V.V.V.V.V.",
"V.V.V.V.V.V.V.V.V.V.V.V.V.V.V.V.V.V.V.V.V.V.V.V.V.V.V.V.V.V.V.V.",
"V.V.V.V.V.V.V.V.V.V.V.V.V.V.V.V.V.V.V.V.V.V.V.V.V.V.V.V.V.V.V.V.",
"V.V.V.V.V.V.V.V.V.V.V.V.V.V.V.V.V.V.V.V.V.V.3 * V.V.V.V.V.V.V.V.",
"V.V.V.V.V.V.V.V.V.V.V.V.V.V.V.V.V.V.V.V.V.h % R p V.V.V.V.V.V.V.",
"V.V.V.V.V.V.V.V.V.V.V.V.V.V.V.V.V.V.V.V.V.=.| j :.V.V.V.V.V.V.V.",
"V.V.V.V.V.V.V.V.V.V.V.V.V.V.V.V.V.V.V.1.a %.i.o r 5.V.V.V.V.V.V.",
"V.V.V.V.V.V.V.V.V.2.g f f f f f f d s -.$.X.*.,.: <.V.V.V.V.V.V.",
"V.V.V.V.V.V.V.9 q ;.O.P U #.f.&.@.Y I h.l.x.c.N.8.V.V.V.V.V.V.V.",
"V.V.V.V.V.V.V.V.7 ; F X + l ] s.a.) x g.z.v.B.b.3.V.V.V.V.V.V.V.",
"V.V.V.V.V.V.V.V.V.V.<   O C Z d.d.p.9./ k.m.M.4.V.V.V.V.V.V.V.V.",
"V.V.V.V.V.V.V.V.V.V.V.> B _ ' t.y.r.q.^ j.n.7.V.V.V.V.V.V.V.V.V.",
"V.V.V.V.V.V.V.V.V.V.V.& H b 0.} r.u.w.( >.6.V.V.V.V.V.V.V.V.V.V.",
"V.V.V.V.V.V.V.V.V.V.V.V.w S ! W [ e.` E . V.V.V.V.V.V.V.V.V.V.V.",
"V.V.V.V.V.V.V.V.V.V.V.V.6 # V M m { m ..K V.V.V.V.V.V.V.V.V.V.V.",
"V.V.V.V.V.V.V.V.V.V.V.V.V.= N z n Q ~ c T , V.V.V.V.V.V.V.V.V.V.",
"V.V.V.V.V.V.V.V.V.V.V.V.V.4 e G A k  .v o.u V.V.V.V.V.V.V.V.V.V.",
"V.V.V.V.V.V.V.V.V.V.V.V.V.V.5 1 @ $ +.L D J V.V.V.V.V.V.V.V.V.V.",
"V.V.V.V.V.V.V.V.V.V.V.V.V.V.V.V.2 0 i y - t 8 V.V.V.V.V.V.V.V.V.",
"V.V.V.V.V.V.V.V.V.V.V.V.V.V.V.V.V.V.V.V.V.V.V.V.V.V.V.V.V.V.V.V.",
"V.V.V.V.V.V.V.V.V.V.V.V.V.V.V.V.V.V.V.V.V.V.V.V.V.V.V.V.V.V.V.V.",
"V.V.V.V.V.V.V.V.V.V.V.V.V.V.V.V.V.V.V.V.V.V.V.V.V.V.V.V.V.V.V.V.",
"V.V.V.V.V.V.V.V.V.V.V.V.V.V.V.V.V.V.V.V.V.V.V.V.V.V.V.V.V.V.V.V.",
"V.V.V.V.V.V.V.V.V.V.V.V.V.V.V.V.V.V.V.V.V.V.V.V.V.V.V.V.V.V.V.V.",
"V.V.V.V.V.V.V.V.V.V.V.V.V.V.V.V.V.V.V.V.V.V.V.V.V.V.V.V.V.V.V.V.",
"V.V.V.V.V.V.V.V.V.V.V.V.V.V.V.V.V.V.V.V.V.V.V.V.V.V.V.V.V.V.V.V.",
"V.V.V.V.V.V.V.V.V.V.V.V.V.V.V.V.V.V.V.V.V.V.V.V.V.V.V.V.V.V.V.V."
};
