/* XPM */
static char *result[] = {
/* columns rows colors chars-per-pixel */
"32 32 123 2 ",
"   c #3A1701",
".  c #3C1902",
"X  c #0D0E21",
"o  c #121527",
"O  c #101129",
"+  c #17152A",
"@  c #191A3C",
"#  c #1A1B3C",
"$  c #261924",
"%  c #1F212B",
"&  c #522203",
"*  c #572300",
"=  c #5D2500",
"-  c #56260A",
";  c #50250F",
":  c #4C2B1D",
">  c #512611",
",  c #592910",
"<  c #4C311C",
"1  c #632902",
"2  c #632903",
"3  c #6A2C02",
"4  c #6C2D02",
"5  c #692E0C",
"6  c #732F00",
"7  c #753102",
"8  c #73320A",
"9  c #602D16",
"0  c #72371B",
"q  c #78391D",
"w  c #41272D",
"e  c #562B22",
"r  c #472C3D",
"t  c #4D2D39",
"y  c #512F3E",
"u  c #54313C",
"i  c #56333E",
"p  c #5F3539",
"a  c #5F363D",
"s  c #6E3929",
"d  c #6C382A",
"f  c #6F3A2B",
"g  c #6E392C",
"h  c #6E392D",
"j  c #663730",
"k  c #07144A",
"l  c #121A46",
"z  c #1A1D44",
"x  c #131C4E",
"c  c #121D56",
"v  c #131F5A",
"b  c #1D204D",
"n  c #1C2051",
"m  c #15205F",
"M  c #1B2159",
"N  c #1D225A",
"B  c #18225D",
"V  c #262041",
"C  c #292143",
"Z  c #30254B",
"A  c #3D2D4F",
"S  c #202252",
"D  c #392C53",
"F  c #121E60",
"G  c #162162",
"H  c #1D2763",
"J  c #162268",
"K  c #15236B",
"L  c #16236C",
"P  c #16246D",
"I  c #1D2568",
"U  c #1E2668",
"Y  c #152470",
"T  c #162472",
"R  c #162572",
"E  c #162577",
"W  c #1F2977",
"Q  c #11247E",
"!  c #16267C",
"~  c #16267F",
"^  c #1D2B7D",
"/  c #212566",
"(  c #2F2A68",
")  c #3C2F61",
"_  c #202875",
"`  c #222C79",
"'  c #222A7C",
"]  c #302F77",
"[  c #2A3576",
"{  c #402D4E",
"}  c #40326B",
"|  c #55556A",
" . c #813803",
".. c #803B15",
"X. c #823F23",
"o. c #813F25",
"O. c #8A4221",
"+. c #92562B",
"@. c #A95A22",
"#. c #D76814",
"$. c #BA8D6E",
"%. c #142680",
"&. c #162781",
"*. c #152987",
"=. c #162889",
"-. c #15288B",
";. c #15298D",
":. c #172B8E",
">. c #1F2D8D",
",. c #152A93",
"<. c #152A95",
"1. c #152B98",
"2. c #152B9A",
"3. c #7E7F82",
"4. c #6A73A6",
"5. c #98918B",
"6. c #A09C99",
"7. c #A1A2A8",
"8. c #A6A7AD",
"9. c #CFAD95",
"0. c #D1CFCE",
"q. c #D4D0CD",
"w. c None",
/* pixels */
"w.w.w.w.w.w.w.w.w.w.w.w.w.w.w.w.w.w.w.w.w.w.w.w.w.w.w.w.w.w.w.w.",
"w.w.w.w.w.w.w.w.w.w.w.w.w.w.w.w.w.w.w.w.w.w.w.w.w.w.w.w.w.w.w.w.",
"w.w.w.w.w.w.w.w.w.w.w.w.w.w.w.w.w.w.w.w.w.w.w.w.w.w.w.w.w.w.w.w.",
"w.w.w.w.w.w.w.w.w.w.w.w.w.w.w.w.w.w.w.w.w.w.w.w.w.w.w.w.w.w.w.w.",
"w.w.w.w.w.w.w.w.w.w.w.w.w.w.w.w.w.w.w.w.w.w.w.w.w.w.w.w.w.w.w.w.",
"w.w.w.w.w.w.w.w.w.w.w.w.w.w.w.w.w.w.w.w.w.w.w.w.w.w.w.w.w.w.w.w.",
"w.w.w.w.w.w.w.w.w.w.w.w.w.w.w.w.w.w.w.w.w.w.w.w.w.w.w.w.w.w.w.w.",
"w.w.w.w.w.w.w.w.w.w.w.w.w.w.w.w.w.w.w.w.w.w.w.w.w.w.w.w.w.w.w.w.",
"w.w.w.w.w.w.w.w.w.w.w.w.w.w.w.w.w.w.w.w.w.w.w.w.w.w.w.w.w.w.w.w.",
"w.w.w.w.w.w.w.w.w.w.w.w.w.w.w.w.w.w.w.w.w.w.w.w.w.w.w.w.w.w.w.w.",
"w.w.w.w.w.w.w.w.w.w.w.w.w.w.w.w.w.w.w.w.w.w.2 = w.w.w.w.w.w.w.w.",
"w.w.w.w.w.w.w.w.w.w.w.w.w.w.w.w.w.w.w.w.w.a Z ( y w.w.w.w.w.w.w.",
"w.w.w.w.w.w.w.w.w.w.w.w.w.w.w.w.w.w.w.w.w.A Q k } w.w.w.w.w.w.w.",
"w.w.w.w.w.w.w.w.w.w.w.w.w.w.w.w.w.w.w.X.i ' :.% : #.w.w.w.w.w.w.",
"w.w.w.w.w.w.w.w.w.o.f 9 & - d h g s j D ` ^ [ 3.<  .w.w.w.w.w.w.",
"w.w.w.w.w.w.w.6 q { S # n I W >._ b z H 4.7.8.q.$.w.w.w.w.w.w.w.",
"w.w.w.w.w.w.w.w.4 > $ X l x L *.<.,.;.F | 6.0.9.@.w.w.w.w.w.w.w.",
"w.w.w.w.w.w.w.w.w.w.1   + m R ! ~ =.2.-.B o 5.+.w.w.w.w.w.w.w.w.",
"w.w.w.w.w.w.w.w.w.w.w.w.. @ J P &.E ;.1.E c O ; w.w.w.w.w.w.w.w.",
"w.w.w.w.w.w.w.w.w.w.w.w.3 w M v K Y T %.G / ] p w.w.w.w.w.w.w.w.",
"w.w.w.w.w.w.w.w.w.w.w.w.w.5 r V V C U N ) e 0 O.w.w.w.w.w.w.w.w.",
"w.w.w.w.w.w.w.w.w.w.w.w.w.w..., , * t u 8 w.w.w.w.w.w.w.w.w.w.w.",
"w.w.w.w.w.w.w.w.w.w.w.w.w.w.w.w.w.w.7 w.w.w.w.w.w.w.w.w.w.w.w.w.",
"w.w.w.w.w.w.w.w.w.w.w.w.w.w.w.w.w.w.w.w.w.w.w.w.w.w.w.w.w.w.w.w.",
"w.w.w.w.w.w.w.w.w.w.w.w.w.w.w.w.w.w.w.w.w.w.w.w.w.w.w.w.w.w.w.w.",
"w.w.w.w.w.w.w.w.w.w.w.w.w.w.w.w.w.w.w.w.w.w.w.w.w.w.w.w.w.w.w.w.",
"w.w.w.w.w.w.w.w.w.w.w.w.w.w.w.w.w.w.w.w.w.w.w.w.w.w.w.w.w.w.w.w.",
"w.w.w.w.w.w.w.w.w.w.w.w.w.w.w.w.w.w.w.w.w.w.w.w.w.w.w.w.w.w.w.w.",
"w.w.w.w.w.w.w.w.w.w.w.w.w.w.w.w.w.w.w.w.w.w.w.w.w.w.w.w.w.w.w.w.",
"w.w.w.w.w.w.w.w.w.w.w.w.w.w.w.w.w.w.w.w.w.w.w.w.w.w.w.w.w.w.w.w.",
"w.w.w.w.w.w.w.w.w.w.w.w.w.w.w.w.w.w.w.w.w.w.w.w.w.w.w.w.w.w.w.w.",
"w.w.w.w.w.w.w.w.w.w.w.w.w.w.w.w.w.w.w.w.w.w.w.w.w.w.w.w.w.w.w.w."
};
