/* XPM */
static char *result[] = {
/* columns rows colors chars-per-pixel */
"32 32 187 2 ",
"   c #29171C",
".  c #090D28",
"X  c #0A102E",
"o  c #131432",
"O  c #121734",
"+  c #13183D",
"@  c #151B3E",
"#  c #2D1C26",
"$  c #38242C",
"%  c #3A2532",
"&  c #3C2636",
"*  c #32243B",
"=  c #32243D",
"-  c #3D273A",
";  c #4C220D",
":  c #5A2501",
">  c #5F2500",
",  c #50240E",
"<  c #5C2A0E",
"1  c #512713",
"2  c #642700",
"3  c #662B04",
"4  c #682B01",
"5  c #632B09",
"6  c #602B0D",
"7  c #682C08",
"8  c #682C09",
"9  c #682D0A",
"0  c #602D19",
"q  c #452626",
"w  c #442528",
"e  c #592C21",
"r  c #5A2F27",
"t  c #512B2A",
"y  c #5B3333",
"u  c #5B3335",
"i  c #57323A",
"p  c #5A3439",
"a  c #5F363B",
"s  c #6F3A2C",
"d  c #6C392F",
"f  c #723D22",
"g  c #7C3D24",
"h  c #743C2E",
"j  c #753C2F",
"k  c #7A3D29",
"l  c #7A3E2F",
"z  c #603530",
"x  c #673835",
"c  c #693935",
"v  c #6F3B34",
"b  c #6E3A35",
"n  c #62373C",
"m  c #793E32",
"M  c #7A3F33",
"N  c #703E3E",
"B  c #121945",
"V  c #121A44",
"C  c #1C1C41",
"Z  c #12194A",
"A  c #141C4F",
"S  c #1A1F4F",
"D  c #131D53",
"F  c #131E57",
"G  c #141D54",
"H  c #151E56",
"J  c #161F57",
"K  c #131E58",
"L  c #101E5B",
"P  c #161F58",
"I  c #141F5B",
"U  c #121E5C",
"Y  c #141F5C",
"T  c #1D2153",
"R  c #1F2253",
"E  c #182057",
"W  c #1F2255",
"Q  c #13205D",
"!  c #16205C",
"~  c #282141",
"^  c #2A2447",
"/  c #242349",
"(  c #27244F",
")  c #2B234B",
"_  c #2D274F",
"`  c #2F274F",
"'  c #302541",
"]  c #362641",
"[  c #242353",
"{  c #272553",
"}  c #2C2754",
"|  c #242458",
" . c #332A5B",
".. c #352C5B",
"X. c #111F62",
"o. c #121E62",
"O. c #101F64",
"+. c #162160",
"@. c #162161",
"#. c #162261",
"$. c #142163",
"%. c #172162",
"&. c #142265",
"*. c #1D2364",
"=. c #1B2666",
"-. c #1E2567",
";. c #12216A",
":. c #162268",
">. c #14226B",
",. c #12216F",
"<. c #14226D",
"1. c #17236C",
"2. c #14236F",
"3. c #17246E",
"4. c #17246F",
"5. c #18236A",
"6. c #19246A",
"7. c #172670",
"8. c #142377",
"9. c #152474",
"0. c #162574",
"q. c #142478",
"w. c #152579",
"e. c #14257A",
"r. c #2C2A64",
"t. c #352E65",
"y. c #36306F",
"u. c #2D2C70",
"i. c #363071",
"p. c #3E397B",
"a. c #422E4B",
"s. c #452F4B",
"d. c #49314C",
"f. c #513242",
"g. c #52354F",
"h. c #54354C",
"j. c #413057",
"k. c #453157",
"l. c #46325B",
"z. c #543651",
"x. c #573752",
"c. c #653A41",
"v. c #453360",
"b. c #4F3660",
"n. c #3F4153",
"m. c #5A454B",
"M. c #4B4053",
"N. c #46485A",
"B. c #664864",
"V. c #803E23",
"C. c #813F24",
"Z. c #8B4221",
"A. c #8F4525",
"S. c #844128",
"D. c #824438",
"F. c #82453D",
"G. c #9A5733",
"H. c #A9693B",
"J. c #AA6E43",
"K. c #AE8364",
"L. c #AE8467",
"P. c #CF8F55",
"I. c #1E2F88",
"U. c #192A8E",
"Y. c #122A9B",
"T. c #142B99",
"R. c #122A9C",
"E. c #26378E",
"W. c #353880",
"Q. c #888988",
"!. c #89888B",
"~. c #928F8A",
"^. c #928C8E",
"/. c #8C8C96",
"(. c #BBA89C",
"). c #ABA4A3",
"_. c #A8A6AA",
"`. c #CBBCB2",
"'. c #C1BCBC",
"]. c #DDDDDC",
"[. c #DDDDDD",
"{. c #DFDEDD",
"}. c #DFE1E2",
"|. c #E1E1E1",
" X c #E0E2E4",
".X c #E1E4E5",
"XX c None",
/* pixels */
"XXXXXXXXXXXXXXXXXXXXXXXXXXXXXXXXXXXXXXXXXXXXXXXXXXXXXXXXXXXXXXXX",
"XXXXXXXXXXXXXXXXXXXXXXXXXXXXXXXXXXXXXXXXXXXXXXXXXXXXXXXXXXXXXXXX",
"XXXXXXXXXXXXXXXXXXXXXXXXXXXXXXXXXXXXXXXXXXXXXXXXXXXXXXXXXXXXXXXX",
"XXXXXXXXXXXXXXXXXXXXXXXXXXXXXXXXXXXXXXXXXXXXXXXXXXXXXXXXXXXXXXXX",
"XXXXXXXXXXXXXXXXXXXXXXXXXXXXXXXXXXXXXXXXXXXXXXXXXXXXXXXXXXXXXXXX",
"XXXXXXXXXXXXXXXXXXXXXXXXXXXXXXXXXXXXXXXXXXXXXXXXXXXXXXXXXXXXXXXX",
"XXXXXXXXXXXXXXXXXXXXA.XXXXXXXXXXXXXXXXXXXXXXA.XXXXXXXXXXXXXXXXXX",
"XXXXXXXXXXXXXXXXXXXXD.XXXXXXXXXXXXXXXXXXXXC.F.XXXXXXXXXXXXXXXXXX",
"XXXXXXXXXXXXXXXXXXM z.x XXXXXXXXXXXXXXXXXXa x.XXXXXXXXXXXXXXXXXX",
"XXXXXXXXXXXXXXXXXXb W f.XXXXXXXXZ.XXXXXXV.a.( m XXXXXXXXXXXXXXXX",
"XXXXXXXXXXXXXXXXXXz U k.XXXXXXXXg XXXXXXXXt.S d XXXXXXXXXXXXXXXX",
"XXXXXXXXXXXXXXXXXXc.9.v.XXXXXXc s.j XXXXXXi.-.N XXXXXXXXXXXXXXXX",
"XXXXXXXXXXXXXXXXS.j.;.v.XXXXXXg.U.t XXXXXXy.@.d.XXXXXXXXXXXXXXXX",
"XXXXXXXXXXXXXXXXs | O.v.XXXXXXb.R.w XXXXXXy.L ) : XXXXXXXXXXXXXX",
"XXXXXXXXXXXXXXXX9 ' I { v XXh u.T. .5 XXn R ! % 4 XXXXXXXXXXXXXX",
"XXXXXXXXXXXXXXXXXXy E >.h.XXp 5.1.*.; XXl.X.T , XXXXXXXXXXXXXXXX",
"XXXXXXXXXXXXXXXXXX6 ^ K } u _ q.%.8.  i [ Y * 3 XXXXXXXXXXXXXXXX",
"XXXXXXXXXXXXXXXXXXXX& Q w.J Z X D . A +.2.#.q XXXXXXXXXXXXXXXXXX",
"XXXXXXXXXXXXXXXXXXl r.G e.F B ,.Y.o.V $.<.H ..8 XXXXXXXXXXXXXXXX",
"XXXXXXXXXXXXXXXXXXk ] P 0.3.O C p.o @ 4.&.+ - 7 XXXXXXXXXXXXXXXX",
"XXXXXXXXXXXXXXXXXXXX< ` :.I.n.m.P.M.N.7.6.# > XXXXXXXXXXXXXXXXXX",
"XXXXXXXXXXXXXXXXXXXXXXe ~ E.!.Q..X~./.=.= 0 XXXXXXXXXXXXXXXXXXXX",
"XXXXXXXXXXXXXXXXXXXXXXXXr W.).|.[.{.^./ 1 XXXXXXXXXXXXXXXXXXXXXX",
"XXXXXXXXXXXXXXXXXXXXXXXXXXB.'.[.[.]._.$ 2 XXXXXXXXXXXXXXXXXXXXXX",
"XXXXXXXXXXXXXXXXXXXXXXXXXXG.`. X X}.(.f XXXXXXXXXXXXXXXXXXXXXXXX",
"XXXXXXXXXXXXXXXXXXXXXXXXXXXXJ.L.L.K.H.XXXXXXXXXXXXXXXXXXXXXXXXXX",
"XXXXXXXXXXXXXXXXXXXXXXXXXXXXXXXXXXXXXXXXXXXXXXXXXXXXXXXXXXXXXXXX",
"XXXXXXXXXXXXXXXXXXXXXXXXXXXXXXXXXXXXXXXXXXXXXXXXXXXXXXXXXXXXXXXX",
"XXXXXXXXXXXXXXXXXXXXXXXXXXXXXXXXXXXXXXXXXXXXXXXXXXXXXXXXXXXXXXXX",
"XXXXXXXXXXXXXXXXXXXXXXXXXXXXXXXXXXXXXXXXXXXXXXXXXXXXXXXXXXXXXXXX",
"XXXXXXXXXXXXXXXXXXXXXXXXXXXXXXXXXXXXXXXXXXXXXXXXXXXXXXXXXXXXXXXX",
"XXXXXXXXXXXXXXXXXXXXXXXXXXXXXXXXXXXXXXXXXXXXXXXXXXXXXXXXXXXXXXXX"
};
