/* XPM */
static char *result[] = {
/* columns rows colors chars-per-pixel */
"32 32 181 2 ",
"   c #0A0D1E",
".  c #0C0D1D",
"X  c #241618",
"o  c #0A0E27",
"O  c #0A0F2D",
"+  c #0F1231",
"@  c #111634",
"#  c #12173B",
"$  c #3E2637",
"%  c #34233A",
"&  c #5E2704",
"*  c #53250B",
"=  c #52250D",
"-  c #4C2416",
";  c #48241C",
":  c #502515",
">  c #52291A",
",  c #582A1B",
"<  c #602600",
"1  c #612904",
"2  c #672B05",
"3  c #652B09",
"4  c #672C09",
"5  c #793716",
"6  c #442426",
"7  c #562D2A",
"8  c #562E2F",
"9  c #5B302B",
"0  c #5A322E",
"q  c #4D2C34",
"w  c #462B3F",
"e  c #543033",
"r  c #5F3536",
"t  c #5C3439",
"y  c #7A3D27",
"u  c #7E3E26",
"i  c #753D2F",
"p  c #763D2E",
"a  c #783C28",
"s  c #7F3F28",
"d  c #623630",
"f  c #603536",
"g  c #6A3B30",
"h  c #6A3933",
"j  c #6D3C3A",
"k  c #7B4033",
"l  c #7B4035",
"z  c #141A41",
"x  c #151942",
"c  c #121A45",
"v  c #181C44",
"b  c #141B48",
"n  c #131C4E",
"m  c #131D51",
"M  c #151E53",
"N  c #131E56",
"B  c #141E55",
"V  c #141E56",
"C  c #151F56",
"Z  c #101D58",
"A  c #141E58",
"S  c #161F5A",
"D  c #161F5B",
"F  c #131F5C",
"G  c #131F5F",
"H  c #1A2057",
"J  c #1B2159",
"K  c #1A225F",
"L  c #252040",
"P  c #2E2240",
"I  c #382842",
"U  c #3F2B48",
"Y  c #36394D",
"T  c #252452",
"R  c #2F2752",
"E  c #2B2656",
"W  c #2E2854",
"Q  c #27275C",
"!  c #2B2858",
"~  c #2C285A",
"^  c #2D2A5D",
"/  c #342A56",
"(  c #352A56",
")  c #372C58",
"_  c #372C59",
"`  c #0F1E65",
"'  c #121F62",
"]  c #132062",
"[  c #162160",
"{  c #132064",
"}  c #172164",
"|  c #182161",
" . c #1F2462",
".. c #1F2563",
"X. c #182366",
"o. c #1F2667",
"O. c #122168",
"+. c #11226D",
"@. c #13226F",
"#. c #1A246A",
"$. c #1D2468",
"%. c #1D2569",
"&. c #1C256D",
"*. c #1C266C",
"=. c #1D266F",
"-. c #162471",
";. c #1F2876",
":. c #152579",
">. c #15257C",
",. c #15267F",
"<. c #19267A",
"1. c #1B287E",
"2. c #1E297C",
"3. c #22286F",
"4. c #22296F",
"5. c #322E6F",
"6. c #39316F",
"7. c #222A77",
"8. c #3E3B76",
"9. c #4D3144",
"0. c #4E324C",
"q. c #573545",
"w. c #543446",
"e. c #5D3742",
"r. c #55354B",
"t. c #433056",
"y. c #473B51",
"u. c #473358",
"i. c #4A355F",
"p. c #4F365E",
"a. c #5F3B53",
"s. c #51375D",
"d. c #553859",
"f. c #6A3B42",
"g. c #623A4B",
"h. c #613A4D",
"j. c #4B3664",
"k. c #423368",
"l. c #3D4059",
"z. c #58424A",
"x. c #754A44",
"c. c #797979",
"v. c #803E23",
"b. c #87401C",
"n. c #8B411B",
"m. c #834126",
"M. c #814028",
"N. c #84412A",
"B. c #81412E",
"V. c #85463E",
"C. c #86494C",
"Z. c #AB7146",
"A. c #AD7851",
"S. c #84807C",
"D. c #B6937B",
"F. c #B7957E",
"G. c #C68144",
"H. c #1C2C82",
"J. c #1C2A87",
"K. c #142A96",
"L. c #142B9B",
"P. c #122A9D",
"I. c #293587",
"U. c #2D3489",
"Y. c #27388F",
"T. c #818185",
"R. c #898B9D",
"E. c #928F9B",
"W. c #AAA4A3",
"Q. c #A3A2AF",
"!. c #BDAEA9",
"~. c #B9B6B8",
"^. c #CCC2BD",
"/. c #DDDCDA",
"(. c #DDDCDB",
"). c #DDDDDD",
"_. c #DFDFDF",
"`. c #E0E2E2",
"'. c #E1E2E2",
"]. c #E0E2E3",
"[. c None",
/* pixels */
"[.[.[.[.[.[.[.[.[.[.[.[.[.[.[.[.[.[.[.[.[.[.[.[.[.[.[.[.[.[.[.[.",
"[.[.[.[.[.[.[.[.[.[.[.[.[.[.[.[.[.[.[.[.[.[.[.[.[.[.[.[.[.[.[.[.",
"[.[.[.[.[.[.[.[.[.[.[.[.[.[.[.[.[.[.[.[.[.[.[.[.[.[.[.[.[.[.[.[.",
"[.[.[.[.[.[.[.[.[.[.[.[.[.[.[.[.[.[.[.[.[.[.[.[.[.[.[.[.[.[.[.[.",
"[.[.[.[.[.[.[.[.[.[.[.[.[.[.[.[.[.[.[.[.[.[.[.[.[.[.[.[.[.[.[.[.",
"[.[.[.[.[.[.[.[.[.[.[.[.[.[.[.[.[.[.[.[.[.[.[.[.[.[.[.[.[.[.[.[.",
"[.[.[.[.[.[.[.[.[.[.[.[.[.[.[.[.[.[.[.[.[.[.[.[.[.[.[.[.[.[.[.[.",
"[.[.[.[.[.[.[.[.[.[.[.[.[.[.[.[.[.[.[.[.[.[.[.[.[.[.[.[.[.[.[.[.",
"[.[.[.[.[.[.[.[.[.[.[.[.[.[.[.[.v.[.[.[.[.[.[.[.[.[.[.[.[.[.[.[.",
"[.[.[.[.[.[.[.[.[.[.[.[.[.[.[.h 9.i [.[.[.[.[.[.[.[.[.[.[.[.[.[.",
"[.[.[.[.[.[.[.[.[.[.[.[.[.[.[.r.J.7 [.[.[.[.[.[.[.[.[.[.[.[.[.[.",
"[.[.[.[.[.[.[.[.[.[.[.[.[.[.[.p.P.6 [.[.[.[.[.[.[.[.[.[.[.[.[.[.",
"[.[.[.[.[.[.[.[.[.[.[.[.[.[.p 5.L.( 3 [.[.[.[.[.[.[.[.[.[.[.[.[.",
"[.[.[.[.[.[.[.[.[.[.[.[.[.[.f #.-. .= [.[.[.[.[.[.[.[.[.[.[.[.[.",
"[.[.[.[.[.[.[.[.[.[.[.y u [.q.>.} <.- [.& 1 [.[.[.[.[.[.[.[.[.[.",
"[.[.[.[.[.[.[.[.[.M.t ~ / r P O n o % ; E R : 2 [.[.[.[.[.[.[.[.",
"[.[.[.[.[.[.[.[.k 6.H D M v b @.K.{ # . S C J U 4 [.[.[.[.[.[.[.",
"[.[.[.[.[.[.[.s k.| B ,.F [ @ x U.+ z A ' :.N 1.w [.[.[.[.[.[.[.",
"[.[.[.[.[.[.B.0.K V ;...c H.Y z.G.y.l.`   3.=.G 2.q [.[.[.[.[.[.",
"[.[.[.[.[.[.h.&.m 4.d.0 L Y.T.c.'.S.R.O.X d j.*.] 7., [.[.[.[.[.",
"[.[.[.[.[.[.t.Z %.w.[.[.e I.W._.)./.E.$.* [.m.u.X.+.$ [.[.[.[.[.",
"[.[.[.[.[.e.o.^ s.N.[.[.a 8.~.).).(.Q._ < [.[.l i.Q T > [.[.[.[.",
"[.[.[.[.V.! ) f.n.[.[.[.[.x.^.].].`.!.g [.[.[.[.b.g.W I 5 [.[.[.",
"[.[.[.[.C.a.j [.[.[.[.[.[.[.A.F.F.D.Z.[.[.[.[.[.[.[.9 8 [.[.[.[.",
"[.[.[.[.[.[.[.[.[.[.[.[.[.[.[.[.[.[.[.[.[.[.[.[.[.[.[.[.[.[.[.[.",
"[.[.[.[.[.[.[.[.[.[.[.[.[.[.[.[.[.[.[.[.[.[.[.[.[.[.[.[.[.[.[.[.",
"[.[.[.[.[.[.[.[.[.[.[.[.[.[.[.[.[.[.[.[.[.[.[.[.[.[.[.[.[.[.[.[.",
"[.[.[.[.[.[.[.[.[.[.[.[.[.[.[.[.[.[.[.[.[.[.[.[.[.[.[.[.[.[.[.[.",
"[.[.[.[.[.[.[.[.[.[.[.[.[.[.[.[.[.[.[.[.[.[.[.[.[.[.[.[.[.[.[.[.",
"[.[.[.[.[.[.[.[.[.[.[.[.[.[.[.[.[.[.[.[.[.[.[.[.[.[.[.[.[.[.[.[.",
"[.[.[.[.[.[.[.[.[.[.[.[.[.[.[.[.[.[.[.[.[.[.[.[.[.[.[.[.[.[.[.[.",
"[.[.[.[.[.[.[.[.[.[.[.[.[.[.[.[.[.[.[.[.[.[.[.[.[.[.[.[.[.[.[.[."
};
