/* XPM */
static char *result[] = {
/* columns rows colors chars-per-pixel */
"32 32 162 2 ",
"   c #3A1B0D",
".  c #090E2C",
"X  c #0A1031",
"o  c #0C1133",
"O  c #0F1532",
"+  c #0D1339",
"@  c #12173A",
"#  c #12183A",
"$  c #161A3E",
"%  c #191B3E",
"&  c #3E2325",
"*  c #2A223B",
"=  c #392332",
"-  c #3B2739",
";  c #33333F",
":  c #5D2400",
">  c #56260C",
",  c #482317",
"<  c #552712",
"1  c #582A15",
"2  c #51281B",
"3  c #662C08",
"4  c #672D0A",
"5  c #692E0C",
"6  c #6E351A",
"7  c #753617",
"8  c #442425",
"9  c #5C302B",
"0  c #412B3B",
"q  c #573033",
"w  c #53313B",
"e  c #55333D",
"r  c #5F363D",
"t  c #5F373D",
"y  c #703927",
"u  c #743A26",
"i  c #763C27",
"p  c #763D2E",
"a  c #783D2E",
"s  c #7A3E2E",
"d  c #633635",
"f  c #673832",
"g  c #6B3932",
"h  c #60373C",
"j  c #63383E",
"k  c #723C30",
"l  c #733E39",
"z  c #7F4017",
"x  c #0F1746",
"c  c #111A44",
"v  c #121A46",
"b  c #121C4B",
"n  c #111B4F",
"m  c #131C4D",
"M  c #0D1B59",
"N  c #121C50",
"B  c #131D51",
"V  c #151F56",
"C  c #19214C",
"Z  c #1C245F",
"A  c #362A4D",
"S  c #38294F",
"D  c #2F3142",
"F  c #232352",
"G  c #2B2757",
"H  c #272953",
"J  c #212958",
"K  c #232C5B",
"L  c #252E5F",
"P  c #382B51",
"I  c #3B2D55",
"U  c #131F60",
"Y  c #172260",
"T  c #172361",
"R  c #172362",
"E  c #172463",
"W  c #172265",
"Q  c #172366",
"!  c #192261",
"~  c #1F2463",
"^  c #13216B",
"/  c #1B246B",
"(  c #162573",
")  c #142576",
"_  c #162576",
"`  c #182570",
"'  c #14257C",
"]  c #16267D",
"[  c #17277E",
"{  c #17277F",
"}  c #1F2A7F",
"|  c #212562",
" . c #263061",
".. c #37306E",
"X. c #3C3168",
"o. c #472F43",
"O. c #462F48",
"+. c #48314D",
"@. c #543443",
"#. c #523445",
"$. c #583442",
"%. c #56364B",
"&. c #51344C",
"*. c #53354E",
"=. c #593648",
"-. c #563E4A",
";. c #443153",
":. c #413650",
">. c #49345A",
",. c #4F365D",
"<. c #513550",
"1. c #653B47",
"2. c #443260",
"3. c #6D6C6C",
"4. c #777370",
"5. c #797879",
"6. c #823F22",
"7. c #8B420F",
"8. c #8B430F",
"9. c #8C430F",
"0. c #884313",
"q. c #8A4221",
"w. c #81402A",
"e. c #BB7339",
"r. c #8B7160",
"t. c #9E816C",
"y. c #142781",
"u. c #162781",
"i. c #172781",
"p. c #1E2B84",
"a. c #152888",
"s. c #17298A",
"d. c #13298C",
"f. c #12288F",
"g. c #14288C",
"h. c #15298C",
"j. c #14298E",
"k. c #15298E",
"l. c #122997",
"z. c #112A9A",
"x. c #142B98",
"c. c #132B9C",
"v. c #112B9E",
"b. c #252D81",
"n. c #213094",
"m. c #838286",
"M. c #928B89",
"N. c #9E9998",
"B. c #A9A29C",
"V. c #B5AFAB",
"C. c #B1B2B5",
"Z. c #C0A693",
"A. c #C0A795",
"S. c #C8C8C8",
"D. c #D9D9D7",
"F. c gray86",
"G. c #DCDCDB",
"H. c #DDDDDD",
"J. c #E1DDDA",
"K. c #DFE1E2",
"L. c #E0E1E2",
"P. c None",
/* pixels */
"P.P.P.P.P.P.P.P.P.P.P.P.P.P.P.P.P.P.P.P.P.P.P.P.P.P.P.P.P.P.P.P.",
"P.P.P.P.P.P.P.P.P.P.P.P.P.P.P.P.P.P.P.P.P.P.P.P.P.P.P.P.P.P.P.P.",
"P.P.P.P.P.P.P.P.P.P.P.P.P.P.P.P.P.P.P.P.P.P.P.P.P.P.P.P.P.P.P.P.",
"P.P.P.P.P.P.P.P.P.P.P.P.P.P.P.P.P.P.P.P.P.P.P.P.P.P.P.P.P.P.P.P.",
"P.P.P.P.P.P.P.P.P.P.P.P.P.P.P.P.P.P.P.P.P.P.P.P.P.P.P.P.P.P.P.P.",
"P.P.P.P.P.P.P.P.P.P.P.P.P.P.P.P.P.P.P.P.P.P.P.P.P.P.P.P.P.P.P.P.",
"P.P.P.P.P.P.P.P.P.P.P.P.P.P.P.P.6.P.P.P.P.P.P.P.P.P.P.P.P.P.P.P.",
"P.P.P.P.P.P.P.P.P.P.P.P.P.P.P.g e p P.P.P.P.P.P.P.P.P.P.P.P.P.P.",
"P.P.P.P.P.P.P.P.P.P.P.P.P.P.P.=.} 9 P.P.P.P.P.P.P.P.P.P.P.P.P.P.",
"P.P.P.P.P.P.P.P.P.P.P.P.P.P.P.,.v.8 P.P.P.P.P.P.P.P.P.P.P.P.P.P.",
"P.P.P.P.P.P.P.P.P.P.P.P.P.P.a ..c.S 3 P.P.P.P.P.P.P.P.P.P.P.P.P.",
"P.P.P.P.P.P.P.P.P.P.P.P.P.P.d / _ | > P.P.P.P.P.P.P.P.P.P.P.P.P.",
"P.P.P.P.P.P.P.P.P.P.P.P.q.y A ] W { - 6 P.P.P.P.P.P.P.P.P.P.P.P.",
"P.P.P.P.P.P.P.P.P.P.P.P.$.G @ X m . $ * 2 P.P.P.P.P.P.P.P.P.P.P.",
"P.P.P.P.P.P.P.P.P.P.P.i P n v ^ k.U c N = P.P.P.P.P.P.P.P.P.P.P.",
"P.P.P.P.P.P.P.P.P.P.P.r ~ b O x n.o # B F 1 P.P.P.P.P.P.P.P.P.P.",
"P.P.P.P.P.P.P.P.P.P.P.O.) C D -.e.:.; V ( w P.P.P.P.P.P.P.P.P.P.",
"P.P.P.P.P.P.P.P.P.P.P.;.f.L 5.3.J.4.m.R j.#.P.P.P.P.P.P.P.P.P.P.",
"P.P.P.P.P.P.P.P.P.P.P.2.z.J B.F.H.D.M.Y c.*.P.P.P.P.P.P.P.P.P.P.",
"P.P.P.P.P.P.P.P.P.P.P.X.l.K V.H.H.G.N.T x.>.P.P.P.P.P.P.P.P.P.P.",
"P.P.P.P.P.P.P.P.P.P.1.p.g. .S.K.K.L.C.E a.b.l P.P.P.P.P.P.P.P.P.",
"P.P.P.P.P.P.P.P.P.P.<.d.h.H t.A.A.Z.r.Z u.[ q P.P.P.P.P.P.P.P.P.",
"P.P.P.P.P.P.P.P.P.P.&.y.s.o.0.8.7.9.z I ' Q , P.P.P.P.P.P.P.P.P.",
"P.P.P.P.P.P.P.P.P.P.t ! i.j P.P.P.P.P.%.M % < P.P.P.P.P.P.P.P.P.",
"P.P.P.P.P.P.P.P.P.P.s 0 ` h P.P.P.P.P.@.+   4 P.P.P.P.P.P.P.P.P.",
"P.P.P.P.P.P.P.P.P.P.P.u +.k P.P.P.P.P.f & : P.P.P.P.P.P.P.P.P.P.",
"P.P.P.P.P.P.P.P.P.P.P.P.w.P.P.P.P.P.P.7 5 P.P.P.P.P.P.P.P.P.P.P.",
"P.P.P.P.P.P.P.P.P.P.P.P.P.P.P.P.P.P.P.P.P.P.P.P.P.P.P.P.P.P.P.P.",
"P.P.P.P.P.P.P.P.P.P.P.P.P.P.P.P.P.P.P.P.P.P.P.P.P.P.P.P.P.P.P.P.",
"P.P.P.P.P.P.P.P.P.P.P.P.P.P.P.P.P.P.P.P.P.P.P.P.P.P.P.P.P.P.P.P.",
"P.P.P.P.P.P.P.P.P.P.P.P.P.P.P.P.P.P.P.P.P.P.P.P.P.P.P.P.P.P.P.P.",
"P.P.P.P.P.P.P.P.P.P.P.P.P.P.P.P.P.P.P.P.P.P.P.P.P.P.P.P.P.P.P.P."
};
