/* XPM */
static char *result[] = {
/* columns rows colors chars-per-pixel */
"32 32 190 2 ",
"   c #2A1308",
".  c #0A0D29",
"X  c #3D2534",
"o  c #3C273D",
"O  c #572200",
"+  c #5E2600",
"@  c #462218",
"#  c #502512",
"$  c #592912",
"%  c #562918",
"&  c #5D2C1B",
"*  c #602A0B",
"=  c #682C08",
"-  c #682D0B",
";  c #6F310E",
":  c #74330D",
">  c #78350F",
",  c #6A2F10",
"<  c #632F1A",
"1  c #6A3118",
"2  c #462525",
"3  c #4C2821",
"4  c #572C24",
"5  c #552C26",
"6  c #4A2B35",
"7  c #452C3C",
"8  c #563035",
"9  c #5C3436",
"0  c #503038",
"q  c #5E363C",
"w  c #6C392F",
"e  c #723A2A",
"r  c #7B3E29",
"t  c #7A3D2B",
"y  c #603531",
"u  c #6E3A31",
"i  c #683937",
"p  c #643839",
"a  c #62383E",
"s  c #713B32",
"d  c #793F34",
"f  c #783F38",
"g  c #7A413D",
"h  c #121A44",
"j  c #121A46",
"k  c #131B47",
"l  c #131C4C",
"z  c #121C4D",
"x  c #131C4D",
"c  c #121C4E",
"v  c #121C4F",
"b  c #1B1F4B",
"n  c #1B1F4C",
"m  c #1B1F4E",
"M  c #0F1D56",
"N  c #121C50",
"B  c #131D51",
"V  c #131D53",
"C  c #141D50",
"Z  c #171E51",
"A  c #111D56",
"S  c #141E55",
"D  c #161F55",
"F  c #141E56",
"G  c #151E56",
"H  c #161F57",
"J  c #101D58",
"K  c #121E58",
"L  c #131E58",
"P  c #151F59",
"I  c #141F5B",
"U  c #151F5B",
"Y  c #161F5B",
"T  c #151F5C",
"R  c #182057",
"E  c #17205A",
"W  c #17205B",
"Q  c #13205E",
"!  c #15205C",
"~  c #18215E",
"^  c #1C225F",
"/  c #2A2245",
"(  c #252249",
")  c #2D2548",
"_  c #2A254C",
"`  c #28244E",
"'  c #2B264F",
"]  c #312542",
"[  c #352743",
"{  c #322746",
"}  c #3A2944",
"|  c #312649",
" . c #362848",
".. c #212250",
"X. c #222351",
"o. c #232353",
"O. c #282554",
"+. c #26275C",
"@. c #29285F",
"#. c #322851",
"$. c #362A51",
"%. c #322A5A",
"&. c #372D59",
"*. c #352D5B",
"=. c #3C2E59",
"-. c #132061",
";. c #152162",
":. c #162262",
">. c #142166",
",. c #142167",
"<. c #182367",
"1. c #15236A",
"2. c #16236C",
"3. c #17236F",
"4. c #15246D",
"5. c #16246F",
"6. c #1A246B",
"7. c #142371",
"8. c #172470",
"9. c #162472",
"0. c #162473",
"q. c #172575",
"w. c #142476",
"e. c #162576",
"r. c #162578",
"t. c #15267D",
"y. c #16267C",
"u. c #1E2879",
"i. c #1D287A",
"p. c #1E297A",
"a. c #272761",
"s. c #2A2A65",
"d. c #22276A",
"f. c #23286E",
"g. c #28286A",
"h. c #352E69",
"j. c #3B3069",
"k. c #3F3168",
"l. c #202876",
"z. c #2D2C71",
"x. c #2F2E76",
"c. c #2D2F79",
"v. c #452D40",
"b. c #462E48",
"n. c #4D3041",
"m. c #483047",
"M. c #47314E",
"N. c #4B324D",
"B. c #553442",
"V. c #543446",
"C. c #593541",
"Z. c #583646",
"A. c #453051",
"S. c #4C3350",
"D. c #5C3A55",
"F. c #5B3C5E",
"G. c #603843",
"H. c #6F3E42",
"J. c #663B49",
"K. c #653E54",
"L. c #483564",
"P. c #5E3D61",
"I. c #784245",
"U. c #71404C",
"Y. c #7A444B",
"T. c #724358",
"R. c #803A14",
"E. c #833F21",
"W. c #823F22",
"Q. c #844022",
"!. c #81412D",
"~. c #904523",
"^. c #844434",
"/. c #844439",
"(. c #824749",
"). c #142680",
"_. c #152782",
"`. c #152785",
"'. c #162883",
"]. c #152887",
"[. c #16298F",
"{. c #152A95",
"}. c #152B98",
"|. c #152B9A",
" X c #152B9B",
".X c #132B9C",
"XX c #152B9C",
"oX c #152C9D",
"OX c #182C99",
"+X c None",
/* pixels */
"+X+X+X+X+X+X+X+X+X+X+X+X+X+X+X+X+X+X+X+X+X+X+X+X+X+X+X+X+X+X+X+X",
"+X+X+X+X+X+X+X+X+X+X+X+X+X+X+X+X+X+X+X+X+X+X+X+X+X+X+X+X+X+X+X+X",
"+X+X+X+X+X+X+X+X+X+X+X+X+X+X+X+X+X+X+X+X+X+X+X+X+X+X+X+X+X+X+X+X",
"+X+X+X+X+X+X+X+X+X+X+X+X+X+X+X+X+X+X+X+X+X+X+X+X+X+X+X+X+X+X+X+X",
"+X+X+X+X+X+X+X+X+X+X~.+X+X+X+X+X+X+X+X+X+X+X~.+X+X+X+X+X+X+X+X+X",
"+X+X+X+X+X+X+X+X+X+X^.+X+X+X+X+X+X+X+X+X+XQ./.+X+X+X+X+X+X+X+X+X",
"+X+X+X+X+X+X+X+X+X+XF.i +X+X+X+X+X+X+X+X+Xa P.+X+X+X+X+X+X+X+X+X",
"+X+X+X+X+X+X+X+X+XH.d.V.+X+X+X+X+X+X+X+XW.A.s.g +X+X+X+X+X+X+X+X",
"+X+X+X+X+X+X+X+X+XK.N b.+X+X+X+X+X+X+X+X+X$.n T.+X+X+X+X+X+X+X+X",
"+X+X+X+X+X+X+X+X+Xm.L 7 +X+X+X+X+X+X+X+X+X[ R B.+X+X+X+X+X+X+X+X",
"+X+X+X+X+X+X+X+XY.+.A v.+X+X+X> O R.+X+X+X .A *.(.+X+X+X+X+X+X+X",
"+X+X+X+X+X+X+X+XU.p.J M.+X+Xf k.g.L.!.+X+X&.M c.I.+X+X+X+X+X+X+X",
"+X+X+X+X+X+X+X+X1 x.I ' s +XG.OX.Xl.w +Xp X.;.j.; +X+X+X+X+X+X+X",
"+X+X+X+X+X+X+X+X+XD.0.! C.+XZ.}.}.6.# +XN.K u.J.+X+X+X+X+X+X+X+X",
"+X+X+X+X+X+X+X+X+X< O.L %.y { 3.8..   9 @.V #., +X+X+X+X+X+X+X+X",
"+X+X+X+X+X+X+X+X+X+XX Q E b <.'.{.w.W m H :.2 +X+X+X+X+X+X+X+X+X",
"+X+X+X+X+X+X+X+X+Xd z.S P V `.y.|.r._.B G U h.- +X+X+X+X+X+X+X+X",
"+X+X+X+X+X+X+X+X+Xt | G C c ].y.|.e._.j F Z } = +X+X+X+X+X+X+X+X",
"+X+X+X+X+X+X+X+X+X+X$ _ C z ].y. Xq.5.h D ] * +X+X+X+X+X+X+X+X+X",
"+X+X+X+X+X+X+X+X+X+X+X5 ( z t.9.[.2.4.k ) & +X+X+X+X+X+X+X+X+X+X",
"+X+X+X+X+X+X+X+X+X+X+X+X8 o.T x Y l 1.` 4 +X+X+X+X+X+X+X+X+X+X+X",
"+X+X+X+X+X+X+X+X+X+X+X+X+XS.~ v -.z ^ 6 +X+X+X+X+X+X+X+X+X+X+X+X",
"+X+X+X+X+X+X+X+X+X+X+X+X+Xe ..7.oX>./ + +X+X+X+X+X+X+X+X+X+X+X+X",
"+X+X+X+X+X+X+X+X+X+X+X+X+XE.0 i.XXf.3 +X+X+X+X+X+X+X+X+X+X+X+X+X",
"+X+X+X+X+X+X+X+X+X+X+X+X+X+Xr =.).o +X+X+X+X+X+X+X+X+X+X+X+X+X+X",
"+X+X+X+X+X+X+X+X+X+X+X+X+X+X+Xn.,.@ +X+X+X+X+X+X+X+X+X+X+X+X+X+X",
"+X+X+X+X+X+X+X+X+X+X+X+X+X+X+Xq a.% +X+X+X+X+X+X+X+X+X+X+X+X+X+X",
"+X+X+X+X+X+X+X+X+X+X+X+X+X+X+Xu 5 +X+X+X+X+X+X+X+X+X+X+X+X+X+X+X",
"+X+X+X+X+X+X+X+X+X+X+X+X+X+X+X+X: +X+X+X+X+X+X+X+X+X+X+X+X+X+X+X",
"+X+X+X+X+X+X+X+X+X+X+X+X+X+X+X+X+X+X+X+X+X+X+X+X+X+X+X+X+X+X+X+X",
"+X+X+X+X+X+X+X+X+X+X+X+X+X+X+X+X+X+X+X+X+X+X+X+X+X+X+X+X+X+X+X+X",
"+X+X+X+X+X+X+X+X+X+X+X+X+X+X+X+X+X+X+X+X+X+X+X+X+X+X+X+X+X+X+X+X"
};
