/* XPM */
static char *result[] = {
/* columns rows colors chars-per-pixel */
"32 32 197 2 ",
"   c #101333",
".  c #231F3D",
"X  c #28203A",
"o  c #302133",
"O  c #32253E",
"+  c #3C293C",
"@  c #4B1F00",
"#  c #5D2A0C",
"$  c #462219",
"%  c #49261F",
"&  c #5D2A12",
"*  c #502719",
"=  c #572B1B",
"-  c #582C1F",
";  c #602600",
":  c #612700",
">  c #622700",
",  c #672900",
"<  c #672A00",
"1  c #612906",
"2  c #6B2B00",
"3  c #6A2C02",
"4  c #6E2C00",
"5  c #672C08",
"6  c #642C0C",
"7  c #652D0C",
"8  c #662C0C",
"9  c #70320D",
"0  c #7C3B1B",
"q  c #7E3C1C",
"w  c #432624",
"e  c #442727",
"r  c #4B2821",
"t  c #4D2823",
"y  c #4A2827",
"u  c #42272C",
"i  c #47282E",
"p  c #402737",
"a  c #422932",
"s  c #452832",
"d  c #462934",
"f  c #492C37",
"g  c #4B2C36",
"h  c #472C3D",
"j  c #502F3E",
"k  c #573135",
"l  c #5F3331",
"z  c #55323E",
"x  c #5B353C",
"c  c #58343E",
"v  c #793C26",
"b  c #703B2F",
"n  c #733C2F",
"m  c #773D2C",
"M  c #793E2F",
"N  c #6B3A34",
"B  c #683936",
"V  c #743E39",
"C  c #7C4135",
"Z  c #121B49",
"A  c #1B1F4E",
"S  c #131D50",
"D  c #131D51",
"F  c #141D50",
"G  c #141D51",
"H  c #141D53",
"J  c #141F57",
"K  c #1A1F53",
"L  c #181F56",
"P  c #141F59",
"I  c #151F5C",
"U  c #1E204B",
"Y  c #192055",
"T  c #13205F",
"R  c #15205D",
"E  c #15205E",
"W  c #14205F",
"Q  c #1B2258",
"!  c #242248",
"~  c #372645",
"^  c #35284A",
"/  c #3F2C4A",
"(  c #222458",
")  c #302855",
"_  c #382A50",
"`  c #3E2E52",
"'  c #302A5C",
"]  c #3A2E5A",
"[  c #131F60",
"{  c #162060",
"}  c #162161",
"|  c #172164",
" . c #162165",
".. c #172165",
"X. c #162266",
"o. c #162267",
"O. c #1B2361",
"+. c #1D2361",
"@. c #1F2565",
"#. c #13226A",
"$. c #142168",
"%. c #162268",
"&. c #16236A",
"*. c #17236A",
"=. c #16236D",
"-. c #17246C",
";. c #1C256A",
":. c #1E276F",
">. c #152571",
",. c #162474",
"<. c #162576",
"1. c #162577",
"2. c #1B2570",
"3. c #1E2670",
"4. c #182574",
"5. c #1E2871",
"6. c #1E2974",
"7. c #162578",
"8. c #162579",
"9. c #152678",
"0. c #162779",
"q. c #16267B",
"w. c #17267B",
"e. c #16277B",
"r. c #15277D",
"t. c #16267C",
"y. c #16277C",
"u. c #16277D",
"i. c #16277F",
"p. c #1A277B",
"a. c #1D297F",
"s. c #272862",
"d. c #242867",
"f. c #21286B",
"g. c #23296B",
"h. c #332D65",
"j. c #372F64",
"k. c #222A7D",
"l. c #242B7C",
"z. c #262D7F",
"x. c #4D3041",
"c. c #4E3042",
"v. c #4A314E",
"b. c #573646",
"n. c #593646",
"m. c #52334A",
"M. c #573549",
"N. c #5A374C",
"B. c #4B3151",
"V. c #4F365A",
"C. c #673A40",
"Z. c #49366A",
"A. c #533860",
"S. c #823F23",
"D. c #803F25",
"F. c #813F26",
"G. c #854124",
"H. c #854125",
"J. c #844129",
"K. c #904420",
"L. c #142786",
"P. c #162881",
"I. c #152883",
"U. c #152887",
"Y. c #162886",
"T. c #172987",
"R. c #152888",
"E. c #152889",
"W. c #162889",
"Q. c #16288A",
"!. c #16298B",
"~. c #172A8B",
"^. c #14288C",
"/. c #15298D",
"(. c #16298C",
"). c #15298F",
"_. c #182A8E",
"`. c #1B2C8F",
"'. c #1F2D8E",
"]. c #152A92",
"[. c #152A94",
"{. c #152A96",
"}. c #152B97",
"|. c #162B97",
" X c #1C2D95",
".X c #142B99",
"XX c #152B9A",
"oX c #142B9B",
"OX c #152B9B",
"+X c #122B9F",
"@X c #1B2D98",
"#X c #202B81",
"$X c #232E8D",
"%X c #2C3188",
"&X c #202E90",
"*X c #212E90",
"=X c None",
/* pixels */
"=X=X=X=X=X=X=X=X=X=X=X=X=X=X=X=X=X=X=X=X=X=X=X=X=X=X=X=X=X=X=X=X",
"=X=X=X=X=X=X=X=X=X=X=X=X=X=X=X=X=X=X=X=X=X=X=X=X=X=X=X=X=X=X=X=X",
"=X=X=X=X=X=X=X=X=X=X=X=X=X=X=X=X=X=X=X=X=X=X=X=X=X=X=X=X=X=X=X=X",
"=X=X=X=X=X=X=X=X=X=X=X=X=X=X=X=X=X=X=X=X=X=X=X=X=X=X=X=X=X=X=X=X",
"=X=X=X=X=X=X=X=X=X=X=X=X=X=X=X=X=X=X=X=X=X=X=X=X=X=X=X=X=X=X=X=X",
"=X=X=X=X=X=X=X=X=X=X=X=X=X=X=X=X=X=X=X=X=X=X=X=X=X=X=X=X=X=X=X=X",
"=X=X=X=X=X=X=X=X=X=X=X=X=X=X=X=X=X=X=X=X=X=X=X=X=X=X=X=X=X=X=X=X",
"=X=X=X=X=X=X=X=X=X=X=X=X=X=XC m.~ N.=X=X=X=X=X=X=X=X=X=X=X=X=X=X",
"=X=X=X=X=X=X=X=X=X=X=X=X=X=XC.@X+Xl.n =X=X=X=X=X=X=X=X=X=X=X=X=X",
"=X=X=X=X=X=X=X=X=X=X=X=X=X=Xn.oXOX2.= =X=X=X=X=X=X=X=X=X=X=X=X=X",
"=X=X=X=X=X=X=X=X=X=X=X=X=X=Xx 7.1.  @ =X=X=X=X=X=X=X=X=X=X=X=X=X",
"=X=X=X=X=X=X=X=X=X=X=X=X=XF.` y.Q.[ p =X=X=X=X=X=X=X=X=X=X=X=X=X",
"=X=X=X=X=X=X=X=X=X=X=X=Xv v.a.i.OXw.k.d : =X=X=X=X=X=X=X=X=X=X=X",
"=X=X=X=X=X=X=X=X=X=XS.b.' ;.E.q.XX<.(.+.) t < =X=X=X=X=X=X=X=X=X",
"=X=X=X=X=X=X=X=XH.B j.6.P %.W.t.XX<.!.E } :.] b G.=X=X=X=X=X=X=X",
"=X=X=X=X=X=X=XJ.Z.'.~.e.J X.Y.8.}.,.W.R W u._.$XB.=X=X=X=X=X=X=X",
"=X=X=X=X=X=X=XA. X[.e.9.&...{ H o.F  .| =.0.u.{.*Xj =X=X=X=X=X=X",
"=X=X=X=X=XM V.&X.X).-.Q K S I Z D Z R G A O.*.P./.z.i 1 =X=X=X=X",
"=X=X=X=XV %X|.I.].L.! y e . L #.XXT Y X % s U r.R.U.4.O 6 =X=X=X",
"=X=X=XK.M.`.T.s.#Xf.r =X0 # + p.OX3.a 7 q =Xu 5.g.d.>.( - =X=X=X",
"=X=X=X=X8 / ^ l c.g =X=X=X=Xm h.^._ D.=X=X=X5 h z k o w 3 =X=X=X",
"=X=X=X=X=X, > =X=X4 =X=X=X=X=Xx.$.$ =X=X=X=X=X4 =X=X; 2 =X=X=X=X",
"=X=X=X=X=X=X=X=X=X=X=X=X=X=X=Xc @.* =X=X=X=X=X=X=X=X=X=X=X=X=X=X",
"=X=X=X=X=X=X=X=X=X=X=X=X=X=X=XN f & =X=X=X=X=X=X=X=X=X=X=X=X=X=X",
"=X=X=X=X=X=X=X=X=X=X=X=X=X=X=X=X9 =X=X=X=X=X=X=X=X=X=X=X=X=X=X=X",
"=X=X=X=X=X=X=X=X=X=X=X=X=X=X=X=X=X=X=X=X=X=X=X=X=X=X=X=X=X=X=X=X",
"=X=X=X=X=X=X=X=X=X=X=X=X=X=X=X=X=X=X=X=X=X=X=X=X=X=X=X=X=X=X=X=X",
"=X=X=X=X=X=X=X=X=X=X=X=X=X=X=X=X=X=X=X=X=X=X=X=X=X=X=X=X=X=X=X=X",
"=X=X=X=X=X=X=X=X=X=X=X=X=X=X=X=X=X=X=X=X=X=X=X=X=X=X=X=X=X=X=X=X",
"=X=X=X=X=X=X=X=X=X=X=X=X=X=X=X=X=X=X=X=X=X=X=X=X=X=X=X=X=X=X=X=X",
"=X=X=X=X=X=X=X=X=X=X=X=X=X=X=X=X=X=X=X=X=X=X=X=X=X=X=X=X=X=X=X=X",
"=X=X=X=X=X=X=X=X=X=X=X=X=X=X=X=X=X=X=X=X=X=X=X=X=X=X=X=X=X=X=X=X"
};
