/* XPM */
static char *result[] = {
/* columns rows colors chars-per-pixel */
"32 32 156 2 ",
"   c #371B0F",
".  c #0C133A",
"X  c #101333",
"o  c #211D38",
"O  c #3A2127",
"+  c #2F233B",
"@  c #3A2431",
"#  c #3E2A3D",
"$  c #4B1E00",
"%  c #5C2400",
"&  c #52250E",
"*  c #482317",
"=  c #452219",
"-  c #532612",
";  c #582913",
":  c #5C2A11",
">  c #502619",
",  c #522919",
"<  c #572B1B",
"1  c #662D0B",
"2  c #682E0E",
"3  c #70320D",
"4  c #70351B",
"5  c #753719",
"6  c #492C37",
"7  c #593235",
"8  c #533139",
"9  c #5B353C",
"0  c #58343E",
"q  c #5E363E",
"w  c #713927",
"e  c #793C26",
"r  c #733A29",
"t  c #733C2F",
"y  c #783D2F",
"u  c #7E3F2C",
"i  c #653630",
"p  c #663733",
"a  c #6B3A34",
"s  c #60363C",
"d  c #60373D",
"f  c #61383F",
"g  c #62383E",
"h  c #703B31",
"j  c #743E39",
"k  c #7C4135",
"l  c #191B42",
"z  c #131C4C",
"x  c #0E1C5C",
"c  c #121D52",
"v  c #131D53",
"b  c #121D54",
"n  c #121D55",
"m  c #191F50",
"M  c #131E58",
"N  c #131F58",
"B  c #111E5A",
"V  c #131F5B",
"C  c #151F5B",
"Z  c #131F5C",
"A  c #15205F",
"S  c #17215E",
"D  c #262244",
"F  c #372645",
"G  c #36284F",
"H  c #242350",
"J  c #352B55",
"K  c #392B50",
"L  c #302A5C",
"P  c #3C2E58",
"I  c #131F60",
"U  c #132061",
"Y  c #162162",
"T  c #182263",
"R  c #1F2565",
"E  c #142168",
"W  c #172368",
"Q  c #172269",
"!  c #17236B",
"~  c #17236D",
"^  c #1C266F",
"/  c #122170",
"(  c #162471",
")  c #172571",
"_  c #162473",
"`  c #142574",
"'  c #162576",
"]  c #162577",
"[  c #1B2570",
"{  c #16267B",
"}  c #14257D",
"|  c #14267E",
" . c #15267F",
".. c #1A277B",
"X. c #18277F",
"o. c #1D297C",
"O. c #202561",
"+. c #332D65",
"@. c #3D3167",
"#. c #242B7C",
"$. c #402A41",
"%. c #402C45",
"&. c #472F47",
"*. c #4D3041",
"=. c #44304F",
"-. c #523344",
";. c #543444",
":. c #5B3540",
">. c #593646",
",. c #52334A",
"<. c #51344C",
"1. c #52354E",
"2. c #55364C",
"3. c #55364F",
"4. c #5A374C",
"5. c #443052",
"6. c #4B3458",
"7. c #523550",
"8. c #673A40",
"9. c #673B46",
"0. c #443260",
"q. c #142680",
"w. c #172781",
"e. c #152782",
"r. c #142783",
"t. c #162783",
"y. c #152784",
"u. c #142785",
"i. c #152786",
"p. c #152887",
"a. c #1B2982",
"s. c #1F2C83",
"d. c #152888",
"f. c #152889",
"g. c #162889",
"h. c #16288A",
"j. c #12298E",
"k. c #14288C",
"l. c #14298C",
"z. c #14298D",
"x. c #15298D",
"c. c #162A8C",
"v. c #182A89",
"b. c #152A95",
"n. c #132A98",
"m. c #122A9A",
"M. c #142B99",
"N. c #152B99",
"B. c #152B9A",
"V. c #142B9B",
"C. c #152B9B",
"Z. c #132B9C",
"A. c #122B9F",
"S. c #1B2D98",
"D. c #272E80",
"F. c None",
/* pixels */
"F.F.F.F.F.F.F.F.F.F.F.F.F.F.F.F.F.F.F.F.F.F.F.F.F.F.F.F.F.F.F.F.",
"F.F.F.F.F.F.F.F.F.F.F.F.F.F.F.F.F.F.F.F.F.F.F.F.F.F.F.F.F.F.F.F.",
"F.F.F.F.F.F.F.F.F.F.F.F.F.F.F.F.F.F.F.F.F.F.F.F.F.F.F.F.F.F.F.F.",
"F.F.F.F.F.F.F.F.F.F.F.F.F.F.F.F.F.F.F.F.F.F.F.F.F.F.F.F.F.F.F.F.",
"F.F.F.F.F.F.F.F.F.F.F.F.F.F.F.F.F.F.F.F.F.F.F.F.F.F.F.F.F.F.F.F.",
"F.F.F.F.F.F.F.F.F.F.F.F.F.F.F.F.F.F.F.F.F.F.F.F.F.F.F.F.F.F.F.F.",
"F.F.F.F.F.F.F.F.F.F.F.F.F.F.F.F.F.F.F.F.F.F.F.F.F.F.F.F.F.F.F.F.",
"F.F.F.F.F.F.F.F.F.F.F.F.F.F.k ,.F 4.F.F.F.F.F.F.F.F.F.F.F.F.F.F.",
"F.F.F.F.F.F.F.F.F.F.F.F.F.F.8.S.A.#.t F.F.F.F.F.F.F.F.F.F.F.F.F.",
"F.F.F.F.F.F.F.F.F.F.F.F.F.F.>.V.C.[ < F.F.F.F.F.F.F.F.F.F.F.F.F.",
"F.F.F.F.F.F.F.F.F.F.F.F.F.F.9 ] ] X $ F.F.F.F.F.F.F.F.F.F.F.F.F.",
"F.F.F.F.F.F.F.F.F.F.F.F.F.r P h.g./ $.4 F.F.F.F.F.F.F.F.F.F.F.F.",
"F.F.F.F.F.F.F.F.F.F.F.F.:.L a.t.C.w.o.+ , F.F.F.F.F.F.F.F.F.F.F.",
"F.F.F.F.F.F.F.F.F.F.F.e K B p.{ B.' u.c @ F.F.F.F.F.F.F.F.F.F.F.",
"F.F.F.F.F.F.F.F.F.F.F.s O.b i.{ B.' y.v H ; F.F.F.F.F.F.F.F.F.F.",
"F.F.F.F.F.F.F.F.F.F.F.&.` M | E b.U q.N ( 8 F.F.F.F.F.F.F.F.F.F.",
"F.F.F.F.F.F.F.F.F.F.F.5.j.Z d.C z Y y.U z.-.F.F.F.F.F.F.F.F.F.F.",
"F.F.F.F.F.F.F.F.F.F.F.0.m.V t.Q ~ !  .U Z.1.F.F.F.F.F.F.F.F.F.F.",
"F.F.F.F.F.F.F.F.F.F.F.@.n.n A { N._ C I M.6.F.F.F.F.F.F.F.F.F.F.",
"F.F.F.F.F.F.F.F.F.F.9.s.x.m D ..C.^ o S f.D.j F.F.F.F.F.F.F.F.F.",
"F.F.F.F.F.F.F.F.F.F.7.l.c.%.i +.k.G & J e.X.7 F.F.F.F.F.F.F.F.F.",
"F.F.F.F.F.F.F.F.F.F.<.r.v.g F.*.E = F.3.} W * F.F.F.F.F.F.F.F.F.",
"F.F.F.F.F.F.F.F.F.F.q T w.f F.0 R > F.2.x l - F.F.F.F.F.F.F.F.F.",
"F.F.F.F.F.F.F.F.F.F.y # ) d F.a 6 : F.;..   1 F.F.F.F.F.F.F.F.F.",
"F.F.F.F.F.F.F.F.F.F.F.w =.h F.F.3 F.F.p O % F.F.F.F.F.F.F.F.F.F.",
"F.F.F.F.F.F.F.F.F.F.F.F.u F.F.F.F.F.F.5 2 F.F.F.F.F.F.F.F.F.F.F.",
"F.F.F.F.F.F.F.F.F.F.F.F.F.F.F.F.F.F.F.F.F.F.F.F.F.F.F.F.F.F.F.F.",
"F.F.F.F.F.F.F.F.F.F.F.F.F.F.F.F.F.F.F.F.F.F.F.F.F.F.F.F.F.F.F.F.",
"F.F.F.F.F.F.F.F.F.F.F.F.F.F.F.F.F.F.F.F.F.F.F.F.F.F.F.F.F.F.F.F.",
"F.F.F.F.F.F.F.F.F.F.F.F.F.F.F.F.F.F.F.F.F.F.F.F.F.F.F.F.F.F.F.F.",
"F.F.F.F.F.F.F.F.F.F.F.F.F.F.F.F.F.F.F.F.F.F.F.F.F.F.F.F.F.F.F.F.",
"F.F.F.F.F.F.F.F.F.F.F.F.F.F.F.F.F.F.F.F.F.F.F.F.F.F.F.F.F.F.F.F."
};
