/* XPM */
static char *result[] = {
/* columns rows colors chars-per-pixel */
"32 32 211 2 ",
"   c #1F1834",
".  c #331F22",
"X  c #3A0D3C",
"o  c #261535",
"O  c #29153A",
"+  c #2C1A3C",
"@  c #271636",
"#  c #35113E",
"$  c #231728",
"%  c #3D2228",
"&  c #481D2C",
"*  c #471C35",
"=  c #591E37",
"-  c #681A39",
";  c #74173B",
":  c #44242B",
">  c #4B232D",
",  c #4B292E",
"<  c #532B2F",
"1  c #52222F",
"2  c #4D2439",
"3  c #532333",
"4  c #5B2736",
"5  c #522A31",
"6  c #5C233A",
"7  c #5E2839",
"8  c #5A2B33",
"9  c #4F303D",
"0  c #65213C",
"q  c #62293A",
"w  c #6D213E",
"e  c #72203F",
"r  c #2E1B4A",
"t  c #2B1B47",
"y  c #301C4D",
"u  c #341C55",
"i  c #361D5B",
"p  c #381E5D",
"a  c #3D0E62",
"s  c #4A0945",
"d  c #4F0C4B",
"f  c #59034D",
"g  c #481D47",
"h  c #5C1D42",
"j  c #551C48",
"k  c #5D0350",
"l  c #4D165A",
"z  c #671D44",
"x  c #6C1E45",
"c  c #751E45",
"v  c #7A1C45",
"b  c #7D1C4B",
"n  c #7B1A47",
"m  c #670356",
"M  c #75005E",
"N  c #78005F",
"B  c #741A50",
"V  c #5D2045",
"C  c #5A2248",
"Z  c #6E2442",
"A  c #62254A",
"S  c #662345",
"D  c #732344",
"F  c #7A2149",
"G  c #7C2243",
"H  c #6B2456",
"J  c #652855",
"K  c #632A5D",
"L  c #632657",
"P  c #752259",
"I  c #752256",
"U  c #491A69",
"Y  c #5F1F61",
"T  c #440B74",
"R  c #43067E",
"E  c #46097E",
"W  c #4E1078",
"Q  c #7D0063",
"!  c #592B6F",
"~  c #6A2965",
"^  c #6C2C6A",
"/  c #662A67",
"(  c #76296A",
")  c #6B336F",
"_  c #762C74",
"`  c #693476",
"'  c #841A44",
"]  c #8C1A47",
"[  c #851B4C",
"{  c #8B1B4C",
"}  c #851647",
"|  c #951449",
" . c #9C134B",
".. c #981448",
"X. c #861C50",
"o. c #9B1750",
"O. c #991951",
"+. c #A50F49",
"@. c #A90F4D",
"#. c #B00F4F",
"$. c #A3124C",
"%. c #A9104E",
"&. c #AF0F53",
"*. c #B30E51",
"=. c #BA0D52",
"-. c #A11550",
";. c #AE1253",
":. c #B31052",
">. c #81204D",
",. c #812044",
"<. c #850067",
"1. c #870069",
"2. c #89006B",
"3. c #8D0174",
"4. c #8E0379",
"5. c #90037B",
"6. c #450684",
"7. c #480B83",
"8. c #47048C",
"9. c #470789",
"0. c #460192",
"q. c #490592",
"w. c #47009A",
"e. c #48029A",
"r. c #510F9E",
"t. c #580F8A",
"y. c #5A2887",
"u. c #652C87",
"i. c #7E3283",
"p. c #7C348A",
"a. c #712F94",
"s. c #4B00A5",
"d. c #4D01AC",
"f. c #5816A5",
"g. c #4F00B1",
"h. c #5303B5",
"j. c #5301BC",
"k. c #5906BC",
"l. c #5B09BD",
"z. c #6529A9",
"x. c #712BA5",
"c. c #5904C3",
"v. c #5B03C9",
"b. c #5905C3",
"n. c #610FC7",
"m. c #650FCE",
"M. c #6412CB",
"N. c #6915CF",
"B. c #681ACA",
"V. c #6916D1",
"C. c #6C1BD1",
"Z. c #701CD0",
"A. c #7325D2",
"S. c #7825D3",
"D. c #7B2BD4",
"F. c #7629D3",
"G. c #7D34D5",
"H. c #7F38D5",
"J. c #7226CD",
"K. c #950B85",
"L. c #970D89",
"P. c #9A1895",
"I. c #95158A",
"U. c #A21A9D",
"Y. c #823284",
"T. c #82358C",
"R. c #873C9C",
"E. c #892D8F",
"W. c #9B1FA1",
"Q. c #A31DA3",
"!. c #9D22A3",
"~. c #923EA9",
"^. c #9F3CB5",
"/. c #8B3CA3",
"(. c #A328A8",
"). c #A43ABB",
"_. c #A93BBF",
"`. c #A536B5",
"'. c #8243B4",
"]. c #9940B0",
"[. c #9D44BB",
"{. c #9743B3",
"}. c #A246BB",
"|. c #8838C5",
" X c #8234D4",
".X c #8B34D2",
"XX c #833AD5",
"oX c #8D38D3",
"OX c #853ADA",
"+X c #943FD4",
"@X c #A53EC3",
"#X c #9B45C8",
"$X c #8A41D6",
"%X c #8D43D9",
"&X c #9641D4",
"*X c #9E4CD5",
"=X c #934CD9",
"-X c #9148D7",
";X c #A545C2",
":X c #A942C3",
">X c #AD45CC",
",X c #AD4CCE",
"<X c #B148CF",
"1X c #B047CE",
"2X c #A951C6",
"3X c #AE4AD2",
"4X c #A14ED8",
"5X c #AC47D2",
"6X c #B047D0",
"7X c #B148D2",
"8X c None",
/* pixels */
"8X8X8X8XT 8X8X6.w.w.9.T T 8X8X9 U w.8.T T 8X8X8X0.w.0.T 8X8X8X8X",
"8XE 0.w.8.R 9.s.h.g.0.6.q.7.j ' z r.g.q.R T a q.h.v.j.q.8.8.6.8X",
"6.s.j.v.n.k.l.M.U C A l t.r.B =. .! B.T j h * f.V.A.V.m.c.j.s.6.",
"0.c.m.A. XS. XOX'.J ] +.n Y [  .o.J P | $.Z y..X%X=X$XXXV.m.c.0.",
"9.k.V.|.7X[.p.i.Y.^ ' *.=.| D D D ' :.=.$.S _ Y._ ].,X,X.XV.k.9.",
"E h.A.$Xp.J ] +.+.$.] G ..O.Z , 4 [ -.,.,.| +.+. .c ^ ].+XA.h.R ",
"6.g.G.` 0 c ] @.=.=.:.>.D D Z : 7 D D F o.=.=.*. .v w A '.G.g.6.",
"0.c.z.2 A ) * = ; ; b >.>.7 , : 5 5 D X.F v ; - & / K 8 ! G.c.0.",
"0.c.f.a.;X[.` j & : % 6 D 5 : : : , q w > . > * / R.;X^.u.J.c.8.",
"E k.C.x.i.P X.| @.+.; = , 5 : % % < , 3 - | @.+.X.b _ T.|.V.k.6.",
"E d.U S c  .=.=.=.=.*.[ 4 % % 5 : % : Z O.=.=.=.=.&.[ x j z.h.R ",
"6.h.y.) A b +.@.@.| G S > % 3 Z w % : = D } $.+.@.| z H ` z.j.6.",
"w.c.XX&X}.i.* > > & } b Z 8 [ { { w q D { - : 1 & ~ ~.;X4XG.v.w.",
"6.c.C.oX>XY.} c q ] =. .b 0 @.*.:.' Z { *.@.w 8 } P ~.7XoXC.c.6.",
"E h.A.&XR.C F L } =.@.' 7 & @.=.=.; , c | *.$.V I z ^ >X+XA.h.E ",
"6.h.G.*X}.}.[.~ | [ H n D 3 $.=.=.; 4 [ S I ..n R.}.;X>X*XG.h.E ",
"8.c.XX*X,X3X{.A P ~.(  .' & ; :...& - o.b R.i.z i.<X<X6X4XXXc.8.",
"0.c.F.&X7X7XR.L ~.3X_ H _   * >.z $ g ( C {.,XY.~ ,X6X6X&XF.c.0.",
"E k.V.oX7X7X>X;X7X7X@X^.E.O @ - *   d K.P.`.7X7X;X6X6X6XoXC.k.E ",
"R h.G.*X,X<X<X7X7X>XW.K.k O y # + t X Q 2.3.Q.@X7X7X6X6X*XD.h.R ",
"6.j.G.*X2X,X6X5X6X`.4.<.s r i p u i O M 2.1.4.(.>X6X6X6X*XH.j.9.",
"0.v.G.*X6X,X7X2X(.3.<.Q t p i y u p r f 1.1.<.I.}.<X6X6X*XG.c.0.",
"9.b.C.oX7X6X7X@XP.<.2.s + r u u u u r o M <.2.K.`.<X6X<XoXC.c.9.",
"E h.A.&X6X7X7X>XP.<.<.k o r u o t u t X Q 1.4.U._.<X6X7X&XA.h.R ",
"E g.G.*X2X,X5X:XU.2.1.1.m O o X o @ s <.2.<.5.!.>X<X7X<X*XG.h.R ",
"0.c.XX*X,X,X,X,X`.K.2.2.1.m m <.Q f Q 2.<.2.I.;X,X7X<X<X4XXXc.0.",
"0.c.F.+X7X3X5X2X<X_.L.2.1.1.1.1.<.<.<.<.4.L._.,X2X<X5X7X+XF.c.0.",
"6.c.N..X3X3X7X5X3X>X@X).!.!.!.!.!.W.W.!.).:X>X7X7X5X5X5X.XN.c.9.",
"0.b.M.Z.XX$X=X$X XF.F.XXG.$X=X%XXXD.S.XXXXOX=X%XoXD.S. XA.m.j.0.",
"6.s.j.b.M.B.F.N.n.l.k.n.n.N.A.V.M.k.k.m.b.M.J.J.V.l.h.n.v.j.d.6.",
"8X7.q.q.0.h.c.h.q.6.6.q.8.d.v.c.e.6.E 8.8.s.c.c.s.9.R 8.e.0.E 8X",
"8X8X8X8XT 0.w.0.8X8X8XT T 8.w.0.E 8X8XT T 6.w.w.6.8X8XT 8X8X8X8X"
};
