/* XPM */
static char *result[] = {
/* columns rows colors chars-per-pixel */
"32 32 140 2 ",
"   c #3B0D41",
".  c #400D48",
"X  c #5D154A",
"o  c #4A0D55",
"O  c #520D5E",
"+  c #4F1854",
"@  c #5B0D63",
"#  c #6B0D7B",
"$  c #6C0D80",
"%  c #6E0D81",
"&  c #6F0D82",
"*  c #6F0D84",
"=  c #6E0D86",
"-  c #770D81",
";  c #740D85",
":  c #750D8A",
">  c #760D8B",
",  c #770D8F",
"<  c #7B0D8B",
"1  c #790D8F",
"2  c #7A0D92",
"3  c #7F0D91",
"4  c #7C0D96",
"5  c #7F0D98",
"6  c #830D8F",
"7  c #840D8E",
"8  c #810D91",
"9  c #840D91",
"0  c #800D96",
"q  c #800D97",
"w  c #880D90",
"e  c #8A0D92",
"r  c #8C0D93",
"t  c #810D9B",
"y  c #860D99",
"u  c #880D9C",
"i  c #8C0D9D",
"p  c #940D9B",
"a  c #920D9E",
"s  c #940D9F",
"d  c #B61E99",
"f  c #90388E",
"g  c #8F0DA7",
"h  c #8F0DA9",
"j  c #8C0DAA",
"k  c #8E0DAE",
"l  c #930DA2",
"z  c #950DA2",
"x  c #970DA2",
"c  c #980DA6",
"v  c #9A0DA7",
"b  c #900DAF",
"n  c #930DAE",
"m  c #9F0DAB",
"M  c #900DB0",
"N  c #910DB1",
"B  c #910DB2",
"V  c #970DB1",
"C  c #950DB2",
"Z  c #950DB7",
"A  c #9E0DB2",
"S  c #9D0DB7",
"D  c #960DB8",
"F  c #9C0DB9",
"G  c #9D0DBB",
"H  c #990DBC",
"J  c #9A0DBD",
"K  c #9B0DBD",
"L  c #A10DAB",
"P  c #A30DB0",
"I  c #A00DB3",
"U  c #A60DBA",
"Y  c #A90DBB",
"T  c #A90DBC",
"R  c #AC0DBD",
"E  c #D633B2",
"W  c #B44796",
"Q  c #B74897",
"!  c #BB4B9A",
"~  c #927194",
"^  c #BA48A6",
"/  c #9C0DC0",
"(  c #9E0DC2",
")  c #A10DC6",
"_  c #A60DC6",
"`  c #A50DCB",
"'  c #A70DCC",
"]  c #A70DCD",
"[  c #A80DCA",
"{  c #A80DCF",
"}  c #B50DC1",
"|  c #B30DC7",
" . c #B50DC4",
".. c #B90DC5",
"X. c #B50DCE",
"o. c #BC0DCC",
"O. c #AA0DD0",
"+. c #AA0DD1",
"@. c #AF0DD3",
"#. c #B20DD0",
"$. c #BC0DD1",
"%. c #BF0DD1",
"&. c #BF0DD7",
"*. c #B20DDC",
"=. c #B40DDE",
"-. c #B50DDF",
";. c #B60DE1",
":. c #BC0DE8",
">. c #BD0DEA",
",. c #BE0DEB",
"<. c #CC0DDE",
"1. c #D30DD9",
"2. c #FF13CE",
"3. c #FF0DD6",
"4. c #FF0DDF",
"5. c #C00DE1",
"6. c #C00DED",
"7. c #C10DEF",
"8. c #D40DE5",
"9. c #D50DE8",
"0. c #D50DEC",
"q. c #DA0DEC",
"w. c #C30DF1",
"e. c #C50DF3",
"r. c #DA0DF2",
"t. c #EE0DEE",
"y. c #EB0DFF",
"u. c #EE0DFF",
"i. c #FF0DF4",
"p. c #E162C6",
"a. c #AC93AC",
"s. c #B190B6",
"d. c #B5A0AD",
"f. c #D694C7",
"g. c #C9AEC0",
"h. c #F49EE2",
"j. c #F1B3E5",
"k. c #CECECE",
"l. c #D2C9D2",
"z. c None",
/* pixels */
"z.z.z.z.z.z.z.z.z.z.z.z.z.z.z.z.z.z.z.z.z.z.z.z.z.z.z.z.z.z.z.z.",
"z.z.z.z.z.z.z.z.z.z.z.z.z.z.z.z.z.z.z.z.z.z.z.z.z.z.z.z.z.z.z.z.",
"z.z.z.z.z.z.z.z.z.z.z.z.z.z.z.z.z.z.z.z.z.z.z.z.z.z.z.z.z.z.z.z.",
"z.z.z.z.z.z.z.z.z.z.z.z.z.z.z.z.z.z.z.z.z.z.z.z.z.z.z.z.z.z.z.z.",
"z.z.z.z.z.z.z.z.z.z.z.z.z.z.z.z.z.z.z.z.z.z.z.z.z.z.z.z.z.z.z.z.",
"z.z.z.z.z.z.z.z.z.z.z.z.z.z.z.z.z.z.z.z.z.z.z.z.z.z.z.z.z.z.z.z.",
"z.z.z.z.z.z.z.z.z.z.z.z.z.z.z.z.z.z.z.z.z.z.z.z.z.z.z.z.z.z.z.z.",
"z.z.z.z.z.z.z.z.z.z.z.z.z.z.z.z.z.z.z.z.z.z.z.z.z.z.z.z.z.z.z.z.",
"z.z.z.z.z.z.z.z.z.r } z.z.z.z.z.z.z.z.z.z.z.z.z.z.z.z.z.z.z.z.z.",
"z.z.z.z.z.z.z.z.5.[ A r.z.z.z.z.z.z.z.z.z.z.z.z.z.z.z.z.z.z.z.z.",
"z.z.z.z.z.z.z.0.e.= / $.z.z.z.z.z.z.z.z.z.z.z.z.z.z.z.z.z.z.z.z.",
"z.z.z.z.z.z.z.i.- + >.@.<.u.z.z.z.z.z.z.z.z.z.z.z.z.z.z.z.z.z.z.",
"z.z.z.z.z.z.z.1.X ~ C +._ X.9.9.9.9.9.9.9.9.q.y.z.z.z.z.z.z.z.z.",
"z.z.z.z.z.z.z.t.p.l.a.s.^ d 6 F ' :.,.' g n S &.8...z.z.z.z.z.z.",
"z.z.z.z.z.z.z.z.4.h.k.d.! %.% / 7.6.j # . o 8 c  .z.z.z.z.z.z.z.",
"z.z.z.z.z.z.z.z.z.3.j.g.Q w ;.6.w.6.: 1   @ P z.z.z.z.z.z.z.z.z.",
"z.z.z.z.z.z.z.z.z.z.2.f.W 7 =.*.*.-.b k 3 c z.z.z.z.z.z.z.z.z.z.",
"z.z.z.z.z.z.z.z.z.z.z.E f { O.*.*.D ] ; i z.z.z.z.z.z.z.z.z.z.z.",
"z.z.z.z.z.z.z.z.z.z.z.p O ( Z ` ) 2 k u v z.z.z.z.z.z.z.z.z.z.z.",
"z.z.z.z.z.z.z.z.z.z.z.e ' M 5 B 4 * 0 a z.z.z.z.z.z.z.z.z.z.z.z.",
"z.z.z.z.z.z.z.z.z.z.z.U K % N t > & y x z.z.z.z.z.z.z.z.z.z.z.z.",
"z.z.z.z.z.z.z.z.z.z.z.#.H , J $ q y z z.z.z.z.z.z.z.z.z.z.z.z.z.",
"z.z.z.z.z.z.z.z.z.z.Y V < h G 9 l m z.z.z.z.z.z.z.z.z.z.z.z.z.z.",
"z.z.z.z.z.z.z.z.z.z.R I s T | o.L z.z.z.z.z.z.z.z.z.z.z.z.z.z.z.",
"z.z.z.z.z.z.z.z.z.z.z.z.z.z.z.z.z.z.z.z.z.z.z.z.z.z.z.z.z.z.z.z.",
"z.z.z.z.z.z.z.z.z.z.z.z.z.z.z.z.z.z.z.z.z.z.z.z.z.z.z.z.z.z.z.z.",
"z.z.z.z.z.z.z.z.z.z.z.z.z.z.z.z.z.z.z.z.z.z.z.z.z.z.z.z.z.z.z.z.",
"z.z.z.z.z.z.z.z.z.z.z.z.z.z.z.z.z.z.z.z.z.z.z.z.z.z.z.z.z.z.z.z.",
"z.z.z.z.z.z.z.z.z.z.z.z.z.z.z.z.z.z.z.z.z.z.z.z.z.z.z.z.z.z.z.z.",
"z.z.z.z.z.z.z.z.z.z.z.z.z.z.z.z.z.z.z.z.z.z.z.z.z.z.z.z.z.z.z.z.",
"z.z.z.z.z.z.z.z.z.z.z.z.z.z.z.z.z.z.z.z.z.z.z.z.z.z.z.z.z.z.z.z.",
"z.z.z.z.z.z.z.z.z.z.z.z.z.z.z.z.z.z.z.z.z.z.z.z.z.z.z.z.z.z.z.z."
};
