/* XPM */
static char *result[] = {
/* columns rows colors chars-per-pixel */
"32 32 120 2 ",
"   c #360D3A",
".  c #430D48",
"X  c #4A0D56",
"o  c #4C0D55",
"O  c #581D5B",
"+  c #671D55",
"@  c #5C0D67",
"#  c #5E0D6B",
"$  c #5E0D73",
"%  c #640D70",
"&  c #6C0D70",
"*  c #690D77",
"=  c #6E0D7E",
"-  c #710D78",
";  c #740D7E",
":  c #750D80",
">  c #710D84",
",  c #740D85",
"<  c #7C0D81",
"1  c #740D88",
"2  c #780D8D",
"3  c #7B0D8C",
"4  c #7D0D8C",
"5  c #800D93",
"6  c #830D93",
"7  c #840D90",
"8  c #8B0D97",
"9  c #8E0D97",
"0  c #840D9B",
"q  c #840D9E",
"w  c #870D9F",
"e  c #880D9C",
"r  c #920D9C",
"t  c #872B86",
"y  c #860DA1",
"u  c #870DA4",
"i  c #8C0DA0",
"p  c #880DA6",
"a  c #8C0DAA",
"s  c #8E0DAE",
"d  c #970DA5",
"f  c #990DA5",
"g  c #900DAF",
"h  c #980DAC",
"j  c #9F0DAC",
"k  c #900DB0",
"l  c #910DB1",
"z  c #930DB4",
"x  c #990DB1",
"c  c #970DBB",
"v  c #980DB8",
"b  c #A30DB0",
"n  c #A70DB3",
"m  c #AB0DB7",
"M  c #A90DBC",
"N  c #B20DBE",
"B  c #D70DAF",
"V  c #9A7B9C",
"C  c #B44DA0",
"Z  c #9F0DC3",
"A  c #A30DC0",
"S  c #A10DC6",
"D  c #AF0DC6",
"F  c #A30DC8",
"G  c #A30DC9",
"H  c #A50DCB",
"J  c #A70DCE",
"K  c #AA0DCC",
"L  c #A80DCF",
"P  c #B30DC0",
"I  c #B90DC5",
"U  c #BC0DC4",
"Y  c #B10DC8",
"T  c #B60DCA",
"R  c #B70DCF",
"E  c #B90DC9",
"W  c #BB0DC9",
"Q  c #BD0DCA",
"!  c #B80DCE",
"~  c #AA0DD2",
"^  c #AC0DD4",
"/  c #AE0DD6",
"(  c #B00DD5",
")  c #B70DDE",
"_  c #BA0DE5",
"`  c #BC0DE7",
"'  c #BC0DE8",
"]  c #BE0DEB",
"[  c #BF0DEC",
"{  c #C10DDF",
"}  c #C80DDA",
"|  c #CA0DDD",
" . c #C00DE6",
".. c #C00DED",
"X. c #C10DEF",
"o. c #CF0DEA",
"O. c #D00DE2",
"+. c #D30DE4",
"@. c #D50DE8",
"#. c #D60DEA",
"$. c #D80DEB",
"%. c #D80DEE",
"&. c #C50DF3",
"*. c #FF0DE9",
"=. c #E30DFA",
"-. c #E90DFC",
";. c #EA0DFF",
":. c #EB0DFF",
">. c #EC0DFE",
",. c #FF0DF1",
"<. c #F80DF8",
"1. c #EE62D0",
"2. c #898288",
"3. c #A890A1",
"4. c #B29EB4",
"5. c #B1A6B4",
"6. c #F392DE",
"7. c gray79",
"8. c #D7CBD5",
"9. c None",
/* pixels */
"9.9.9.9.9.9.9.9.9.9.9.9.9.9.9.9.9.9.9.9.9.9.9.9.9.9.9.9.9.9.9.9.",
"9.9.9.9.9.9.9.9.9.9.9.9.9.9.9.9.9.9.9.9.9.9.9.9.9.9.9.9.9.9.9.9.",
"9.9.9.9.9.9.9.9.9.9.9.9.9.9.9.9.9.9.9.9.9.9.9.9.9.9.9.9.9.9.9.9.",
"9.9.9.9.9.9.9.9.9.9.9.9.9.9.9.9.9.9.9.9.9.9.9.9.9.9.9.9.9.9.9.9.",
"9.9.9.9.9.9.9.9.9.9.9.9.9.9.9.9.9.9.9.9.9.9.9.9.9.9.9.9.9.9.9.9.",
"9.9.9.9.9.9.9.9.9.9.9.9.9.9.9.9.9.9.9.9.9.9.9.9.9.9.9.9.9.9.9.9.",
"9.9.9.9.9.9.9.9.9.9.9.9.9.9.9.9.9.9.9.9.9.9.9.9.9.9.9.9.9.9.9.9.",
"9.9.9.9.9.9.9.9.9.9.9.9.9.9.9.9.9.9.9.9.9.9.9.9.9.9.9.9.9.9.9.9.",
"9.9.9.9.9.9.9.9.9.9.9.9.9.9.9.9.9.9.9.9.9.9.9.9.9.9.9.9.9.9.9.9.",
"9.9.9.9.9.9.9.9.9.9.9.9.9.9.9.9.9.9.9.9.9.9.9.9.9.9.9.9.9.9.9.9.",
"9.9.9.9.9.9.9.9.m 9 P 9.9.9.9.9.9.9.9.9.9.9.9.9.9.9.9.9.9.9.9.9.",
"9.9.9.9.9.9.9.9. .~ x %.9.9.9.9.9.9.9.9.9.9.9.9.9.9.9.9.9.9.9.9.",
"9.9.9.9.9.9.9.=.[ $ S ! 9.9.9.9.9.9.9.9.9.9.9.9.9.9.9.9.9.9.9.9.",
"9.9.9.9.9.9.9.,.& O ] ( | ;.9.9.9.9.9.9.9.9.9.9.9.9.9.9.9.9.9.9.",
"9.9.9.9.9.9.9.U + V h K A D O.+.@.#.} r 8 E $.;.9.9.9.9.9.9.9.9.",
"9.9.9.9.9.9.9.<.1.8.5.4.C < = 5 / X.G g , % i R +.I 9.9.9.9.9.9.",
"9.9.9.9.9.9.9.9.*.6.7.3.t u ` ' ..J y * #   : f P 9.9.9.9.9.9.9.",
"9.9.9.9.9.9.9.9.9.B 2.. w _ &.L L c z 1 o - n 9.9.9.9.9.9.9.9.9.",
"9.9.9.9.9.9.9.9.9.7 X 2 H &.^ Z Z s 0 @ ; 9.9.9.9.9.9.9.9.9.9.9.",
"9.9.9.9.9.9.9.9.W o.] k p F l a a > e d 9.9.9.9.9.9.9.9.9.9.9.9.",
"9.9.9.9.9.9.9.9.9.:.Q Y ) q v 3 6 4 T 9.9.9.9.9.9.9.9.9.9.9.9.9.",
"9.9.9.9.9.9.9.9.9.9.9.9.N { M 9 b j -.9.9.9.9.9.9.9.9.9.9.9.9.9.",
"9.9.9.9.9.9.9.9.9.9.9.9.9.>.9.9.9.9.9.9.9.9.9.9.9.9.9.9.9.9.9.9.",
"9.9.9.9.9.9.9.9.9.9.9.9.9.9.9.9.9.9.9.9.9.9.9.9.9.9.9.9.9.9.9.9.",
"9.9.9.9.9.9.9.9.9.9.9.9.9.9.9.9.9.9.9.9.9.9.9.9.9.9.9.9.9.9.9.9.",
"9.9.9.9.9.9.9.9.9.9.9.9.9.9.9.9.9.9.9.9.9.9.9.9.9.9.9.9.9.9.9.9.",
"9.9.9.9.9.9.9.9.9.9.9.9.9.9.9.9.9.9.9.9.9.9.9.9.9.9.9.9.9.9.9.9.",
"9.9.9.9.9.9.9.9.9.9.9.9.9.9.9.9.9.9.9.9.9.9.9.9.9.9.9.9.9.9.9.9.",
"9.9.9.9.9.9.9.9.9.9.9.9.9.9.9.9.9.9.9.9.9.9.9.9.9.9.9.9.9.9.9.9.",
"9.9.9.9.9.9.9.9.9.9.9.9.9.9.9.9.9.9.9.9.9.9.9.9.9.9.9.9.9.9.9.9.",
"9.9.9.9.9.9.9.9.9.9.9.9.9.9.9.9.9.9.9.9.9.9.9.9.9.9.9.9.9.9.9.9.",
"9.9.9.9.9.9.9.9.9.9.9.9.9.9.9.9.9.9.9.9.9.9.9.9.9.9.9.9.9.9.9.9."
};
