/* XPM */
static char *result[] = {
/* columns rows colors chars-per-pixel */
"32 32 201 2 ",
"   c #0F0D0F",
".  c #140D16",
"X  c #210D23",
"o  c #270D2B",
"O  c #2E0D30",
"+  c #2E0D33",
"@  c #2F0D35",
"#  c #350D39",
"$  c #370D3D",
"%  c #380D3E",
"&  c #390D40",
"*  c #390D41",
"=  c #3B0D42",
"-  c #3F0D46",
";  c #450D4B",
":  c #440D4C",
">  c #540D48",
",  c #470D50",
"<  c #450D52",
"1  c #4A0D54",
"2  c #4E0D56",
"3  c #4E0D59",
"4  c #4F0D5B",
"5  c #4E0D5C",
"6  c #530D59",
"7  c #500D5A",
"8  c #520D5E",
"9  c #540D61",
"0  c #560D62",
"q  c #560D63",
"w  c #5B0D65",
"e  c #5D0D67",
"r  c #5F0D70",
"t  c #630D6A",
"y  c #620D6F",
"u  c #640D6E",
"i  c #630D72",
"p  c #670D76",
"a  c #6A0D71",
"s  c #6B0D77",
"d  c #6C0D7A",
"f  c #690D7D",
"g  c #6B0D7D",
"h  c #6D0D7E",
"j  c #720D7D",
"k  c #700D7E",
"l  c #6C376E",
"z  c #903C7D",
"x  c #6C0D80",
"c  c #6D0D83",
"v  c #6F0D84",
"b  c #710D84",
"n  c #700D85",
"m  c #730D86",
"M  c #720D87",
"N  c #780D84",
"B  c #790D85",
"V  c #730D89",
"C  c #740D88",
"Z  c #740D89",
"A  c #750D8A",
"S  c #770D8B",
"D  c #730D8C",
"F  c #750D8D",
"G  c #760D8C",
"H  c #770D8E",
"J  c #7E0D8B",
"K  c #790D8F",
"L  c #7D0D8C",
"P  c #780D91",
"I  c #7A0D91",
"U  c #7E0D94",
"Y  c #810D88",
"T  c #820D8D",
"R  c #881684",
"E  c #840D90",
"W  c #840D91",
"Q  c #800D97",
"!  c #820D97",
"~  c #850D95",
"^  c #840D96",
"/  c #890D94",
"(  c #880D97",
")  c #8C0D97",
"_  c #800D99",
"`  c #840D9B",
"'  c #8F0D9B",
"]  c #A30D85",
"[  c #A10D8B",
"{  c #B52B99",
"}  c #850DA4",
"|  c #880DA7",
" . c #8B0DA6",
".. c #8D0DA7",
"X. c #8A0DAA",
"o. c #8C0DAB",
"O. c #8F0DAC",
"+. c #900DA1",
"@. c #960DA0",
"#. c #960DA1",
"$. c #970DA1",
"%. c #950DA2",
"&. c #990DA5",
"*. c #990DA6",
"=. c #9A0DA7",
"-. c #940DAA",
";. c #9F0DAC",
":. c #900DB0",
">. c #910DB2",
",. c #920DB3",
"<. c #970DB2",
"1. c #940DB6",
"2. c #9E0DB6",
"3. c #960DB8",
"4. c #970DB9",
"5. c #970DBA",
"6. c #A00DAC",
"7. c #A20DAD",
"8. c #A80DAE",
"9. c #BC0DA2",
"0. c #A50DB0",
"q. c #A70DB4",
"w. c #A60DB5",
"e. c #A80DB3",
"r. c #A80DB9",
"t. c #A80DBC",
"y. c #AE0DBF",
"u. c #B00DB6",
"i. c #B00DBD",
"p. c #9737A1",
"a. c #B024B9",
"s. c #C1279D",
"d. c #CF0DB1",
"f. c #B84696",
"g. c #BB4699",
"h. c #BA58A0",
"j. c #BF57A8",
"k. c #B67AA3",
"l. c #BD76AA",
"z. c #DA63BF",
"x. c #9C0DC0",
"c. c #9D0DC1",
"v. c #9F0DC4",
"b. c #A20DC7",
"n. c #AD0DC1",
"m. c #A60DCC",
"M. c #A80DCE",
"N. c #A80DCF",
"B. c #AF0DCD",
"V. c #B50DC1",
"C. c #B50DC4",
"Z. c #B70DC6",
"A. c #B90DC5",
"S. c #B40DCA",
"D. c #B70DCD",
"F. c #B80DCE",
"G. c #BA0DCF",
"H. c #AA0DD0",
"J. c #AE0DD7",
"K. c #BD0DD1",
"L. c #B00DD9",
"P. c #B10DDA",
"I. c #B20DDC",
"U. c #B30DDD",
"Y. c #B40DDE",
"T. c #B42CC4",
"R. c #BB0DE6",
"E. c #D318C7",
"W. c #D31CC6",
"Q. c #C20DDD",
"!. c #CA0DDA",
"~. c #D70DDB",
"^. c #D60DDC",
"/. c #F00DDA",
"(. c #C80DE6",
"). c #C00DED",
"_. c #D70DE9",
"`. c #C50DF3",
"'. c #C50DF4",
"]. c #C70DF6",
"[. c #C80DF4",
"{. c #C90DF8",
"}. c #E10DFF",
"|. c #EA0DFF",
" X c #EB0DFF",
".X c #EE0DFF",
"XX c #FF0DF1",
"oX c #FF0DF3",
"OX c #F50DFF",
"+X c #FF40D4",
"@X c #FB50D6",
"#X c #FB66DB",
"$X c #B3A1B4",
"%X c #BDA3B5",
"&X c #B2AFB0",
"*X c #C28CB0",
"=X c #BCC3BD",
"-X c #D1ADC8",
";X c #DFD0DD",
":X c #E4C8DE",
">X c None",
/* pixels */
">X>X>X>X>X>X>X>X>X>X>X>X>X>X>X>X>X>X>X>X>X>X>X>X>X>X>X>X>X>X>X>X",
">X>X>X>X>X>X>X>X>X>X>X>X>X>X>X>X>X>X>X>X>X>X>X>X>X>X>X>X>X>X>X>X",
">X>X>X>X>X>X>X>X>X>X>X>X>X>X>X>X>X>X>X>X>X>X>X>X>X>X>X>X>X>X>X>X",
">X>X>X>X>X>X>X>X>X>X>X>X>X>X>X>X>X>X>X>X>X>X>X>X>X>X>X>X>X>X>X>X",
">X>X>X>X>X>X>X>X>X>X>X>X>X>X>X>X>X>X>X>X>X>X>X>X>X>X>X>X>X>X>X>X",
">X>X>X>X>X>X>X>X>X>X>X>X>X>X>X>X>X>X>X>X>X>X>X>X>X>X>X>X>X>X>X>X",
">X>X>X>X>X>X>X>X>X>X>X>X>X>X>X>X>X>X$.&.>X>X X>X>X>X>X>X>X>X>X>X",
">X>X>X>X>X>X>X>X>X>X>X>X>X>X>X>X>XY j 6 Z.}.(. X>X>X>X>X>X>X>X>X",
">X>X>X>X>X>X>X>X>X>X>X>X>X>X>X>X6.u * 2 B.`.Q.>X>X>X>X>X>X>X>X>X",
">X>X>X>X>X>X>X>X>X>X>X>X>X>X>X>XT d X V L.| t.>X>X>X>X>X>X>X>X>X",
">X>X>X>X>X>X>X>X>X>X>X>X>X>X>X=.N - 4 m.:.f 2.|.>X>X>X>X>X>X>X>X",
">X>X>X>X>X>X>X>X>X>X>X>X>X>X>XE k o i 4.f c G.>X>X>X>X>X>X>X>X>X",
">X>X>X>X>X>X>X>X>X>X>X>X>X>X0.J ; , 3.x G ` D..X>X>X>X>X>X>X>X>X",
">X>X>X>X>X>X>X>X>X>X>X>X>X>X/ d $ 3 ,.h Q F K.>X>X>X>X>X>X>X>X>X",
">X>X>X>X>X>X>X>X>X>X>X>X>Xe.W 1 * c.1.M 5. .S..X>X>X>X>X>X>X>X>X",
">X>X>X>X>X>X>X>X>X>X>X>X>X) s : 9 U.A Q D G K.>X>X>X>X>X>X>X>X>X",
">X>X>X>X>X>X>X>Xy.%.i.>X;.~ w + S H.m ` H L q.>X>X>X>X>X>X>X>X>X",
">X>X>X>X>X>X>XC.[.N.<.F.t e 7 = X.Z Q P f T >X>X>X>X>X>X>X>X>X>X",
">X>X>X>X>X>X>XOXM.< I.U #   O X.H.b ,.>.H +.V.>X>X>X>X>X>X>X>X>X",
">X>X>X>X>X>X>XoX> l Y.m.n @ y v.} g Q m 5 a >X>X>X>X>X>X>X>X>X>X",
">X>X>X>X>X>X>Xu.z $Xp.T.a.R _ J.X.v H q . % n._.>X>X>X>X>X>X>X>X",
">X>X>X>X>X>X>X>X+X:X=X&Xk.W.).J.o.U C 0 & r ! *.!.A.>X>X>X>X>X>X",
">X>X>X>X>X>X>X>X>X@X;X%Xg.~.R.x.O.K p @ 8 B ' #.>X>X>X>X>X>X>X>X",
">X>X>X>X>X>X>X>X>XXX#X-Xf.s.`.{.P.b...I ( @.>X>X>X>X>X>X>X>X>X>X",
">X>X>X>X>X>X>X>X>X>X/.z.*Xh.^.'.].H._ -.r.>X>X>X>X>X>X>X>X>X>X>X",
">X>X>X>X>X>X>X>X>X>X>Xd.{ l.j.E.E.7.^ w.>X>X>X>X>X>X>X>X>X>X>X>X",
">X>X>X>X>X>X>X>X>X>X>X>X>X9.] [ [ 8.>X>X>X>X>X>X>X>X>X>X>X>X>X>X",
">X>X>X>X>X>X>X>X>X>X>X>X>X>X>X>X>X>X>X>X>X>X>X>X>X>X>X>X>X>X>X>X",
">X>X>X>X>X>X>X>X>X>X>X>X>X>X>X>X>X>X>X>X>X>X>X>X>X>X>X>X>X>X>X>X",
">X>X>X>X>X>X>X>X>X>X>X>X>X>X>X>X>X>X>X>X>X>X>X>X>X>X>X>X>X>X>X>X",
">X>X>X>X>X>X>X>X>X>X>X>X>X>X>X>X>X>X>X>X>X>X>X>X>X>X>X>X>X>X>X>X",
">X>X>X>X>X>X>X>X>X>X>X>X>X>X>X>X>X>X>X>X>X>X>X>X>X>X>X>X>X>X>X>X"
};
