/* XPM */
static char *result[] = {
/* columns rows colors chars-per-pixel */
"32 32 138 2 ",
"   c #3D1C3F",
".  c #3E0D47",
"X  c #480D4E",
"o  c #490D51",
"O  c #4A0D55",
"+  c #6D0D5E",
"@  c #5D0D66",
"#  c #690D7D",
"$  c #6B0D7E",
"%  c #710D83",
"&  c #720D87",
"*  c #730D89",
"=  c #750D8A",
"-  c #760D8A",
";  c #720D8C",
":  c #750D8D",
">  c #7D0D8D",
",  c #7C0D8F",
"<  c #7A0D90",
"1  c #7D0D91",
"2  c #7E0D96",
"3  c #7E0D97",
"4  c #8F0F87",
"5  c #8E0E8B",
"6  c #800D93",
"7  c #800D96",
"8  c #830D96",
"9  c #8B0D90",
"0  c #890D97",
"q  c #8B0D9A",
"w  c #8D0D9B",
"e  c #890D9D",
"r  c #8A0D9C",
"t  c #880D9F",
"y  c #900D99",
"u  c #920D9E",
"i  c #950D9E",
"p  c #940D9F",
"a  c #B92199",
"s  c #840DA1",
"d  c #860DA5",
"f  c #8D0DA5",
"g  c #8C0DAA",
"h  c #8E0DAE",
"j  c #950DA1",
"k  c #960DA1",
"l  c #950DA2",
"z  c #960DAA",
"x  c #9D0DA9",
"c  c #910DB1",
"v  c #950DB0",
"b  c #970DB2",
"n  c #960DB5",
"m  c #9B0DB4",
"M  c #960DB8",
"N  c #970DBB",
"B  c #9C0DB9",
"V  c #990DBC",
"C  c #9B0DBE",
"Z  c #9C0DBC",
"A  c #9F0DBE",
"S  c #A00DAA",
"D  c #A00DAC",
"F  c #A50DAF",
"G  c #A10DB1",
"H  c #A00DB3",
"J  c #A50DB0",
"K  c #A00DB6",
"L  c #AA0DB7",
"P  c #A90DB9",
"I  c #AC0DBA",
"U  c #AA0DBC",
"Y  c #AE0DBC",
"T  c #D113A9",
"R  c #E33ABF",
"E  c #A24C9B",
"W  c #B75D99",
"Q  c #BA589B",
"!  c #B8599D",
"~  c #837481",
"^  c #BC5BB0",
"/  c #9D0DC1",
"(  c #9E0DC2",
")  c #9F0DC4",
"_  c #A20DC1",
"`  c #AF0DC6",
"'  c #A30DC8",
"]  c #A60DCC",
"[  c #A70DCC",
"{  c #A70DCE",
"}  c #A80DCB",
"|  c #A90DCF",
" . c #B10DC3",
".. c #B50DC1",
"X. c #BB0DC7",
"o. c #B10DC8",
"O. c #B10DC9",
"+. c #B40DCD",
"@. c #AA0DD0",
"#. c #AB0DD3",
"$. c #AD0DD3",
"%. c #AE0DD6",
"&. c #AF0DD7",
"*. c #B20DDC",
"=. c #B50DDF",
"-. c #BD0DDB",
";. c #B60DE0",
":. c #B70DE2",
">. c #BE0DEB",
",. c #C50DD9",
"<. c #C80DD9",
"1. c #D20DD7",
"2. c #FF0DD9",
"3. c #C00DED",
"4. c #C10DEF",
"5. c #D30DE7",
"6. c #D20DE9",
"7. c #D50DE8",
"8. c #DA0DEB",
"9. c #C20DF0",
"0. c #C30DF1",
"q. c #CF0DFB",
"w. c #FF0DE6",
"e. c #FF0DE8",
"r. c #EE0DF4",
"t. c #EA0DFF",
"y. c #ED0DFF",
"u. c #FF0DF0",
"i. c #F77CDC",
"p. c #AF9AB2",
"a. c #B093B4",
"s. c #B5ABB2",
"d. c #E190CD",
"f. c #D0BDCB",
"g. c #F497E1",
"h. c #D6CAD4",
"j. c #D5D0D3",
"k. c None",
/* pixels */
"k.k.k.k.k.k.k.k.k.k.k.k.k.k.k.k.k.k.k.k.k.k.k.k.k.k.k.k.k.k.k.k.",
"k.k.k.k.k.k.k.k.k.k.k.k.k.k.k.k.k.k.k.k.k.k.k.k.k.k.k.k.k.k.k.k.",
"k.k.k.k.k.k.k.k.k.k.k.k.k.k.k.k.k.k.k.k.k.k.k.k.k.k.k.k.k.k.k.k.",
"k.k.k.k.k.k.k.k.k.k.k.k.k.k.k.k.k.k.k.k.k.k.k.k.k.k.k.k.k.k.k.k.",
"k.k.k.k.k.k.k.k.k.k.k.k.k.k.k.k.k.k.k.k.k.k.k.k.k.k.k.k.k.k.k.k.",
"k.k.k.k.k.k.k.k.k.k.k.k.k.k.k.k.k.k.k.k.k.k.k.k.k.k.k.k.k.k.k.k.",
"k.k.k.k.k.k.k.k.k.k.k.k.k.k.k.k.k.k.k.k.k.k.k.k.k.k.k.k.k.k.k.k.",
"k.k.k.k.k.k.k.k.k.k.k.k.k.k.k.k.k.k.k.k.k.k.k.k.k.k.k.k.k.k.k.k.",
"k.k.k.k.k.k.k.k.k.k.k.k.k.k.k.k.k.k.k.k.k.k.F y k.k.k.k.k.k.k.k.",
"k.k.k.k.k.k.k.k.k.k.k.k.k.k.k.k.k.k.k.k.k.6.z $.-.k.k.k.k.k.k.k.",
"k.k.k.k.k.k.k.k.k.k.k.k.k.k.k.k.k.k.k.k.k.` C ; q.k.k.k.k.k.k.k.",
"k.k.k.k.k.k.k.k.k.k.k.k.k.k.k.k.k.k.k.y.,.&.;.  S u.k.k.k.k.k.k.",
"k.k.k.k.k.k.k.k.k.t.7.7.7.7.7.7.7.7.5.O.[ ' H ~ + r.k.k.k.k.k.k.",
"k.k.k.k.k.k.k.X.8.+.B f v | 4.;.} b 9 a ^ a.p.h.R k.k.k.k.k.k.k.",
"k.k.k.k.k.k.k.k...j > . O $ N 9.3.c & 1.W s.j.i.e.k.k.k.k.k.k.k.",
"k.k.k.k.k.k.k.k.k.k.D X o < 2 0.0.>.#.4 Q f.g.w.k.k.k.k.k.k.k.k.",
"k.k.k.k.k.k.k.k.k.k.k.u 7 c M *.=.%.%.5 ! d.2.k.k.k.k.k.k.k.k.k.",
"k.k.k.k.k.k.k.k.k.k.k.i r = { ( %.:.@.V E T k.k.k.k.k.k.k.k.k.k.",
"k.k.k.k.k.k.k.k.k.k.k.k.l t d s N %.n h @ k.k.k.k.k.k.k.k.k.k.k.",
"k.k.k.k.k.k.k.k.k.k.k.k.I w , : : / : / A k.k.k.k.k.k.k.k.k.k.k.",
"k.k.k.k.k.k.k.k.k.k.k.k.k.k 6 % - s g * _ U k.k.k.k.k.k.k.k.k.k.",
"k.k.k.k.k.k.k.k.k.k.k.k.k.L l 8 3 # ) = ] o.k.k.k.k.k.k.k.k.k.k.",
"k.k.k.k.k.k.k.k.k.k.k.k.k.k.J G q 0 Z e 1 m k.k.k.k.k.k.k.k.k.k.",
"k.k.k.k.k.k.k.k.k.k.k.k.k.k.k.k.x <. .P p K Y k.k.k.k.k.k.k.k.k.",
"k.k.k.k.k.k.k.k.k.k.k.k.k.k.k.k.k.k.k.k.k.k.k.k.k.k.k.k.k.k.k.k.",
"k.k.k.k.k.k.k.k.k.k.k.k.k.k.k.k.k.k.k.k.k.k.k.k.k.k.k.k.k.k.k.k.",
"k.k.k.k.k.k.k.k.k.k.k.k.k.k.k.k.k.k.k.k.k.k.k.k.k.k.k.k.k.k.k.k.",
"k.k.k.k.k.k.k.k.k.k.k.k.k.k.k.k.k.k.k.k.k.k.k.k.k.k.k.k.k.k.k.k.",
"k.k.k.k.k.k.k.k.k.k.k.k.k.k.k.k.k.k.k.k.k.k.k.k.k.k.k.k.k.k.k.k.",
"k.k.k.k.k.k.k.k.k.k.k.k.k.k.k.k.k.k.k.k.k.k.k.k.k.k.k.k.k.k.k.k.",
"k.k.k.k.k.k.k.k.k.k.k.k.k.k.k.k.k.k.k.k.k.k.k.k.k.k.k.k.k.k.k.k.",
"k.k.k.k.k.k.k.k.k.k.k.k.k.k.k.k.k.k.k.k.k.k.k.k.k.k.k.k.k.k.k.k."
};
