/* XPM */
static char *result[] = {
/* columns rows colors chars-per-pixel */
"32 32 119 2 ",
"   c #3A153D",
".  c #3D0D43",
"X  c #470D53",
"o  c #510D5C",
"O  c #710D5E",
"+  c #432243",
"@  c #5F0D6F",
"#  c #600D6B",
"$  c #620D6F",
"%  c #650D6C",
"&  c #670D6F",
"*  c #650D71",
"=  c #640D7A",
"-  c #6B0D7B",
";  c #6C0D7D",
":  c #710D86",
">  c #760D8C",
",  c #790D89",
"<  c #7A0D8A",
"1  c #7B0D8C",
"2  c #7C0D8F",
"3  c #7C0D91",
"4  c #7E0D94",
"5  c #7C0D96",
"6  c #8A0D84",
"7  c #800D96",
"8  c #830D96",
"9  c #890D94",
"0  c #840D9D",
"q  c #900D9A",
"w  c #920D9B",
"e  c #950D99",
"r  c #920D9E",
"t  c #890DA4",
"y  c #890DA5",
"u  c #8B0DA6",
"i  c #8C0DAA",
"p  c #8C0DAC",
"a  c #930DA2",
"s  c #960DA1",
"d  c #970DA2",
"f  c #900DAF",
"g  c #960DAC",
"h  c #9E13AB",
"j  c #910DB2",
"k  c #930DB4",
"l  c #960DB5",
"z  c #970DB6",
"x  c #970DBB",
"c  c #9B0DBF",
"v  c #A00DAC",
"b  c #A10DAD",
"n  c #A50DAF",
"m  c #AD0DBB",
"M  c #AF0DBA",
"N  c #A80DBC",
"B  c #A80DBD",
"V  c #AA0DBD",
"C  c #B00DBD",
"Z  c #92418F",
"A  c #B862A8",
"S  c #9D0DC1",
"D  c #9F0DC3",
"F  c #A30DC3",
"G  c #AB0DC2",
"H  c #AF0DC6",
"J  c #A30DC8",
"K  c #A30DC9",
"L  c #A40DCA",
"P  c #A70DCD",
"I  c #AB0DCC",
"U  c #B50DC4",
"Y  c #BB0DC7",
"T  c #BE0DCC",
"R  c #AE0DD6",
"E  c #AE0DD7",
"W  c #B00DD9",
"Q  c #B20DDC",
"!  c #B30DDD",
"~  c #BC0DD8",
"^  c #B60DE0",
"/  c #B60DE1",
"(  c #B70DE2",
")  c #BC0DE5",
"_  c #BD0DEA",
"`  c #BE0DEB",
"'  c #C00DCD",
"]  c #DA0DC2",
"[  c #C00DD6",
"{  c #CD0DDD",
"}  c #D10DDA",
"|  c #F13CCB",
" . c #C00DE1",
".. c #CB0DE0",
"X. c #CB0DE3",
"o. c #CD0DE3",
"O. c #CE0DE2",
"+. c #C00DED",
"@. c #D30DE4",
"#. c #D50DE8",
"$. c #D60DEA",
"%. c #DC0DEC",
"&. c #C30DF1",
"*. c #C40DF2",
"=. c #C70DF6",
"-. c #CF0DF8",
";. c #FF0DEF",
":. c #E70DFD",
">. c #ED0DFF",
",. c #FF0DF3",
"<. c #F76EDA",
"1. c #8E818F",
"2. c #A3899C",
"3. c #A99AA5",
"4. c #AFA2B2",
"5. c #B3AAB6",
"6. c #DDCADA",
"7. c #D3D1D3",
"8. c None",
/* pixels */
"8.8.8.8.8.8.8.8.8.8.8.8.8.8.8.8.8.8.8.8.8.8.8.8.8.8.8.8.8.8.8.8.",
"8.8.8.8.8.8.8.8.8.8.8.8.8.8.8.8.8.8.8.8.8.8.8.8.8.8.8.8.8.8.8.8.",
"8.8.8.8.8.8.8.8.8.8.8.8.8.8.8.8.8.8.8.8.8.8.8.8.8.8.8.8.8.8.8.8.",
"8.8.8.8.8.8.8.8.8.8.8.8.8.8.8.8.8.8.8.8.8.8.8.8.8.8.8.8.8.8.8.8.",
"8.8.8.8.8.8.8.8.8.8.8.8.8.8.8.8.8.8.8.8.8.8.8.8.8.8.8.8.8.8.8.8.",
"8.8.8.8.8.8.8.8.8.8.8.8.8.8.8.8.8.8.8.8.8.8.8.8.8.8.8.8.8.8.8.8.",
"8.8.8.8.8.8.8.8.8.8.8.8.8.8.8.8.8.8.8.8.8.8.8.8.8.8.8.8.8.8.8.8.",
"8.8.8.8.8.8.8.8.8.8.8.8.8.8.8.8.8.8.8.8.8.8.8.8.8.8.8.8.8.8.8.8.",
"8.8.8.8.8.8.8.8.8.8.8.8.8.8.8.8.8.8.8.8.8.8.8.8.8.8.8.8.8.8.8.8.",
"8.8.8.8.8.8.8.8.8.8.8.8.8.8.8.8.8.8.8.8.8.8.8.8.8.8.8.8.8.8.8.8.",
"8.8.8.8.8.8.8.8.8.8.8.8.8.8.8.8.8.8.8.8.8.8.b w 8.8.8.8.8.8.8.8.",
"8.8.8.8.8.8.8.8.8.8.8.8.8.8.8.8.8.8.8.8.8.o.g Q  .8.8.8.8.8.8.8.",
"8.8.8.8.8.8.8.8.8.8.8.8.8.8.8.8.8.8.8.8.8.G S = -.8.8.8.8.8.8.8.",
"8.8.8.8.8.8.8.8.8.8.8.8.8.8.8.8.8.8.8.:.[ W / + e ;.8.8.8.8.8.8.",
"8.8.8.8.8.8.8.8.8.:.#.m 9 s O.$.#.@...B I F h 1.O } 8.8.8.8.8.8.",
"8.8.8.8.8.8.8.Y #.H 8 * 2 l P *.J , ; 6 A 4.5.6.| 8.8.8.8.8.8.8.",
"8.8.8.8.8.8.8.8.C d # . @ - i R ` _ ( 5 Z 3.7.<.,.8.8.8.8.8.8.8.",
"8.8.8.8.8.8.8.8.8.8.n % o 4 k D K E =.! 3   2.] 8.8.8.8.8.8.8.8.",
"8.8.8.8.8.8.8.8.8.8.8.8.& $ t p L x ^ &.x : X r 8.8.8.8.8.8.8.8.",
"8.8.8.8.8.8.8.8.8.8.8.8.M a 7 > u f j J 0 c +.X.8.8.8.8.8.8.8.8.",
"8.8.8.8.8.8.8.8.8.8.8.8.8.U N 1 < 8 z y ) V { >.8.8.8.8.8.8.8.8.",
"8.8.8.8.8.8.8.8.8.8.8.8.8.8.%.v v q H ~ ' 8.8.8.8.8.8.8.8.8.8.8.",
"8.8.8.8.8.8.8.8.8.8.8.8.8.8.8.8.8.8.T 8.8.8.8.8.8.8.8.8.8.8.8.8.",
"8.8.8.8.8.8.8.8.8.8.8.8.8.8.8.8.8.8.8.8.8.8.8.8.8.8.8.8.8.8.8.8.",
"8.8.8.8.8.8.8.8.8.8.8.8.8.8.8.8.8.8.8.8.8.8.8.8.8.8.8.8.8.8.8.8.",
"8.8.8.8.8.8.8.8.8.8.8.8.8.8.8.8.8.8.8.8.8.8.8.8.8.8.8.8.8.8.8.8.",
"8.8.8.8.8.8.8.8.8.8.8.8.8.8.8.8.8.8.8.8.8.8.8.8.8.8.8.8.8.8.8.8.",
"8.8.8.8.8.8.8.8.8.8.8.8.8.8.8.8.8.8.8.8.8.8.8.8.8.8.8.8.8.8.8.8.",
"8.8.8.8.8.8.8.8.8.8.8.8.8.8.8.8.8.8.8.8.8.8.8.8.8.8.8.8.8.8.8.8.",
"8.8.8.8.8.8.8.8.8.8.8.8.8.8.8.8.8.8.8.8.8.8.8.8.8.8.8.8.8.8.8.8.",
"8.8.8.8.8.8.8.8.8.8.8.8.8.8.8.8.8.8.8.8.8.8.8.8.8.8.8.8.8.8.8.8.",
"8.8.8.8.8.8.8.8.8.8.8.8.8.8.8.8.8.8.8.8.8.8.8.8.8.8.8.8.8.8.8.8."
};
