/* XPM */
static char *result[] = {
/* columns rows colors chars-per-pixel */
"32 32 206 2 ",
"   c #100E10",
".  c #1F0D20",
"X  c #210D23",
"o  c #250D2A",
"O  c #270D2B",
"+  c #300D36",
"@  c #320D37",
"#  c #350D3C",
"$  c #370D3D",
"%  c #370D3E",
"&  c #3B0D41",
"*  c #3D0D43",
"=  c #3E0D44",
"-  c #400D48",
";  c #410D48",
":  c #410D49",
">  c #400D4A",
",  c #410D4A",
"<  c #420D4B",
"1  c #430D4E",
"2  c #450D4D",
"3  c #4A0D4E",
"4  c #4A0D52",
"5  c #4C0D58",
"6  c #500D5A",
"7  c #520D5B",
"8  c #540D5E",
"9  c #533B50",
"0  c #520D61",
"q  c #540D60",
"w  c #5D0D67",
"e  c #5E0D68",
"r  c #5C0D6B",
"t  c #5E0D6E",
"y  c #600D68",
"u  c #640D73",
"i  c #650D76",
"p  c #690D76",
"a  c #6F0D79",
"s  c #690D7D",
"d  c #6B0D7E",
"f  c #6B0D7F",
"g  c #6E0D7D",
"h  c #6D0D7E",
"j  c #7B0D73",
"k  c #700D7C",
"l  c #971E7D",
"z  c #6F0D83",
"x  c #710D81",
"c  c #720D81",
"v  c #710D84",
"b  c #710D86",
"n  c #760D85",
"m  c #780D83",
"M  c #7A0D86",
"N  c #7C0D86",
"B  c #730D89",
"V  c #730D8A",
"C  c #760D88",
"Z  c #740D8B",
"A  c #770D8F",
"S  c #7D0D8A",
"D  c #780D8D",
"F  c #7A0D8E",
"G  c #780D91",
"H  c #7A0D91",
"J  c #790D93",
"K  c #7A0D92",
"L  c #7C0D92",
"P  c #7E0D93",
"I  c #7A0D95",
"U  c #7E0D94",
"Y  c #7D0D97",
"T  c #7F0D9B",
"R  c #830D8C",
"E  c #8D1B89",
"W  c #840D91",
"Q  c #810D96",
"!  c #800D97",
"~  c #840D94",
"^  c #870D94",
"/  c #840D97",
"(  c #870D96",
")  c #880D95",
"_  c #8B0D97",
"`  c #820D9A",
"'  c #840D98",
"]  c #840D9F",
"[  c #8D0D98",
"{  c #8D0D9B",
"}  c #900D9A",
"|  c #920D9B",
" . c #940D9F",
".. c #A10D8B",
"X. c #AA0D8B",
"o. c #BC2C92",
"O. c #BB239B",
"+. c #860DA1",
"@. c #8C0DA3",
"#. c #8F0DA6",
"$. c #8A0DA9",
"%. c #8A0DAA",
"&. c #8F0DAC",
"*. c #8E0DAE",
"=. c #970DA4",
"-. c #990DA2",
";. c #9A0DAA",
":. c #9B0DAA",
">. c #9A0DAC",
",. c #900DB1",
"<. c #920DB0",
"1. c #910DB2",
"2. c #930DB2",
"3. c #920DB3",
"4. c #940DB5",
"5. c #950DB7",
"6. c #9B0DB0",
"7. c #9B0DB6",
"8. c #970DB9",
"9. c #970DBA",
"0. c #970DBB",
"q. c #9A0DBD",
"w. c #9B0DBE",
"e. c #9B0DBF",
"r. c #A00DAC",
"t. c #A30DAF",
"y. c #AB0DAC",
"u. c #BD0DA7",
"i. c #A10DB1",
"p. c #A50DB0",
"a. c #A40DB1",
"s. c #A40DB5",
"d. c #A80DB3",
"f. c #AA0DB6",
"g. c #AD0DB9",
"h. c #A80DBF",
"j. c #AA0DBE",
"k. c #B10DB6",
"l. c #B20DBE",
"z. c #AB2DBA",
"x. c #CA0DB8",
"c. c #CC2DBA",
"v. c #B9579A",
"b. c #B8579B",
"n. c #B7649F",
"m. c #9D41A5",
"M. c #BE67A5",
"N. c #BB6AA7",
"B. c #D94FBC",
"V. c #9F0DC3",
"C. c #A00DC5",
"Z. c #AD0DC2",
"A. c #A30DC9",
"S. c #A50DCB",
"D. c #A70DCE",
"F. c #B40DC3",
"G. c #B00DC4",
"H. c #BB0DC7",
"J. c #B10DCA",
"K. c #AA0DD2",
"L. c #AC0DD4",
"P. c #B00DD9",
"I. c #B20DDB",
"U. c #B40DDE",
"Y. c #BE0DDD",
"T. c #B824C5",
"R. c #B80DE3",
"E. c #BE0DEB",
"W. c #D30EC9",
"Q. c #D11AC4",
"!. c #D214CB",
"~. c #D419C8",
"^. c #C80DD8",
"/. c #FF23CE",
"(. c #FF33D2",
"). c #C30DE7",
"_. c #C20DEB",
"`. c #C00DED",
"'. c #C70DEC",
"]. c #CE0DEC",
"[. c #D10DE5",
"{. c #C60DF5",
"}. c #C90DF6",
"|. c #C90DF7",
" X c #C90DF8",
".X c #F60DEB",
"XX c #E10DF6",
"oX c #E30DF9",
"OX c #E20DFF",
"+X c #E80DFF",
"@X c #E90DFF",
"#X c #EA0DFF",
"$X c #EB0DFF",
"%X c #FF0DF1",
"&X c #F90DFF",
"*X c #FF49D7",
"=X c #B487A3",
"-X c #AFA6AF",
";X c #B2B4B1",
":X c #BEB2BA",
">X c #CB92BC",
",X c #DAB4CF",
"<X c #EEBAE3",
"1X c #C2C6C1",
"2X c #E6C7E1",
"3X c None",
/* pixels */
"3X3X3X3X3X3X3X3X3X3X3X3X3X3X3X3X3X3X3X3X3X3X3X3X3X3X3X3X3X3X3X3X",
"3X3X3X3X3X3X3X3X3X3X3X3X3X3X3X3X3X3X3X3X3X3X3X3X3X3X3X3X3X3X3X3X",
"3X3X3X3X3X3X3X3X3X3X3X3X3X3X3X3X3X3X3X3X3X3X3X3X3X3X3X3X3X3X3X3X",
"3X3X3X3X3X3X3X3X3X3X3X3X3X3X3X3X3X3X3X3X3X3X3X3X3X3X3X3X3X3X3X3X",
"3X3X3X3X3X3X3X3X3X3X3X3X3X3X3X3X3X3X3X3X3X3X3X3X3X3X3X3X3X3X3X3X",
"3X3X3X3X3X3X3X3X3X3X3X3X3X3X3X3X3X3X3X3X3X3X3X3X3X3X3X3X3X3X3X3X",
"3X3X3X3X3X3X3X3X3X#X@X3X3X-.3X3X3X3X3X3X3X3X3X3X3X3X3X3X3X3X3X3X",
"3X3X3X3X3X3X3X3X3X+X].OXa.3 N R 3X3X3X3X3X3X3X3X3X3X3X3X3X3X3X3X",
"3X3X3X3X3X3X3X3X3X3XY.}.7.: - a d.3X3X3X3X3X3X3X3X3X3X3X3X3X3X3X",
"3X3X3X3X3X3X3X3X3XXX6.1.L.t O x ^ 3X3X3X3X3X3X3X3X3X3X3X3X3X3X3X",
"3X3X3X3X3X3X3X3X3XoX@.s w.q.> 4 S p.3X3X3X3X3X3X3X3X3X3X3X3X3X3X",
"3X3X3X3X3X3X3X3X3X3XZ.f v e.5 $ c _ 3X3X3X3X3X3X3X3X3X3X3X3X3X3X",
"3X3X3X3X3X3X3X3X3X$Xh.` b B ,.& 6 W f.3X3X3X3X3X3X3X3X3X3X3X3X3X",
"3X3X3X3X3X3X3X3X3X3XG.Z ! d 3.= 2 g } 3X3X3X3X3X3X3X3X3X3X3X3X3X",
"3X3X3X3X3X3X3X3X3X$Xj.$.8.v C.*.@ w ( g.3X3X3X3X3X3X3X3X3X3X3X3X",
"3X3X3X3X3X3X3X3X3X3XG.V A L Y L., 8 k | 3X3X3X3X3X3X3X3X3X3X3X3X",
"3X3X3X3X3X3X3X3X3X3Xt.C U Q K D.h O p [ p.@Xr.:.F.3X3X3X3X3X3X3X",
"3X3X3X3X3X3X3X3X3X3X3XM z K U J T + e 7 m J.<.I.'.3X3X3X3X3X3X3X",
"3X3X3X3X3X3X3X3X3X3Xl./ U 9.%.Z P.G X   ; +.K.1 ).&X3X3X3X3X3X3X",
"3X3X3X3X3X3X3X3X3X3X3Xy 0 D ! i 0.4.q % I L.L.9 j %X3X3X3X3X3X3X",
"3X3X3X3X3X3X3X3X3X[.>.o . u A d q.S.P E T.z.m.-Xl 3X3X3X3X3X3X3X",
"3X3X3X3X3X3X3XH.^.{ ' 0 * r F H 5.P.`.c.=X;X1X<X/.3X3X3X3X3X3X3X",
"3X3X3X3X3X3X3X3X3X .) n < # d U 2.V.E.W.v.:X2X(.3X3X3X3X3X3X3X3X",
"3X3X3X3X3X3X3X3X3X3Xp.=.~ U &.A.R.|._.o.b.,X*X3X3X3X3X3X3X3X3X3X",
"3X3X3X3X3X3X3X3X3X3X3X3Xs.#.] U. X{.!.n.>XB..X3X3X3X3X3X3X3X3X3X",
"3X3X3X3X3X3X3X3X3X3X3X3X3Xi./ k.~.Q.M.N.O.x.3X3X3X3X3X3X3X3X3X3X",
"3X3X3X3X3X3X3X3X3X3X3X3X3X3X;.y.....X.u.3X3X3X3X3X3X3X3X3X3X3X3X",
"3X3X3X3X3X3X3X3X3X3X3X3X3X3X3X3X3X3X3X3X3X3X3X3X3X3X3X3X3X3X3X3X",
"3X3X3X3X3X3X3X3X3X3X3X3X3X3X3X3X3X3X3X3X3X3X3X3X3X3X3X3X3X3X3X3X",
"3X3X3X3X3X3X3X3X3X3X3X3X3X3X3X3X3X3X3X3X3X3X3X3X3X3X3X3X3X3X3X3X",
"3X3X3X3X3X3X3X3X3X3X3X3X3X3X3X3X3X3X3X3X3X3X3X3X3X3X3X3X3X3X3X3X",
"3X3X3X3X3X3X3X3X3X3X3X3X3X3X3X3X3X3X3X3X3X3X3X3X3X3X3X3X3X3X3X3X"
};
