/* XPM */
static char *result[] = {
/* columns rows colors chars-per-pixel */
"32 32 173 2 ",
"   c #3E0D48",
".  c #450D4F",
"X  c #4F0D54",
"o  c #560D66",
"O  c #5E0D64",
"+  c #5C0D69",
"@  c #5E0D6B",
"#  c #610D6E",
"$  c #640D71",
"%  c #670D79",
"&  c #6B0D7E",
"*  c #6B3A6F",
"=  c #783F7A",
"-  c #710D82",
";  c #710D83",
":  c #710D84",
">  c #720D87",
",  c #750D87",
"<  c #740D88",
"1  c #740D8B",
"2  c #770D8B",
"3  c #770D8F",
"4  c #780D8A",
"5  c #790D8C",
"6  c #7A0D8E",
"7  c #7D0D8C",
"8  c #7A0D90",
"9  c #7A0D92",
"0  c #7E0D92",
"q  c #7E0D93",
"w  c #7D0D97",
"e  c #7D0D99",
"r  c #7E0D9A",
"t  c #7F0D9B",
"y  c #820D8A",
"u  c #810D92",
"i  c #800D96",
"p  c #830D96",
"a  c #860D97",
"s  c #8C0D97",
"d  c #820D98",
"f  c #810D9C",
"g  c #830D9C",
"h  c #810D9E",
"j  c #830D9F",
"k  c #890D9A",
"l  c #8B0D9A",
"z  c #8D0D9B",
"x  c #8E0D9A",
"c  c #890D9D",
"v  c #8A0D9F",
"b  c #A60D98",
"n  c #850DA4",
"m  c #890DA1",
"M  c #8C0DA3",
"N  c #8E0DA2",
"B  c #890DA4",
"V  c #8B0DA8",
"C  c #8A0DAA",
"Z  c #8D0DA9",
"A  c #8E0DA8",
"S  c #8D0DAA",
"D  c #8E0DAD",
"F  c #8E0DAE",
"G  c #970DA1",
"H  c #950DA2",
"J  c #930DAB",
"K  c #950DA8",
"L  c #960DAA",
"P  c #970DAF",
"I  c #9E0DA9",
"U  c #980DAD",
"Y  c #9C0DAE",
"T  c #900DB0",
"R  c #920DB0",
"E  c #950DB7",
"W  c #9B0DB0",
"Q  c #990DB2",
"!  c #960DB8",
"~  c #9A0DBD",
"^  c #9B0DBE",
"/  c #A10DAD",
"(  c #B20DA5",
")  c #A70DB4",
"_  c #A90DB4",
"`  c #A80DB6",
"'  c #AA0DB6",
"]  c #AE0DBD",
"[  c #AF0DBF",
"{  c #B00DBD",
"}  c #B10DBF",
"|  c #FF0DB6",
" . c #E333BC",
".. c #E138BD",
"X. c #B375AA",
"o. c #9D0DC1",
"O. c #A60DC6",
"+. c #AA0DC0",
"@. c #AF0DC6",
"#. c #AA0DC8",
"$. c #AA0DCB",
"%. c #B40DC3",
"&. c #B20DC4",
"*. c #B10DCA",
"=. c #AD0DD2",
"-. c #BD0DD0",
";. c #BD0DD2",
":. c #BF0DD4",
">. c #B70DDA",
",. c #B50DDC",
"<. c #BA0DD8",
"1. c #BC0DDB",
"2. c #BF0DDF",
"3. c #BF0DE0",
"4. c #BB0DE6",
"5. c #BF0DEB",
"6. c #CD0DCF",
"7. c #C20DD4",
"8. c #C00DD6",
"9. c #F10DC9",
"0. c #F60DD3",
"q. c #CB0DE3",
"w. c #C60DE9",
"e. c #C30DEE",
"r. c #C90DEB",
"t. c #C90DEF",
"y. c #CF0DEE",
"u. c #D30DE7",
"i. c #D20DE9",
"p. c #D30DEA",
"a. c #D50DE8",
"s. c #D60DEA",
"d. c #C30DF1",
"f. c #C40DF0",
"g. c #C40DF2",
"h. c #C60DF5",
"j. c #CA0DF1",
"k. c #CC0DF2",
"l. c #D00DF0",
"z. c #DA0DF2",
"x. c #DB0DF4",
"c. c #DA0DF6",
"v. c #D60DFD",
"b. c #D40DFF",
"n. c #D80DF8",
"m. c #E10DF6",
"M. c #E20DF6",
"N. c #E30DF8",
"B. c #E50DF9",
"V. c #E40DFF",
"C. c #E60DFF",
"Z. c #E70DFF",
"A. c #E90DFD",
"S. c #E90DFF",
"D. c #ED0DFF",
"F. c #EE0DFF",
"G. c #FF0DF7",
"H. c #8C938D",
"J. c #988F93",
"K. c #9D839B",
"L. c #B081AD",
"P. c #BE9DBC",
"I. c #C58FBB",
"U. c #DB81C7",
"Y. c #D1B0CC",
"T. c #E2A1D4",
"R. c #DFDFDF",
"E. c gray88",
"W. c gray89",
"Q. c #E0E6E1",
"!. c #E3E9E3",
"~. c #E1EAE3",
"^. c None",
/* pixels */
"^.^.^.^.^.^.^.^.^.^.^.^.^.^.^.^.^.^.^.^.^.^.^.^.^.^.^.^.^.^.^.^.",
"^.^.^.^.^.^.^.^.^.^.^.^.^.^.^.^.^.^.^.^.^.^.^.^.^.^.^.^.^.^.^.^.",
"^.^.^.^.^.^.^.^.^.^.^.^.^.^.^.^.^.^.^.^.^.^.^.^.^.^.^.^.^.^.^.^.",
"^.^.^.^.^.^.^.^.^.^.^.^.^.^.^.^.^.^.^.^.^.^.^.^.^.^.^.^.^.^.^.^.",
"^.^.^.^.^.^.^.^.^.^.^.^.^.^.^.^.^.^.^.^.^.^.^.^.^.^.^.^.^.^.^.^.",
"^.^.^.^.^.^.^.^.^.^.^.^.^.^.^.^.^.^.^.^.^.^.^.^.^.^.^.^.^.^.^.^.",
"^.^.^.^.^.^.^.^.^.^.F.^.^.^.^.^.^.^.^.^.^.^.F.^.^.^.^.^.^.^.^.^.",
"^.^.^.^.^.^.^.^.^.^.C.^.^.^.^.^.^.^.^.^.^.A.C.^.^.^.^.^.^.^.^.^.",
"^.^.^.^.^.^.^.^.^.Z.l.u.^.^.^.^.^.^.^.^.^.q.n.^.^.^.^.^.^.^.^.^.",
"^.^.^.^.^.^.^.^.^.z.p ;.^.^.^.^.D.^.^.^.B.@.c Z.^.^.^.^.^.^.^.^.",
"^.^.^.^.^.^.^.^.^.7.3 3.^.^.^.^.M.^.^.^.^.>.4 a.^.^.^.^.^.^.^.^.",
"^.^.^.^.^.^.^.^.^.c.E k.^.^.^.p.*.m.^.^.^.f.R V.^.^.^.^.^.^.^.^.",
"^.^.^.^.^.^.^.^.S.1.n t.^.^.^.y.4.+.^.^.^.e.g 2.^.^.^.^.^.^.^.^.",
"^.^.^.^.^.^.^.^.s.M e j.^.^.^.v.h.W ^.^.^.5.1 N G ^.^.^.^.^.^.^.",
"^.^.^.^.^.^.^.^.] k 6 M x.^.m.,.d.#.` ^.i.i 0 z _ ^.^.^.^.^.^.^.",
"^.^.^.^.^.^.^.^.^.-.5 C y.^.8.Z V A s ^.w.w q x ^.^.^.^.^.^.^.^.",
"^.^.^.^.^.^.^.^.^.) a < P -.J ^ d ~ $ :.v 6 l ' ^.^.^.^.^.^.^.^.",
"^.^.^.^.^.^.^.^.^.^.U 9 o.8 % . :   & h T f L ^.^.^.^.^.^.^.^.^.",
"^.^.^.^.^.^.^.^.^.C.O.- o.> # F g.r @ t F , $.} ^.^.^.^.^.^.^.^.",
"^.^.^.^.^.^.^.^.^.N.K 2 ! D X > b.o O D j + Y { ^.^.^.^.^.^.^.^.",
"^.^.^.^.^.^.^.^.^.^./ Q B =.* ( | b = R S ; G ^.^.^.^.^.^.^.^.^.",
"^.^.^.^.^.^.^.^.^.^.^.[ u <.K.H.!.J.L.m l %.^.^.^.^.^.^.^.^.^.^.",
"^.^.^.^.^.^.^.^.^.^.^.^.&.r.I.W.R.E.X.7 H ^.^.^.^.^.^.^.^.^.^.^.",
"^.^.^.^.^.^.^.^.^.^.^.^.^.D.Y.R.R.R.P.y I ^.^.^.^.^.^.^.^.^.^.^.",
"^.^.^.^.^.^.^.^.^.^.^.^.^.G.T.~.~.Q.U.6.^.^.^.^.^.^.^.^.^.^.^.^.",
"^.^.^.^.^.^.^.^.^.^.^.^.^.^.9..... .0.^.^.^.^.^.^.^.^.^.^.^.^.^.",
"^.^.^.^.^.^.^.^.^.^.^.^.^.^.^.^.^.^.^.^.^.^.^.^.^.^.^.^.^.^.^.^.",
"^.^.^.^.^.^.^.^.^.^.^.^.^.^.^.^.^.^.^.^.^.^.^.^.^.^.^.^.^.^.^.^.",
"^.^.^.^.^.^.^.^.^.^.^.^.^.^.^.^.^.^.^.^.^.^.^.^.^.^.^.^.^.^.^.^.",
"^.^.^.^.^.^.^.^.^.^.^.^.^.^.^.^.^.^.^.^.^.^.^.^.^.^.^.^.^.^.^.^.",
"^.^.^.^.^.^.^.^.^.^.^.^.^.^.^.^.^.^.^.^.^.^.^.^.^.^.^.^.^.^.^.^.",
"^.^.^.^.^.^.^.^.^.^.^.^.^.^.^.^.^.^.^.^.^.^.^.^.^.^.^.^.^.^.^.^."
};
