/* XPM */
static char *result[] = {
/* columns rows colors chars-per-pixel */
"32 32 171 2 ",
"   c #360D3A",
".  c #370D3D",
"X  c #3C0D49",
"o  c #420D4C",
"O  c #4F0D55",
"+  c #4F0D5E",
"@  c #550D5D",
"#  c #580D63",
"$  c #5E0D67",
"%  c #610D6E",
"&  c #660D74",
"*  c #670D75",
"=  c #6B0D7B",
"-  c #680D7F",
";  c #6F0D7F",
":  c #6A316C",
">  c #7A317D",
",  c #710D83",
"<  c #710D84",
"1  c #730D86",
"2  c #740D88",
"3  c #760D8C",
"4  c #790D88",
"5  c #790D8F",
"6  c #7A0D92",
"7  c #7C0D92",
"8  c #7A0D95",
"9  c #7F0D9A",
"0  c #820D97",
"q  c #830D99",
"w  c #840D98",
"e  c #840D9B",
"r  c #800D9C",
"t  c #810D9E",
"y  c #870D9C",
"u  c #880D9F",
"i  c #900D9B",
"p  c #860DA5",
"a  c #8E0DA0",
"s  c #8B0DA6",
"d  c #880DA8",
"f  c #890DA9",
"g  c #8F0DA9",
"h  c #8F0DAA",
"j  c #8F0DAF",
"k  c #910DA0",
"l  c #950DA1",
"z  c #970DA2",
"x  c #950DA5",
"c  c #970DA4",
"v  c #970DA9",
"b  c #900DAF",
"n  c #960DAD",
"m  c #9B0DA9",
"M  c #9F0DAB",
"N  c #990DAF",
"B  c #930DB1",
"V  c #940DB3",
"C  c #970DB2",
"Z  c #980DB0",
"A  c #9B0DB3",
"S  c #9B0DB4",
"D  c #980DB6",
"F  c #9A0DB7",
"G  c #960DB8",
"H  c #970DBA",
"J  c #980DB8",
"K  c #990DBA",
"L  c #980DBC",
"P  c #9A0DBD",
"I  c #AB0DA6",
"U  c #A10DAE",
"Y  c #AA0DB7",
"T  c #A20DBB",
"R  c #A10DBF",
"E  c #AC0DBA",
"W  c #AD0DBB",
"Q  c #AA0DBC",
"!  c #BE0DB7",
"~  c #ED12BC",
"^  c #977F97",
"/  c #B77CBA",
"(  c #9F0DC3",
")  c #A20DC7",
"_  c #AA0DC3",
"`  c #AB0DC4",
"'  c #AA0DC7",
"]  c #AE0DC4",
"[  c #A30DC8",
"{  c #A50DC8",
"}  c #A50DCB",
"|  c #A90DCD",
" . c #AD0DCD",
".. c #AE0DCE",
"X. c #B00DC4",
"o. c #B80DC7",
"O. c #B40DCA",
"+. c #B60DCA",
"@. c #B70DCF",
"#. c #BB0DCE",
"$. c #AA0DD1",
"%. c #AA0DD2",
"&. c #AC0DD4",
"*. c #BB0DD7",
"=. c #BA0DD8",
"-. c #B60DE1",
";. c #B90DE1",
":. c #BC0DE0",
">. c #C40DD7",
",. c #CD0DD6",
"<. c #C30DD9",
"1. c #C50DDA",
"2. c #C30DDC",
"3. c #C20DDD",
"4. c #C70DDD",
"5. c #F10DC4",
"6. c #FF0DC7",
"7. c #C50DE6",
"8. c #C90DE2",
"9. c #CA0DE6",
"0. c #C00DED",
"q. c #C40DEF",
"w. c #CF0DEA",
"e. c #CE0DEC",
"r. c #D30DE6",
"t. c #D30DE8",
"y. c #C50DF3",
"u. c #C60DF5",
"i. c #CF0DFF",
"p. c #D00DF7",
"a. c #D10DF7",
"s. c #DF0DF6",
"d. c #D60DFD",
"f. c #D50DFF",
"g. c #D80DFF",
"h. c #D90DFF",
"j. c #DC0DFF",
"k. c #DE0DFF",
"l. c #E20DE1",
"z. c #E00DF4",
"x. c #E10DF6",
"c. c #E30DF6",
"v. c #E50DF9",
"b. c #E20DFC",
"n. c #E20DFF",
"m. c #E30DFF",
"M. c #E70DFD",
"N. c #E50DFF",
"B. c #E60DFF",
"V. c #E70DFF",
"C. c #EC0DFB",
"Z. c #EA0DFF",
"A. c #EB0DFF",
"S. c #EE0DFF",
"D. c #E256C4",
"F. c #E25AC6",
"G. c #C872C1",
"H. c #808080",
"J. c #8E808A",
"K. c #C490BC",
"L. c #CD8FCB",
"P. c #DF90D2",
"I. c #CCAAC6",
"U. c #DFAFD5",
"Y. c gray87",
"T. c #DFDFDF",
"R. c #DEE7DF",
"E. c #E1E1E1",
"W. c #E3E5E3",
"Q. c #E1E7E2",
"!. c None",
/* pixels */
"!.!.!.!.!.!.!.!.!.!.!.!.!.!.!.!.!.!.!.!.!.!.!.!.!.!.!.!.!.!.!.!.",
"!.!.!.!.!.!.!.!.!.!.!.!.!.!.!.!.!.!.!.!.!.!.!.!.!.!.!.!.!.!.!.!.",
"!.!.!.!.!.!.!.!.!.!.!.!.!.!.!.!.!.!.!.!.!.!.!.!.!.!.!.!.!.!.!.!.",
"!.!.!.!.!.!.!.!.!.!.!.!.!.!.!.!.!.!.!.!.!.!.!.!.!.!.!.!.!.!.!.!.",
"!.!.!.!.!.!.!.!.!.!.!.!.!.!.!.!.!.!.!.!.!.!.!.!.!.!.!.!.!.!.!.!.",
"!.!.!.!.!.!.!.!.!.!.!.!.!.!.!.!.!.!.!.!.!.!.!.!.!.!.!.!.!.!.!.!.",
"!.!.!.!.!.!.!.!.!.!.!.!.!.!.!.!.!.!.!.!.!.!.!.!.!.!.!.!.!.!.!.!.",
"!.!.!.!.!.!.!.!.!.!.!.!.!.!.!.!.!.!.!.!.!.!.!.!.!.!.!.!.!.!.!.!.",
"!.!.!.!.!.!.!.!.!.!.!.!.!.!.!.!.v.!.!.!.!.!.!.!.!.!.!.!.!.!.!.!.",
"!.!.!.!.!.!.!.!.!.!.!.!.!.!.!.t.@.s.!.!.!.!.!.!.!.!.!.!.!.!.!.!.",
"!.!.!.!.!.!.!.!.!.!.!.!.!.!.!.e.-.O.!.!.!.!.!.!.!.!.!.!.!.!.!.!.",
"!.!.!.!.!.!.!.!.!.!.!.!.!.!.!.d.u.N !.!.!.!.!.!.!.!.!.!.!.!.!.!.",
"!.!.!.!.!.!.!.!.!.!.!.!.!.!.c.;.y.' E !.!.!.!.!.!.!.!.!.!.!.!.!.",
"!.!.!.!.!.!.!.!.!.!.!.!.!.!.4.h b g l !.!.!.!.!.!.!.!.!.!.!.!.!.",
"!.!.!.!.!.!.!.!.!.!.!.z.v.!.9.( q } x !.m U !.!.!.!.!.!.!.!.!.!.",
"!.!.!.!.!.!.!.!.!.Z.<.S T 1.y o = X a k n Z c Y !.!.!.!.!.!.!.!.",
"!.!.!.!.!.!.!.!.N.q.7 5 , * & j 0.t # . 5 2 w _ W !.!.!.!.!.!.!.",
"!.!.!.!.!.!.!.M.p.e 1 [ 6 0 O - i.+ $ 3 r P 1 $.` !.!.!.!.!.!.!.",
"!.!.!.!.!.!.V.3.q 1 } B % | : ! 6.I > p   ) K 8 %.] !.!.!.!.!.!.",
"!.!.!.!.!.!.k.J ; { h.o.4 =.^ H.W.J./ d @ >.f.G 9 &.Q !.!.!.!.!.",
"!.!.!.!.!.!.*.< V 2.!.!.X.:.K.E.T.Y.G.L i !.A.7.s f A !.!.!.!.!.",
"!.!.!.!.!.w.H R g.Z.!.!.x.8.I.T.T.Y.L...z !.!.B.a.D u M !.!.!.!.",
"!.!.!.!.V.F  .n.S.!.!.!.!.l.U.Q.Q.R.P.,.!.!.!.!.C.k.C v r.!.!.!.",
"!.!.!.!.m.j.b.!.!.!.!.!.!.!.~ F.F.D.5.!.!.!.!.!.!.!.#.+.!.!.!.!.",
"!.!.!.!.!.!.!.!.!.!.!.!.!.!.!.!.!.!.!.!.!.!.!.!.!.!.!.!.!.!.!.!.",
"!.!.!.!.!.!.!.!.!.!.!.!.!.!.!.!.!.!.!.!.!.!.!.!.!.!.!.!.!.!.!.!.",
"!.!.!.!.!.!.!.!.!.!.!.!.!.!.!.!.!.!.!.!.!.!.!.!.!.!.!.!.!.!.!.!.",
"!.!.!.!.!.!.!.!.!.!.!.!.!.!.!.!.!.!.!.!.!.!.!.!.!.!.!.!.!.!.!.!.",
"!.!.!.!.!.!.!.!.!.!.!.!.!.!.!.!.!.!.!.!.!.!.!.!.!.!.!.!.!.!.!.!.",
"!.!.!.!.!.!.!.!.!.!.!.!.!.!.!.!.!.!.!.!.!.!.!.!.!.!.!.!.!.!.!.!.",
"!.!.!.!.!.!.!.!.!.!.!.!.!.!.!.!.!.!.!.!.!.!.!.!.!.!.!.!.!.!.!.!.",
"!.!.!.!.!.!.!.!.!.!.!.!.!.!.!.!.!.!.!.!.!.!.!.!.!.!.!.!.!.!.!.!."
};
