/* XPM */
static char *result[] = {
/* columns rows colors chars-per-pixel */
"32 32 160 2 ",
"   c #510D5F",
".  c #660D74",
"X  c #6D0D7C",
"o  c #6F0D7F",
"O  c #6E0D81",
"+  c #710D80",
"@  c #720D84",
"#  c #770D84",
"$  c #7F0D86",
"%  c #770D88",
"&  c #750D8A",
"*  c #750D8D",
"=  c #780D8A",
"-  c #790D8C",
";  c #790D8F",
":  c #7F0D8D",
">  c #7A0D90",
",  c #7A0D91",
"<  c #7C0D96",
"1  c #7E0D96",
"2  c #7F0D9B",
"3  c #800D90",
"4  c #820D97",
"5  c #840D9B",
"6  c #830D9C",
"7  c #850D9C",
"8  c #840D9E",
"9  c #850D9E",
"0  c #8B0D99",
"q  c #890D9A",
"w  c #8F0D9B",
"e  c #910D9F",
"r  c #840DA1",
"t  c #860DA1",
"y  c #8B0DA2",
"u  c #880DA6",
"i  c #8B0DA6",
"p  c #8A0DA7",
"a  c #8D0DA5",
"s  c #890DA9",
"d  c #8E0DAB",
"f  c #8F0DAC",
"g  c #930DA2",
"h  c #990DA5",
"j  c #990DA6",
"k  c #980DA7",
"l  c #9B0DA6",
"z  c #970DA9",
"x  c #930DAE",
"c  c #940DAC",
"v  c #9B0DA9",
"b  c #9D0DA9",
"n  c #9C0DAE",
"m  c #900DB1",
"M  c #940DB5",
"N  c #950DB6",
"B  c #9E0DB0",
"V  c #9E0DB2",
"C  c #970DBB",
"Z  c #9A0DB8",
"A  c #9D0DB8",
"S  c #9F0DB8",
"D  c #9D0DBB",
"F  c #9B0DBC",
"G  c #9A0DBD",
"H  c #9B0DBF",
"J  c #9E0DBC",
"K  c #9F0DBE",
"L  c #A10DAD",
"P  c #A50DAF",
"I  c #A50DB3",
"U  c #A70DB3",
"Y  c #A20DB5",
"T  c #A70DB6",
"R  c #AB0DB7",
"E  c #A30DBF",
"W  c #A90DB8",
"Q  c #AC0DBA",
"!  c #AD0DBB",
"~  c #AF0DBA",
"^  c #A80DBC",
"/  c #AE0DBF",
"(  c #B00DBD",
")  c #9D0DC1",
"_  c #9F0DC1",
"`  c #9E0DC2",
"'  c #9F0DC3",
"]  c #A10DC2",
"[  c #A00DC5",
"{  c #A10DC6",
"}  c #AD0DC2",
"|  c #A90DC5",
" . c #AB0DC4",
".. c #A30DC9",
"X. c #A70DCE",
"o. c #AA0DCA",
"O. c #AE0DC8",
"+. c #B40DC9",
"@. c #BA0DCF",
"#. c #BC0DCC",
"$. c #AC0DD4",
"%. c #AD0DD5",
"&. c #AE0DD6",
"*. c #AE0DD7",
"=. c #B10DD4",
"-. c #B30DD6",
";. c #BB0DD7",
":. c #B10DDA",
">. c #B20DDC",
",. c #B30DDD",
"<. c #B40DDE",
"1. c #BE0DD9",
"2. c #B90DDD",
"3. c #BD0DDE",
"4. c #B60DE0",
"5. c #B70DE2",
"6. c #B80DE3",
"7. c #BC0DE7",
"8. c #BC0DE8",
"9. c #BD0DEA",
"0. c #BE0DEB",
"q. c #C30DD6",
"w. c #C10DD8",
"e. c #C20DDE",
"r. c #C90DDF",
"t. c #C10DEE",
"y. c #CE0DE9",
"u. c #CB0DEC",
"i. c #C90DEF",
"p. c #D00DEC",
"a. c #D20DEC",
"s. c #D80DEE",
"d. c #DC0DEC",
"f. c #C20DF0",
"g. c #C30DF1",
"h. c #C70DF6",
"j. c #C90DF8",
"k. c #CA0DF9",
"l. c #CB0DFA",
"z. c #CF0DFF",
"x. c #D00DF0",
"c. c #DB0DF1",
"v. c #DE0DF0",
"b. c #DF0DF3",
"n. c #DD0DF5",
"m. c #D20DF8",
"M. c #D50DF9",
"N. c #D30DFF",
"B. c #D70DFF",
"V. c #DE0DFA",
"C. c #E30DF6",
"Z. c #E30DFF",
"A. c #E60DFF",
"S. c #E70DFF",
"D. c #E90DFD",
"F. c #E90DFF",
"G. c #EB0DFF",
"H. c #EC0DFF",
"J. c #ED0DFF",
"K. c None",
/* pixels */
"K.K.K.K.K.K.K.K.K.K.K.K.K.K.K.K.K.K.K.K.K.K.K.K.K.K.K.K.K.K.K.K.",
"K.K.K.K.K.K.K.K.K.K.K.K.K.K.K.K.K.K.K.K.K.K.K.K.K.K.K.K.K.K.K.K.",
"K.K.K.K.K.K.K.K.K.K.K.K.K.K.K.K.K.K.K.K.K.K.K.K.K.K.K.K.K.K.K.K.",
"K.K.K.K.K.K.K.K.K.K.K.K.K.K.K.K.K.K.K.K.K.K.K.K.K.K.K.K.K.K.K.K.",
"K.K.K.K.K.K.K.K.K.K.K.K.K.K.K.K.K.K.K.K.K.K.K.K.K.K.K.K.K.K.K.K.",
"K.K.K.K.K.K.K.K.K.K.K.K.K.K.K.K.K.K.K.K.K.K.K.K.K.K.K.K.K.K.K.K.",
"K.K.K.K.K.K.K.K.K.K.K.K.K.K.K.K.K.K.K.K.K.K.K.K.K.K.K.K.K.K.K.K.",
"K.K.K.K.K.K.K.K.K.K.K.K.K.K.S.u.K M.K.K.K.K.K.K.K.K.K.K.K.K.K.K.",
"K.K.K.K.K.K.K.K.K.K.K.K.K.K.V.l.h.,.n.K.K.K.K.K.K.K.K.K.K.K.K.K.",
"K.K.K.K.K.K.K.K.K.K.K.K.K.K.p.h.h.N I K.K.K.K.K.K.K.K.K.K.K.K.K.",
"K.K.K.K.K.K.K.K.K.K.K.K.K.K.r.C C   $ K.K.K.K.K.K.K.K.K.K.K.K.K.",
"K.K.K.K.K.K.K.K.K.K.K.K.K.H.O.{ :.r B K.K.K.K.K.K.K.K.K.K.K.K.K.",
"K.K.K.K.K.K.K.K.K.K.K.K.b.1.%...j.) >.Y b K.K.K.K.K.K.K.K.K.K.K.",
"K.K.K.K.K.K.K.K.K.K.D.y.E x *.' h.C ,.a J Y U K.K.K.K.K.K.K.K.K.",
"K.K.K.K.K.K.K.K.G.a.2...* t *.' h.C ,.> 2 ' -.c.G.K.K.K.K.K.K.K.",
"K.K.K.K.K.K.K.F.N.h.4.` & 8 $.G f.M *., < [ 8.k.i.K.K.K.K.K.K.K.",
"K.K.K.K.K.K.K.B.l.9.[ H i 7 4 @ t o 9 5 d H [ 0.l.3.K.K.K.K.K.K.",
"K.K.K.K.K.A.m.j.g.6.f 6 - X ; . O . > o % u p X.5.8.S L K.K.K.K.",
"K.K.K.K.Z.z.g.X.7.%.3 n e + = s h.1 - # e V % [ &.&.C q Q K.K.K.",
"K.K.K.J.x.t.*.Z <._ j K.d.L z ..j.F k ! v.K.g ' ] D m y W K.K.K.",
"K.K.K.K./ o.A q.;.} K.K.K.K.C.=.>.| D.K.K.K.(  .e.@.: w ~ K.K.K.",
"K.K.K.K.K.P l K.K.! K.K.K.K.K.+.5 0 K.K.K.K.K.! K.K.h R K.K.K.K.",
"K.K.K.K.K.K.K.K.K.K.K.K.K.K.K.w.c v K.K.K.K.K.K.K.K.K.K.K.K.K.K.",
"K.K.K.K.K.K.K.K.K.K.K.K.K.K.K.s.^ T K.K.K.K.K.K.K.K.K.K.K.K.K.K.",
"K.K.K.K.K.K.K.K.K.K.K.K.K.K.K.K.#.K.K.K.K.K.K.K.K.K.K.K.K.K.K.K.",
"K.K.K.K.K.K.K.K.K.K.K.K.K.K.K.K.K.K.K.K.K.K.K.K.K.K.K.K.K.K.K.K.",
"K.K.K.K.K.K.K.K.K.K.K.K.K.K.K.K.K.K.K.K.K.K.K.K.K.K.K.K.K.K.K.K.",
"K.K.K.K.K.K.K.K.K.K.K.K.K.K.K.K.K.K.K.K.K.K.K.K.K.K.K.K.K.K.K.K.",
"K.K.K.K.K.K.K.K.K.K.K.K.K.K.K.K.K.K.K.K.K.K.K.K.K.K.K.K.K.K.K.K.",
"K.K.K.K.K.K.K.K.K.K.K.K.K.K.K.K.K.K.K.K.K.K.K.K.K.K.K.K.K.K.K.K.",
"K.K.K.K.K.K.K.K.K.K.K.K.K.K.K.K.K.K.K.K.K.K.K.K.K.K.K.K.K.K.K.K.",
"K.K.K.K.K.K.K.K.K.K.K.K.K.K.K.K.K.K.K.K.K.K.K.K.K.K.K.K.K.K.K.K."
};
