/* XPM */
static char *result[] = {
/* columns rows colors chars-per-pixel */
"32 32 145 2 ",
"   c #510D5F",
".  c #530D65",
"X  c #670D75",
"o  c #670D77",
"O  c #6C0D72",
"+  c #6C0D76",
"@  c #6D0D7E",
"#  c #6D0D7F",
"$  c #710D84",
"%  c #720D85",
"&  c #7F0D86",
"*  c #750D8A",
"=  c #740D8B",
"-  c #760D8C",
";  c #780D8A",
":  c #780D8C",
">  c #7A0D8E",
",  c #7D0D8D",
"<  c #760D91",
"1  c #770D92",
"2  c #780D91",
"3  c #7C0D92",
"4  c #7D0D97",
"5  c #7F0D98",
"6  c #7F0D9A",
"7  c #7F0D9B",
"8  c #830D92",
"9  c #860D94",
"0  c #890D97",
"q  c #820D9A",
"w  c #840D99",
"e  c #840D9B",
"r  c #840D9E",
"t  c #8C0D9C",
"y  c #8D0D9E",
"u  c #900D9A",
"i  c #920D9C",
"p  c #850DA4",
"a  c #8B0DA5",
"s  c #8B0DA6",
"d  c #8B0DA8",
"f  c #8E0DAA",
"g  c #980DA6",
"h  c #910DAA",
"j  c #940DAC",
"k  c #9B0DAA",
"l  c #9D0DAA",
"z  c #9B0DAC",
"x  c #910DB2",
"c  c #920DB3",
"v  c #930DB4",
"b  c #950DB6",
"n  c #970DB9",
"m  c #970DBB",
"M  c #9A0DB9",
"N  c #9F0DBE",
"B  c #A00DAC",
"V  c #A50DB3",
"C  c #A70DB6",
"Z  c #A30DBA",
"A  c #A20DBD",
"S  c #A40DBC",
"D  c #A40DBE",
"F  c #AD0DBB",
"G  c #A80DBC",
"H  c #A80DBD",
"J  c #9C0DC0",
"K  c #9E0DC2",
"L  c #A00DC5",
"P  c #A70DC4",
"I  c #A30DC8",
"U  c #A30DC9",
"Y  c #A40DCA",
"T  c #A60DCC",
"R  c #A70DCD",
"E  c #A80DCF",
"W  c #B20DC1",
"Q  c #B30DCA",
"!  c #B40DC9",
"~  c #B80DCC",
"^  c #BC0DCC",
"/  c #AA0DD0",
"(  c #AA0DD2",
")  c #AD0DD5",
"_  c #AE0DD6",
"`  c #AE0DD7",
"'  c #B40DD0",
"]  c #B60DD1",
"[  c #B10DD4",
"{  c #BA0DD6",
"}  c #B00DD9",
"|  c #B10DDA",
" . c #B20DDB",
".. c #B20DDC",
"X. c #B30DDD",
"o. c #B40DDE",
"O. c #B50DDF",
"+. c #BF0DD8",
"@. c #B60DE0",
"#. c #B70DE2",
"$. c #BE0DEB",
"%. c #C10DD8",
"&. c #C20DDB",
"*. c #C20DDD",
"=. c #C80DDA",
"-. c #CA0DDD",
";. c #C90DDF",
":. c #C90DE0",
">. c #CC0DE1",
",. c #CF0DE1",
"<. c #CD0DE3",
"1. c #C80DE7",
"2. c #CD0DE5",
"3. c #C00DED",
"4. c #C10DEF",
"5. c #C60DEF",
"6. c #CC0DE9",
"7. c #CE0DE8",
"8. c #CC0DEB",
"9. c #CB0DEC",
"0. c #C80DEE",
"q. c #CC0DEF",
"w. c #CF0DEE",
"e. c #D30DE4",
"r. c #D70DE9",
"t. c #D00DEC",
"y. c #D40DEE",
"u. c #D80DEE",
"i. c #C30DF1",
"p. c #C50DF3",
"a. c #C70DF6",
"s. c #C90DF8",
"d. c #CB0DFA",
"f. c #D00DF2",
"g. c #DD0DF4",
"h. c #DD0DF5",
"j. c #D50DF9",
"k. c #DE0DFA",
"l. c #DF0DFF",
"z. c #E00DF2",
"x. c #E30DFF",
"c. c #E60DFC",
"v. c #E70DFF",
"b. c #EB0DFF",
"n. c None",
/* pixels */
"n.n.n.n.n.n.n.n.n.n.n.n.n.n.n.n.n.n.n.n.n.n.n.n.n.n.n.n.n.n.n.n.",
"n.n.n.n.n.n.n.n.n.n.n.n.n.n.n.n.n.n.n.n.n.n.n.n.n.n.n.n.n.n.n.n.",
"n.n.n.n.n.n.n.n.n.n.n.n.n.n.n.n.n.n.n.n.n.n.n.n.n.n.n.n.n.n.n.n.",
"n.n.n.n.n.n.n.n.n.n.n.n.n.n.n.n.n.n.n.n.n.n.n.n.n.n.n.n.n.n.n.n.",
"n.n.n.n.n.n.n.n.n.n.n.n.n.n.n.n.n.n.n.n.n.n.n.n.n.n.n.n.n.n.n.n.",
"n.n.n.n.n.n.n.n.n.n.n.n.n.n.n.n.n.n.n.n.n.n.n.n.n.n.n.n.n.n.n.n.",
"n.n.n.n.n.n.n.n.n.n.n.n.n.n.n.n.n.n.n.n.n.n.n.n.n.n.n.n.n.n.n.n.",
"n.n.n.n.n.n.n.n.n.n.n.n.n.n.v.9.N j.n.n.n.n.n.n.n.n.n.n.n.n.n.n.",
"n.n.n.n.n.n.n.n.n.n.n.n.n.n.k.d.a.X.h.n.n.n.n.n.n.n.n.n.n.n.n.n.",
"n.n.n.n.n.n.n.n.n.n.n.n.n.n.t.a.a.b V n.n.n.n.n.n.n.n.n.n.n.n.n.",
"n.n.n.n.n.n.n.n.n.n.n.n.n.n.;.m m   & n.n.n.n.n.n.n.n.n.n.n.n.n.",
"n.n.n.n.n.n.n.n.n.n.n.n.n.r.' | ` m Z =.n.n.n.n.n.n.n.n.n.n.n.n.",
"n.n.n.n.n.n.n.n.n.n.n.n.:.A ) E s.Y ( 8 l n.n.n.n.n.n.n.n.n.n.n.",
"n.n.n.n.n.n.n.n.n.n.n.z.S * _ J a.m ( @ y n.n.n.n.n.n.n.n.n.n.n.",
"n.n.n.n.n.n.n.n.n.n.n.<.h $ _ K a.m ( # w B n.n.n.n.n.n.n.n.n.n.",
"n.n.n.n.n.n.n.n.n.n.n.Q v = Y p 3.5 T - x ~ n.n.n.n.n.n.n.n.n.n.",
"n.n.n.n.n.n.n.n.n.n.n.{ o.1 _ > o q ( 6 ..*.n.n.n.n.n.n.n.n.n.n.",
"n.n.n.n.n.n.n.n.n.n.n.0.4.2 E a f d I 6 a.8.n.n.n.n.n.n.n.n.n.n.",
"n.n.n.n.n.n.n.n.n.n.n.5.3.% 3 J p.c : 4 i.q.n.n.n.n.n.n.n.n.n.n.",
"n.n.n.n.n.n.n.n.n.n.l.#.O.; , U s.M + 7 } $.x.n.n.n.n.n.n.n.n.n.",
"n.n.n.n.n.n.n.n.n.n.w. .#.H -.[ ..D i P Y T +.n.n.n.n.n.n.n.n.n.",
"n.n.n.n.n.n.n.n.n.n.1.R @.y.n.! e 0 n.f.L s t n.n.n.n.n.n.n.n.n.",
"n.n.n.n.n.n.n.n.n.n.2.r / y.n.%.j k n.6.< X g n.n.n.n.n.n.n.n.n.",
"n.n.n.n.n.n.n.n.n.n.c.z n 7.n.u.G C n.&.. O F n.n.n.n.n.n.n.n.n.",
"n.n.n.n.n.n.n.n.n.n.n.e.] g.n.n.^ n.n.>.9 u n.n.n.n.n.n.n.n.n.n.",
"n.n.n.n.n.n.n.n.n.n.n.n.b.n.n.n.n.n.n.,.W n.n.n.n.n.n.n.n.n.n.n.",
"n.n.n.n.n.n.n.n.n.n.n.n.n.n.n.n.n.n.n.n.n.n.n.n.n.n.n.n.n.n.n.n.",
"n.n.n.n.n.n.n.n.n.n.n.n.n.n.n.n.n.n.n.n.n.n.n.n.n.n.n.n.n.n.n.n.",
"n.n.n.n.n.n.n.n.n.n.n.n.n.n.n.n.n.n.n.n.n.n.n.n.n.n.n.n.n.n.n.n.",
"n.n.n.n.n.n.n.n.n.n.n.n.n.n.n.n.n.n.n.n.n.n.n.n.n.n.n.n.n.n.n.n.",
"n.n.n.n.n.n.n.n.n.n.n.n.n.n.n.n.n.n.n.n.n.n.n.n.n.n.n.n.n.n.n.n.",
"n.n.n.n.n.n.n.n.n.n.n.n.n.n.n.n.n.n.n.n.n.n.n.n.n.n.n.n.n.n.n.n."
};
