/* XPM */
static char *result[] = {
/* columns rows colors chars-per-pixel */
"32 32 169 2 ",
"   c #3E0D4A",
".  c #540D5B",
"X  c #5E0D6B",
"o  c #5F0D6F",
"O  c #650D71",
"+  c #670D77",
"@  c #680D78",
"#  c #6A0D78",
"$  c #690D7A",
"%  c #6B0D7B",
"&  c #690D7D",
"*  c #6D0D7C",
"=  c #6D0D7F",
"-  c #6F0D7F",
";  c #6E0D81",
":  c #6F0D82",
">  c #6F0D83",
",  c #6F0D84",
"<  c #710D83",
"1  c #710D84",
"2  c #720D84",
"3  c #750D87",
"4  c #730D89",
"5  c #740D88",
"6  c #770D88",
"7  c #760D89",
"8  c #790D8C",
"9  c #780D8D",
"0  c #790D8F",
"q  c #7A0D8E",
"w  c #790D93",
"e  c #7E0D92",
"r  c #7E0D96",
"t  c #7E0D9A",
"y  c #810D93",
"u  c #810D96",
"i  c #800D97",
"p  c #840D97",
"a  c #880D91",
"s  c #890D97",
"d  c #820D9A",
"f  c #840D98",
"g  c #840D9B",
"h  c #810D9C",
"j  c #810D9E",
"k  c #880D9E",
"l  c #880D9F",
"z  c #890DA1",
"x  c #8C0DA0",
"c  c #8E0DA1",
"v  c #8B0DA5",
"b  c #8A0DA9",
"n  c #8C0DAA",
"m  c #8D0DAD",
"M  c #8E0DAD",
"N  c #900DA1",
"B  c #910DA3",
"V  c #950DA1",
"C  c #920DA5",
"Z  c #900DA6",
"A  c #990DA5",
"S  c #930DA8",
"D  c #920DA9",
"F  c #960DAA",
"G  c #900DAF",
"H  c #960DAD",
"J  c #9B0DA9",
"K  c #980DAC",
"L  c #900DB0",
"P  c #920DB2",
"I  c #970DB3",
"U  c #930DB4",
"Y  c #9B0DB6",
"T  c #9F0DB4",
"R  c #9F0DB5",
"E  c #9D0DB7",
"W  c #960DB8",
"Q  c #970DB9",
"!  c #970DBB",
"~  c #9A0DBD",
"^  c #A00DAC",
"/  c #A30DB2",
"(  c #A40DB5",
")  c #A80DB3",
"_  c #A20DB8",
"`  c #A50DBD",
"'  c #AA0DBC",
"]  c #AB0DBD",
"[  c #AC0DBF",
"{  c #AF0DBF",
"}  c #B00DBD",
"|  c #9F0DC1",
" . c #9F0DC3",
".. c #A30DC3",
"X. c #A10DC6",
"o. c #AA0DC3",
"O. c #A50DC8",
"+. c #A50DCB",
"@. c #A70DCE",
"#. c #AC0DCA",
"$. c #A80DCF",
"%. c #AD0DCC",
"&. c #B20DC2",
"*. c #B10DC7",
"=. c #B40DC5",
"-. c #B40DC9",
";. c #B50DCF",
":. c #B80DC8",
">. c #BA0DCC",
",. c #BE0DCF",
"<. c #A90DD0",
"1. c #AA0DD0",
"2. c #AC0DD4",
"3. c #AE0DD6",
"4. c #AE0DD7",
"5. c #B40DD0",
"6. c #BB0DD0",
"7. c #BA0DD5",
"8. c #BB0DD7",
"9. c #B70DDE",
"0. c #BF0DDB",
"q. c #BA0DE4",
"w. c #BC0DE4",
"e. c #BD0DEA",
"r. c #BE0DEB",
"t. c #BF0DEC",
"y. c #C00DD6",
"u. c #C30DD6",
"i. c #C60DD5",
"p. c #CC0DDA",
"a. c #C60DE0",
"s. c #C60DE3",
"d. c #C90DE0",
"f. c #CA0DE3",
"g. c #CC0DE9",
"h. c #D20DE9",
"j. c #D50DE8",
"k. c #D80DEB",
"l. c #DA0DEB",
"z. c #D90DEE",
"x. c #C30DF1",
"c. c #C60DF1",
"v. c #C70DF6",
"b. c #CA0DF5",
"n. c #C80DF6",
"m. c #C90DF8",
"M. c #CC0DFB",
"N. c #D40DF1",
"B. c #D60DF0",
"V. c #D60DF1",
"C. c #DF0DF5",
"Z. c #D10DFC",
"A. c #D90DFF",
"S. c #DA0DFF",
"D. c #DC0DFF",
"F. c #DF0DFF",
"G. c #E50DF9",
"H. c #E40DFB",
"J. c #E00DFF",
"K. c #E20DFF",
"L. c #E30DFF",
"P. c #E40DFF",
"I. c #E50DFF",
"U. c #E90DFD",
"Y. c #E80DFF",
"T. c #E90DFF",
"R. c #EC0DFF",
"E. c #EE0DFF",
"W. c None",
/* pixels */
"W.W.W.W.W.W.W.W.W.W.W.W.W.W.W.W.W.W.W.W.W.W.W.W.W.W.W.W.W.W.W.W.",
"W.W.W.W.W.W.W.W.W.W.W.W.W.W.W.W.W.W.W.W.W.W.W.W.W.W.W.W.W.W.W.W.",
"W.W.W.W.W.W.W.W.W.W.W.W.W.W.W.W.W.W.W.W.W.W.W.W.W.W.W.W.W.W.W.W.",
"W.W.W.W.W.W.W.W.W.W.W.W.W.W.W.W.W.W.W.W.W.W.W.W.W.W.W.W.W.W.W.W.",
"W.W.W.W.W.W.W.W.W.W.E.W.W.W.W.W.W.W.W.W.W.W.E.W.W.W.W.W.W.W.W.W.",
"W.W.W.W.W.W.W.W.W.W.T.W.W.W.W.W.W.W.W.W.W.R.Y.W.W.W.W.W.W.W.W.W.",
"W.W.W.W.W.W.W.W.W.W.S.B.W.W.W.W.W.W.W.W.W.V.A.W.W.W.W.W.W.W.W.W.",
"W.W.W.W.W.W.W.W.W.L.| a.W.W.W.W.W.W.W.W.U.8.O.L.W.W.W.W.W.W.W.W.",
"W.W.W.W.W.W.W.W.W.D.% *.W.W.W.W.W.W.W.W.W._ 2 F.W.W.W.W.W.W.W.W.",
"W.W.W.W.W.W.W.W.W.;.3 ( W.W.W.W.W.W.W.W.W.B q a.W.W.W.W.W.W.W.W.",
"W.W.W.W.W.W.W.W.K.I : ] W.W.W.p.a l.W.W.W.K ; %.P.W.W.W.W.W.W.W.",
"W.W.W.W.W.W.W.W.K.2., 7.W.W.I.b.4.Z.T.W.W.#.> e.L.W.W.W.W.W.W.W.",
"W.W.W.W.W.W.W.W.u.t.9 Z C.W.N.n.v.+.j.W.h.f d c.,.W.W.W.W.W.W.W.",
"W.W.W.W.W.W.W.W.W.D.Q r f.W.g.x.x.P V W.0.4 <.J.W.W.W.W.W.W.W.W.",
"W.W.W.W.W.W.W.W.W.>.D 3 ` u.C M G   . y.Y = E :.W.W.W.W.W.W.W.W.",
"W.W.W.W.W.W.W.W.W.W.H w e 2 v $.r.~ i 6 7 j F W.W.W.W.W.W.W.W.W.",
"W.W.W.W.W.W.W.W.W.P.9.< 7 1 1. .v.! @.- 3 0 w.&.W.W.W.W.W.W.W.W.",
"W.W.W.W.W.W.W.W.W.H.S 5 * $ 3. .v.! @.o 3 < T } W.W.W.W.W.W.W.W.",
"W.W.W.W.W.W.W.W.W.W.^ c * $ 3. .m.W L X 5 N ) W.W.W.W.W.W.W.W.W.",
"W.W.W.W.W.W.W.W.W.W.W.[ y +  .U q.n m O x { W.W.W.W.W.W.W.W.W.W.",
"W.W.W.W.W.W.W.W.W.W.W.W.6.k 0 @ 8 # b l [ W.W.W.W.W.W.W.W.W.W.W.",
"W.W.W.W.W.W.W.W.W.W.W.W.W.s.u & t + z o.W.W.W.W.W.W.W.W.W.W.W.W.",
"W.W.W.W.W.W.W.W.W.W.W.W.W.k.y L M.h p A W.W.W.W.W.W.W.W.W.W.W.W.",
"W.W.W.W.W.W.W.W.W.W.W.W.W.U.=.@.m...J W.W.W.W.W.W.W.W.W.W.W.W.W.",
"W.W.W.W.W.W.W.W.W.W.W.W.W.W.G.5.X.R W.W.W.W.W.W.W.W.W.W.W.W.W.W.",
"W.W.W.W.W.W.W.W.W.W.W.W.W.W.W.-.g s W.W.W.W.W.W.W.W.W.W.W.W.W.W.",
"W.W.W.W.W.W.W.W.W.W.W.W.W.W.W.d.Y / W.W.W.W.W.W.W.W.W.W.W.W.W.W.",
"W.W.W.W.W.W.W.W.W.W.W.W.W.W.W.z.' W.W.W.W.W.W.W.W.W.W.W.W.W.W.W.",
"W.W.W.W.W.W.W.W.W.W.W.W.W.W.W.W.i.W.W.W.W.W.W.W.W.W.W.W.W.W.W.W.",
"W.W.W.W.W.W.W.W.W.W.W.W.W.W.W.W.W.W.W.W.W.W.W.W.W.W.W.W.W.W.W.W.",
"W.W.W.W.W.W.W.W.W.W.W.W.W.W.W.W.W.W.W.W.W.W.W.W.W.W.W.W.W.W.W.W.",
"W.W.W.W.W.W.W.W.W.W.W.W.W.W.W.W.W.W.W.W.W.W.W.W.W.W.W.W.W.W.W.W."
};
