/* XPM */
static char *result[] = {
/* columns rows colors chars-per-pixel */
"32 32 202 2 ",
"   c #372C23",
".  c #3B3524",
"X  c #363021",
"o  c #2C3125",
"O  c #403526",
"+  c #4C3D2C",
"@  c #413A2A",
"#  c #2F402E",
"$  c #31432E",
"%  c #3B4B2E",
"&  c #384527",
"*  c #35502F",
"=  c #334632",
"-  c #354B33",
";  c #374F38",
":  c #3A5334",
">  c #3D5A35",
",  c #3A553A",
"<  c #3E5B3D",
"1  c #375332",
"2  c #454625",
"3  c #51422E",
"4  c #495325",
"5  c #584731",
"6  c #5D4A33",
"7  c #544831",
"8  c #4A5C33",
"9  c #455A37",
"0  c #515F38",
"q  c #604D34",
"w  c #6F5E34",
"e  c #6E592C",
"r  c #4F6024",
"t  c #556926",
"y  c #5F7C28",
"u  c #5B7527",
"i  c #426536",
"p  c #43633D",
"a  c #4C6439",
"s  c #496B3A",
"d  c #456C39",
"f  c #526B3D",
"g  c #55673D",
"h  c #467436",
"j  c #4C743D",
"k  c #4A7B39",
"l  c #51723C",
"z  c #517D3D",
"x  c #587C3E",
"c  c #7A622F",
"v  c #617F28",
"b  c #686539",
"n  c #7B6331",
"m  c #796A39",
"M  c #3F5D40",
"N  c #475741",
"B  c #516B40",
"V  c #5C6D43",
"C  c #4E7541",
"Z  c #4F7942",
"A  c #5E7443",
"S  c #527B41",
"D  c #5C7A42",
"F  c #476941",
"G  c #636E46",
"H  c #726E4E",
"J  c #6D7549",
"K  c #677948",
"L  c #767D4F",
"P  c #7D7C54",
"I  c #83662E",
"U  c #87682E",
"Y  c #8B6A2E",
"T  c #936D2D",
"R  c #9A702E",
"E  c #8C6B30",
"W  c #856934",
"Q  c #916E30",
"!  c #957334",
"~  c #A7772E",
"^  c #A27631",
"/  c #AA7C37",
"(  c #B17F34",
")  c #877A4B",
"_  c #907B4D",
"`  c #A37B41",
"'  c #4F883E",
"]  c #4C813A",
"[  c #52853D",
"{  c #538B3E",
"}  c #59883F",
"|  c #569A3F",
" . c #599A3F",
".. c #55963E",
"X. c #648329",
"o. c #6A8E2A",
"O. c #67892A",
"+. c #6F902E",
"@. c #70922F",
"#. c #769533",
"$. c #7A9836",
"%. c #56A13E",
"&. c #59A43F",
"*. c #57A83E",
"=. c #5AAA3F",
"-. c #4F8041",
";. c #538341",
":. c #598B43",
">. c #578942",
",. c #569242",
"<. c #5B9D43",
"1. c #5A9542",
"2. c #658246",
"3. c #77834D",
"4. c #5CA342",
"5. c #5CAC41",
"6. c #5FB542",
"7. c #61B543",
"8. c #62BC43",
"9. c #B38136",
"0. c #BC8535",
"q. c #B7853B",
"w. c #BA873A",
"e. c #BB893E",
"r. c #C38D3E",
"t. c #C7903F",
"y. c #C9913E",
"u. c #869F40",
"i. c #848655",
"p. c #8C9359",
"a. c #96975E",
"s. c #968755",
"d. c #AC8647",
"f. c #BE8C41",
"g. c #AE8C55",
"h. c #B2955B",
"j. c #A1935A",
"k. c #8BA342",
"l. c #8DA248",
"z. c #98AB4D",
"x. c #9AAA50",
"c. c #9EB051",
"v. c #ABB45A",
"b. c #A7B356",
"n. c #A9AC5E",
"m. c #9C9E61",
"M. c #ACA56A",
"N. c #B0AE6B",
"B. c #B2BB61",
"V. c #B6B06E",
"C. c #BEBA72",
"Z. c #BCB671",
"A. c #C08E42",
"S. c #C79142",
"D. c #C99342",
"F. c #CA9649",
"G. c #CA974C",
"H. c #D19B4C",
"J. c #D39F51",
"K. c #D5A255",
"L. c #D6A65D",
"P. c #D8A75F",
"I. c #D9AA5F",
"U. c #DAAB62",
"Y. c #DBAD69",
"T. c #DEB36D",
"R. c #DDBB6E",
"E. c #DBB066",
"W. c #C3AC74",
"Q. c #C6BF78",
"!. c #DFB471",
"~. c #DEBE73",
"^. c #CDB069",
"/. c #E0B26E",
"(. c #E2BA75",
"). c #E3BD7A",
"_. c #E1B470",
"`. c #CBCB75",
"'. c #C9C57A",
"]. c #D3CB7D",
"[. c #D4C877",
"{. c #D6D37C",
"}. c #D9D37E",
"|. c #C1C66C",
" X c #E3C67C",
".X c #E3C478",
"XX c #D9D181",
"oX c #DCD48A",
"OX c #DFDA81",
"+X c #D4CD86",
"@X c #E4C482",
"#X c #E8C786",
"$X c #E7CD85",
"%X c #E7CF89",
"&X c #E4DB85",
"*X c #E8D089",
"=X c #E5DC89",
"-X c #E9DE89",
";X c #E9D087",
":X c #E8E188",
">X c #E7E088",
",X c None",
/* pixels */
",X,X,X,Xn ,X,XU R R Y c c ,X,XN w R Y c c ,X,X,XT R T n ,X,X,X,X",
",XI T R E I Y ^ q.( Q Y Q I 8 ;.s ` 9.T I c e T ( t.0.T Y T I ,X",
"U ~ 0.y.F.e.A.H.b 8 f b ! / x 8.| ) G.m 8 8 % d.K.I.K.H.r.0.~ U ",
"T 0.H.I.T.U.E.).W.V ,.5.>.G [ 4.%.G 2.| &.j i.!.).#X)._.K.H.0.T ",
"Y r.J.!.:X].a.p.p.J { 6.8.<.C S Z [ 6.6.5.F 3.a.p.Z.=X-XR.J.r.U ",
"I d.U.~.a.V { =.&.&.,.-.<.<.C - > :.4.>.;.<.*.*.%.l L C. XI.w.I ",
"I ( Y.P s k { =.8.8.7.:.Z Z C - p S Z ;.4.6.8.6.4.z F B Z.Y.( U ",
"T r.g.9 f P 9 > h k ;.>.>.p , - M , S :.;.[ k i = J J 9 H !.r.T ",
"T t.d.j.{.'.i.0 - = # i Z < - = ; ; F C - # - 1 G V.+X'.s.U.A.T ",
"U e.J.h.p.K }  .=.&.k i ; < = # o , , : h | =.&.} } 3.x.^.K.e.I ",
"I / m p z <.6.8.8.8.7.>.< # $ , - $ - j <.8.8.8.8.6.{ j 0 g.9.I ",
"E 9._ L f [ =.=.=.| Z s : # 9 C j $ - 9 j { &.=.=...l G _ h.w.Y ",
"T D._.@X].p.9 * 1 * { [ C p { :.1.j F Z ,.i - , * G Z.XX*X!.r.R ",
"U r.K..X&Xp.{ z p ,.8.4.;.s 5.8.7.' j ,.8.5.j > { 2.C.:X~.K.r.U ",
"I q.U. XN.a D V [ 8.5.{ p - =.8.8.k ; j | 6.=.a D j J &X.XU.q.I ",
"I ( Y.*X+X'.'.J | { G ] Z > &.8.8.h p { f D  .z M.].XX-X%XT.9.I ",
"T r._.*X=X=XQ.B K Z.3.| [ % h 7. .% i &.z M.p.s p.:X:X:X;X!.r.T ",
"T S.U. X:X:XN.V |.:X3.A 3.X % } j o 7 3.g Q.&Xp.J &X:X:X XU.t.T ",
"I e.K.~.:X:XOXXX:X-X}.'.n.. . i &   4 u.x.`.:X-X}.:X:X:X[.K.e.I ",
"I 9.Y.$X=X-X>X>X:X&Xv.$.t O 3 @ @ + & O.o.#.b.}.:X:X:X:X#XY.9.I ",
"U 0.!.%XoX=X=X-X&X`.$.o.4 + 6 q 5 6 O v o.O.#.B.&X:X:X>X;XT.0.U ",
"T S.T.$X>X-X-XoXB.#.o.X.2 q 6 3 5 q 2 r o.o.o.l.'.:X:X:X;X/.r.R ",
"U e.K.~.:X:X:XXXz.o.+.4 O 3 6 3 5 5 + X v o.@.u.`.:X>X:X~.K.r.U ",
"U q.U. X:X>X>XOXz.o.o.r . 3 5 X + 6 O 2 X.o.$.c.{.:X-X:X XU.q.I ",
"I ( T.%XoX=X-XXXc.o.o.o.u . . 2 . . 4 O.o.o.#.B.>X:X-X:X;XT.( I ",
"T r._.*X=X=X=X=X|.k.+.o.o.t t O.X.r X.o.o.+.l.XX-X>X:X:X*X!.r.T ",
"T r.U..X>X-X-XoX:X{.k.#.o.o.o.o.o.o.o.o.@.k.{.=XoX:X:X:X XU.r.T ",
"U r.K.R.-X-X-X-X:X}.{.].v.v.v.v.b.b.v.v.[.}.&X-X>X&X&X-XR.J.r.E ",
"T 0.H.K.T.~.#X~.!.I.U.!._.).#X@X(.U.U.(.T.(.@X X(.E.I.T.I.H.0.T ",
"E ~ 0.r.G.K.U.J.F.q.f.F.F.H.P.K.H.e.e.F.F.H.L.L.H.A.e.F.D.0.~ U ",
",XW Q Q Q ( S.( ! Y I T Y ( D.0.R U U T U ~ t.r.^ Y I Y R T U ,X",
",X,X,X,XW T R Q ,X,X,Xn c Y R T I ,X,Xc c U R R U ,X,Xn ,X,X,X,X"
};
